<svg width="139" height="96" viewBox="0 0 139 96" fill="none" xmlns="http://www.w3.org/2000/svg">
<path d="M136.682 1.46392C135.378 0.160068 133.455 -0.328873 131.728 0.225264L3.39599 40.938C1.47281 41.5574 0.103769 43.285 0.00597961 45.3059C-0.0918093 47.3269 1.01646 49.2175 2.84186 50.065L34.5581 64.6355L44.1088 90.0281C44.1088 90.0281 44.174 90.1584 44.2066 90.2236C44.3044 90.4518 44.4347 90.68 44.5651 90.8756C44.6303 90.9734 44.6955 91.0712 44.7607 91.1689C44.9563 91.4297 45.1519 91.6579 45.38 91.886C45.4126 91.886 45.4452 91.9512 45.4778 91.9838C45.7386 92.212 46.0646 92.4402 46.3905 92.6032C46.4883 92.6358 46.5535 92.6684 46.6513 92.7336C46.8469 92.8313 47.0098 92.9291 47.2054 92.9943C47.2706 92.9943 47.3032 92.9943 47.3684 92.9943C47.4336 92.9943 47.4988 93.0595 47.564 93.0595C47.9225 93.1573 48.3137 93.1899 48.6723 93.1899C48.6723 93.1899 48.6723 93.1899 48.7049 93.1899C49.259 93.1899 49.8131 93.0595 50.3347 92.8965C50.4977 92.8313 50.628 92.7336 50.791 92.6684C51.1496 92.5054 51.4755 92.3098 51.7689 92.049C51.8341 91.9838 51.8993 91.9838 51.9645 91.9186L66.2091 79.1083L101.967 95.5042C102.619 95.7976 103.304 95.9606 104.021 95.9606C104.673 95.9606 105.325 95.8302 105.944 95.5694C107.215 95.0153 108.193 93.9722 108.649 92.6358L137.856 6.45116C138.442 4.69096 138.019 2.76777 136.715 1.46392H136.682ZM95.1872 22.0648L38.1437 55.476L18.3903 46.4142L95.1872 22.0648ZM51.9319 64.8311C51.9319 64.8311 51.8667 64.9289 51.8015 64.9615C51.5733 65.1571 51.3778 65.3853 51.1822 65.6134C51.117 65.7112 51.0192 65.809 50.954 65.9394C50.8236 66.135 50.6932 66.3632 50.5954 66.5913C50.5302 66.7217 50.4651 66.8195 50.4325 66.9499C50.4325 67.0151 50.3673 67.0477 50.3673 67.1129L48.3137 73.4691L44.4347 63.1361L78.3349 43.285L51.9319 64.8637V64.8311ZM101.087 84.3563L67.3825 68.8731L64.2207 67.4062L123.155 19.2941L101.12 84.3563H101.087Z" fill="#D4238B"/>
</svg>
