<svg width="140" height="140" viewBox="0 0 140 140" fill="none" xmlns="http://www.w3.org/2000/svg">
<path d="M69.9815 137.981C107.537 137.981 137.981 107.537 137.981 69.9814C137.981 32.4261 107.537 1.98145 69.9815 1.98145C32.4261 1.98145 1.98145 32.4261 1.98145 69.9814C1.98145 107.537 32.4261 137.981 69.9815 137.981Z" stroke="#FFB800" stroke-width="3.9631" stroke-linecap="round" stroke-linejoin="round" stroke-dasharray="18.49 18.49"/>
<mask id="mask0_237_2315" style="mask-type:luminance" maskUnits="userSpaceOnUse" x="19" y="19" width="102" height="102">
<path d="M69.981 120.617C97.9461 120.617 120.616 97.9471 120.616 69.982C120.616 42.0169 97.9461 19.3467 69.981 19.3467C42.0159 19.3467 19.3457 42.0169 19.3457 69.982C19.3457 97.9471 42.0159 120.617 69.981 120.617Z" fill="white"/>
</mask>
<g mask="url(#mask0_237_2315)">
<path d="M69.981 120.617C97.9461 120.617 120.616 97.9471 120.616 69.982C120.616 42.0169 97.9461 19.3467 69.981 19.3467C42.0159 19.3467 19.3457 42.0169 19.3457 69.982C19.3457 97.9471 42.0159 120.617 69.981 120.617Z" fill="#FFB800" stroke="white" stroke-width="3.9631" stroke-linecap="round" stroke-linejoin="round"/>
<path d="M69.9644 70.9888C78.2094 70.9888 84.8933 64.3048 84.8933 56.0598C84.8933 47.8148 78.2094 41.1309 69.9644 41.1309C61.7193 41.1309 55.0354 47.8148 55.0354 56.0598C55.0354 64.3048 61.7193 70.9888 69.9644 70.9888Z" fill="#D4238B" stroke="#D4238B" stroke-width="1.32103" stroke-miterlimit="10"/>
<path d="M40.2506 116.231C37.0252 114.477 35.3423 110.834 35.988 107.22C38.8721 91.0701 52.988 78.8145 69.9646 78.8145C86.9412 78.8145 101.221 91.2173 103.991 107.505C104.587 111.011 102.827 114.521 99.7054 116.224C93.5625 119.57 83.5318 123.688 70.6907 123.839C57.1602 123.996 46.5875 119.677 40.2539 116.234L40.2506 116.231Z" fill="#D4238B" stroke="#D4238B" stroke-width="1.32103" stroke-miterlimit="10"/>
</g>
<path d="M69.981 120.617C97.9461 120.617 120.616 97.9471 120.616 69.982C120.616 42.0169 97.9461 19.3467 69.981 19.3467C42.0159 19.3467 19.3457 42.0169 19.3457 69.982C19.3457 97.9471 42.0159 120.617 69.981 120.617Z" stroke="#FFB800" stroke-width="3.9631" stroke-linecap="round" stroke-linejoin="round"/>
</svg>
