<svg width="273" height="426" viewBox="0 0 273 426" fill="none" xmlns="http://www.w3.org/2000/svg">
<g clip-path="url(#clip0_233_958)">
<path d="M133.5 263.165C205.664 263.165 264.165 204.664 264.165 132.5C264.165 60.336 205.664 1.83545 133.5 1.83545C61.336 1.83545 2.83545 60.336 2.83545 132.5C2.83545 204.664 61.336 263.165 133.5 263.165Z" stroke="#FFB800" stroke-width="3.6707" stroke-linecap="round" stroke-linejoin="round" stroke-dasharray="19.58 19.58"/>
<mask id="mask0_233_958" style="mask-type:luminance" maskUnits="userSpaceOnUse" x="9" y="13" width="58" height="58">
<path d="M37.7389 70.3034C53.5516 70.3034 66.3703 57.4847 66.3703 41.672C66.3703 25.8593 53.5516 13.0405 37.7389 13.0405C21.9262 13.0405 9.10742 25.8593 9.10742 41.672C9.10742 57.4847 21.9262 70.3034 37.7389 70.3034Z" fill="white"/>
</mask>
<g mask="url(#mask0_233_958)">
<path d="M37.7389 70.3034C53.5516 70.3034 66.3703 57.4847 66.3703 41.672C66.3703 25.8593 53.5516 13.0405 37.7389 13.0405C21.9262 13.0405 9.10742 25.8593 9.10742 41.672C9.10742 57.4847 21.9262 70.3034 37.7389 70.3034Z" fill="white" stroke="#FAB722" stroke-width="3.6707" stroke-linecap="round" stroke-linejoin="round"/>
<path d="M37.7314 42.2397C42.3928 42.2397 46.1716 38.4609 46.1716 33.7995C46.1716 29.1382 42.3928 25.3594 37.7314 25.3594C33.0701 25.3594 29.2913 29.1382 29.2913 33.7995C29.2913 38.4609 33.0701 42.2397 37.7314 42.2397Z" fill="#D4238B" stroke="#D4238B" stroke-width="1.22357" stroke-miterlimit="10"/>
<path d="M20.9295 67.8244C19.1064 66.8333 18.1545 64.7728 18.5191 62.7295C20.1489 53.5992 28.1314 46.6665 37.7315 46.6665C47.3316 46.6665 55.4047 53.6775 56.9709 62.8885C57.3086 64.8732 56.3126 66.8554 54.5458 67.8171C51.0733 69.7087 45.4009 72.0384 38.1378 72.1216C30.4856 72.2097 24.5072 69.7674 20.9271 67.822L20.9295 67.8244Z" fill="#D4238B" stroke="#D4238B" stroke-width="1.22357" stroke-miterlimit="10"/>
</g>
<path d="M37.7389 70.3034C53.5516 70.3034 66.3703 57.4847 66.3703 41.672C66.3703 25.8593 53.5516 13.0405 37.7389 13.0405C21.9262 13.0405 9.10742 25.8593 9.10742 41.672C9.10742 57.4847 21.9262 70.3034 37.7389 70.3034Z" stroke="#FFB800" stroke-width="3.6707" stroke-linecap="round" stroke-linejoin="round"/>
<mask id="mask1_233_958" style="mask-type:luminance" maskUnits="userSpaceOnUse" x="213" y="179" width="58" height="58">
<path d="M241.952 236.662C257.765 236.662 270.583 223.844 270.583 208.031C270.583 192.218 257.765 179.399 241.952 179.399C226.139 179.399 213.321 192.218 213.321 208.031C213.321 223.844 226.139 236.662 241.952 236.662Z" fill="white"/>
</mask>
<g mask="url(#mask1_233_958)">
<path d="M241.952 236.662C257.765 236.662 270.583 223.844 270.583 208.031C270.583 192.218 257.765 179.399 241.952 179.399C226.139 179.399 213.321 192.218 213.321 208.031C213.321 223.844 226.139 236.662 241.952 236.662Z" fill="white" stroke="#FAB722" stroke-width="3.6707" stroke-linecap="round" stroke-linejoin="round"/>
<path d="M241.945 208.599C246.606 208.599 250.385 204.82 250.385 200.158C250.385 195.497 246.606 191.718 241.945 191.718C237.283 191.718 233.504 195.497 233.504 200.158C233.504 204.82 237.283 208.599 241.945 208.599Z" fill="#D4238B" stroke="#D4238B" stroke-width="1.22357" stroke-miterlimit="10"/>
<path d="M225.143 234.183C223.32 233.192 222.368 231.132 222.732 229.088C224.362 219.958 232.345 213.025 241.945 213.025C251.545 213.025 259.618 220.036 261.184 229.247C261.522 231.232 260.526 233.214 258.759 234.176C255.286 236.068 249.614 238.397 242.351 238.48C234.699 238.569 228.72 236.126 225.14 234.181L225.143 234.183Z" fill="#D4238B" stroke="#D4238B" stroke-width="1.22357" stroke-miterlimit="10"/>
</g>
<path d="M241.952 236.662C257.765 236.662 270.583 223.844 270.583 208.031C270.583 192.218 257.765 179.399 241.952 179.399C226.139 179.399 213.321 192.218 213.321 208.031C213.321 223.844 226.139 236.662 241.952 236.662Z" stroke="#FFB800" stroke-width="3.6707" stroke-linecap="round" stroke-linejoin="round"/>
<path d="M55.1282 67.6118L102.859 131.46" stroke="#FFB800" stroke-width="3.6707" stroke-linecap="round" stroke-linejoin="round"/>
<path d="M214.229 200.849L181.058 176.04" stroke="#FFB800" stroke-width="3.6707" stroke-linecap="round" stroke-linejoin="round"/>
<mask id="mask2_233_958" style="mask-type:luminance" maskUnits="userSpaceOnUse" x="11" y="191" width="58" height="59">
<path d="M39.8016 249.155C55.6143 249.155 68.4331 236.336 68.4331 220.524C68.4331 204.711 55.6143 191.892 39.8016 191.892C23.9889 191.892 11.1702 204.711 11.1702 220.524C11.1702 236.336 23.9889 249.155 39.8016 249.155Z" fill="white"/>
</mask>
<g mask="url(#mask2_233_958)">
<path d="M39.8016 249.155C55.6143 249.155 68.4331 236.336 68.4331 220.524C68.4331 204.711 55.6143 191.892 39.8016 191.892C23.9889 191.892 11.1702 204.711 11.1702 220.524C11.1702 236.336 23.9889 249.155 39.8016 249.155Z" fill="white" stroke="#FAB722" stroke-width="3.6707" stroke-linecap="round" stroke-linejoin="round"/>
<path d="M39.7917 221.091C44.4531 221.091 48.2319 217.312 48.2319 212.651C48.2319 207.99 44.4531 204.211 39.7917 204.211C35.1304 204.211 31.3516 207.99 31.3516 212.651C31.3516 217.312 35.1304 221.091 39.7917 221.091Z" fill="#D4238B" stroke="#D4238B" stroke-width="1.22357" stroke-miterlimit="10"/>
<path d="M22.9898 246.676C21.1667 245.685 20.2148 243.624 20.5794 241.581C22.2092 232.451 30.1917 225.518 39.7918 225.518C49.3919 225.518 57.465 232.529 59.0312 241.74C59.3689 243.725 58.3729 245.707 56.6061 246.669C53.1336 248.56 47.4612 250.89 40.1981 250.973C32.5459 251.061 26.5675 248.619 22.9874 246.674L22.9898 246.676Z" fill="#D4238B" stroke="#D4238B" stroke-width="1.22357" stroke-miterlimit="10"/>
</g>
<path d="M39.8016 249.155C55.6143 249.155 68.4331 236.336 68.4331 220.524C68.4331 204.711 55.6143 191.892 39.8016 191.892C23.9889 191.892 11.1702 204.711 11.1702 220.524C11.1702 236.336 23.9889 249.155 39.8016 249.155Z" stroke="#FAB722" stroke-width="3.6707" stroke-linecap="round" stroke-linejoin="round"/>
<path d="M61.4932 201.835L83.9456 175.291" stroke="#FFB800" stroke-width="3.6707" stroke-linecap="round" stroke-linejoin="round"/>
<path d="M186.4 93.4023H79.3522C73.3745 93.4023 68.5286 98.2483 68.5286 104.226V182.042C68.5286 188.02 73.3745 192.866 79.3522 192.866H186.4C192.377 192.866 197.223 188.02 197.223 182.042V104.226C197.223 98.2483 192.377 93.4023 186.4 93.4023Z" fill="white" stroke="#A8A8A8" stroke-width="2.44713" stroke-linecap="round" stroke-linejoin="round"/>
<g clip-path="url(#clip1_233_958)">
<path d="M175.588 168.189H91.4123C88.4573 168.189 86.0618 170.584 86.0618 173.539C86.0618 176.493 88.4573 178.888 91.4123 178.888H175.588C178.543 178.888 180.938 176.493 180.938 173.539C180.938 170.584 178.543 168.189 175.588 168.189Z" fill="#D9D9D9" stroke="white" stroke-width="0.123511" stroke-miterlimit="10"/>
<path d="M111.994 132.964H155.087C161.927 132.964 167.483 138.517 167.483 145.36V168.511H99.6011V145.36C99.6011 138.52 105.154 132.964 111.997 132.964H111.994Z" fill="#D4238B"/>
<path d="M108.442 132.964H158.642C163.568 132.964 167.567 136.964 167.567 141.889V150.009H99.5171V141.889C99.5171 136.964 103.516 132.964 108.442 132.964Z" fill="#E170B3"/>
<path d="M156.241 138.152C150.041 138.152 145.001 142.415 144.88 147.712C144.757 142.413 139.72 138.152 133.52 138.152C127.319 138.152 122.735 142.04 122.204 147.005C121.673 142.04 116.809 138.152 110.888 138.152C104.608 138.152 99.5195 142.519 99.5195 147.909C99.5195 153.299 104.608 157.667 110.888 157.667C114.64 157.667 117.967 156.105 120.037 153.699C121.181 152.368 123.229 152.368 124.372 153.699C126.443 156.105 129.77 157.667 133.522 157.667C137.274 157.667 140.639 156.088 142.707 153.657C143.853 152.311 145.918 152.311 147.064 153.657C149.132 156.088 152.474 157.667 156.248 157.667C162.528 157.667 167.616 153.299 167.616 147.909C167.616 142.519 162.528 138.152 156.248 138.152H156.241Z" fill="#E170B3"/>
<path d="M135.671 139.54C135.617 139.659 134.873 141.203 133.5 141.203C132.126 141.203 131.383 139.659 131.329 139.54V119.613H135.674V139.54H135.671Z" fill="#D9D9D9" stroke="white" stroke-width="0.123511" stroke-miterlimit="10"/>
<path d="M133.5 124.383C137.22 124.383 139.671 120.504 138.075 117.142L133.866 108.287C133.683 107.901 133.129 107.904 132.952 108.294L128.888 117.217C127.362 120.571 129.812 124.38 133.498 124.38L133.5 124.383Z" fill="#FFB800"/>
</g>
<path d="M204.879 67.6111L220.797 57.8229C222.138 57 223.717 58.4471 223.014 59.8522L214.659 76.5681C212.803 80.2796 214.228 84.7945 217.878 86.7678L234.314 95.6603C235.696 96.4077 235.235 98.5014 233.664 98.5965L215.012 99.7189C210.869 99.9681 207.672 103.458 207.787 107.607L208.305 126.287C208.35 127.861 206.304 128.504 205.439 127.192L195.141 111.598C192.854 108.136 188.233 107.111 184.698 109.286L168.78 119.074C167.439 119.897 165.86 118.45 166.563 117.045L174.918 100.329C176.774 96.6176 175.349 92.1027 171.699 90.1294L155.263 81.2369C153.88 80.4895 154.342 78.3958 155.913 78.3007L174.565 77.1783C178.708 76.9291 181.904 73.4387 181.79 69.2906L181.272 50.6097C181.227 49.0367 183.273 48.3929 184.138 49.7057L194.436 65.2991C196.723 68.7615 201.344 69.786 204.879 67.6111Z" fill="#FFB800"/>
<path d="M182.887 78.8409C183.22 77.3406 184.082 76.1622 185.476 75.3085C186.892 74.4604 188.365 74.2057 189.896 74.5444C191.471 74.8943 192.703 75.7536 193.593 77.1223C194.489 78.4826 194.763 79.9326 194.422 81.4748C194.077 83.0283 193.215 84.2319 191.83 85.0884C190.447 85.9449 188.952 86.194 187.346 85.8385C185.773 85.4914 184.547 84.6265 183.668 83.2494C182.8 81.8723 182.54 80.4028 182.884 78.8409H182.887ZM185.577 79.4875C185.384 80.358 185.524 81.1585 185.988 81.8919C186.456 82.6252 187.119 83.0871 187.978 83.2774C188.818 83.4621 189.605 83.3222 190.335 82.8547C191.068 82.3873 191.53 81.7295 191.718 80.8814C191.903 80.0417 191.763 79.258 191.295 78.5246C190.828 77.7913 190.17 77.3294 189.322 77.1419C188.474 76.9544 187.682 77.0943 186.948 77.5618C186.215 78.0292 185.759 78.673 185.577 79.4903V79.4875ZM204.288 78.0544C204.7 78.4267 204.728 79.0592 204.355 79.4679L186.716 98.7589C186.338 99.1704 185.697 99.1928 185.294 98.8093L185.263 98.7813C184.869 98.4062 184.846 97.7848 185.213 97.3818L202.883 78.1188C203.253 77.7157 203.882 77.6849 204.288 78.0544ZM195.149 95.3385C195.48 93.8466 196.342 92.6766 197.736 91.8229C199.152 90.9748 200.624 90.7201 202.155 91.0587C203.74 91.4086 204.977 92.2707 205.867 93.6395C206.763 94.9998 207.037 96.4497 206.695 97.992C206.354 99.5342 205.481 100.757 204.087 101.6C202.715 102.448 201.223 102.692 199.608 102.336C198.035 101.989 196.809 101.13 195.928 99.761C195.057 98.395 194.797 96.9199 195.147 95.3357L195.149 95.3385ZM197.853 96.0019C197.66 96.8724 197.792 97.6729 198.251 98.4034C198.718 99.1368 199.382 99.5986 200.241 99.789C201.089 99.9765 201.876 99.8365 202.598 99.3663C203.331 98.8989 203.793 98.2411 203.98 97.393C204.168 96.5449 204.028 95.7527 203.561 95.0194C203.104 94.2888 202.447 93.827 201.587 93.6367C200.728 93.4463 199.964 93.5919 199.23 94.0593C198.497 94.5268 198.038 95.1733 197.856 96.0019H197.853Z" fill="#D4238B"/>
</g>
<rect x="19" y="346" width="245" height="79" fill="white" stroke="#D4238B" stroke-width="2"/>
<circle cx="18" cy="345" r="17" fill="white" stroke="#D4238B" stroke-width="2"/>
<path d="M63.9323 378H61.0204L67.5633 359.818H70.7327L77.2757 378H74.3638L69.2235 363.121H69.0815L63.9323 378ZM64.4206 370.88H73.8666V373.188H64.4206V370.88ZM85.1992 364.364V366.494H77.7507V364.364H85.1992ZM79.7482 361.097H82.4027V373.996C82.4027 374.511 82.4796 374.899 82.6335 375.159C82.7874 375.414 82.9856 375.588 83.2283 375.683C83.4769 375.772 83.7462 375.816 84.0362 375.816C84.2492 375.816 84.4357 375.801 84.5955 375.772C84.7553 375.742 84.8796 375.718 84.9684 375.701L85.4478 377.893C85.2939 377.953 85.0749 378.012 84.7908 378.071C84.5067 378.136 84.1516 378.172 83.7255 378.178C83.0271 378.189 82.376 378.065 81.7723 377.805C81.1686 377.544 80.6804 377.142 80.3075 376.597C79.9346 376.053 79.7482 375.369 79.7482 374.547V361.097ZM88.1355 378V364.364H90.7012V366.53H90.8433C91.0918 365.796 91.5298 365.219 92.1572 364.799C92.7905 364.373 93.5066 364.159 94.3056 364.159C94.4713 364.159 94.6667 364.165 94.8916 364.177C95.1224 364.189 95.3029 364.204 95.4331 364.222V366.761C95.3266 366.731 95.1372 366.699 94.8649 366.663C94.5927 366.622 94.3204 366.601 94.0482 366.601C93.4208 366.601 92.8615 366.734 92.3703 367C91.8849 367.261 91.5002 367.625 91.2161 368.092C90.932 368.554 90.79 369.081 90.79 369.673V378H88.1355ZM101.577 378.302C100.712 378.302 99.9312 378.142 99.2328 377.822C98.5344 377.497 97.981 377.026 97.5727 376.411C97.1702 375.795 96.969 375.041 96.969 374.147C96.969 373.378 97.1169 372.744 97.4129 372.247C97.7088 371.75 98.1083 371.356 98.6114 371.066C99.1145 370.776 99.6767 370.557 100.298 370.409C100.92 370.261 101.553 370.149 102.198 370.072C103.015 369.977 103.678 369.9 104.187 369.841C104.696 369.776 105.066 369.673 105.296 369.531C105.527 369.388 105.643 369.158 105.643 368.838V368.776C105.643 368.001 105.424 367.4 104.986 366.974C104.554 366.548 103.908 366.335 103.05 366.335C102.157 366.335 101.452 366.533 100.937 366.929C100.428 367.32 100.076 367.755 99.8809 368.234L97.3862 367.666C97.6822 366.838 98.1142 366.169 98.6824 365.66C99.2565 365.145 99.9164 364.772 100.662 364.541C101.408 364.304 102.192 364.186 103.015 364.186C103.559 364.186 104.136 364.251 104.746 364.381C105.361 364.506 105.936 364.737 106.468 365.074C107.007 365.411 107.448 365.894 107.791 366.521C108.134 367.142 108.306 367.95 108.306 368.945V378H105.714V376.136H105.607C105.435 376.479 105.178 376.816 104.835 377.148C104.491 377.479 104.051 377.754 103.512 377.973C102.973 378.192 102.328 378.302 101.577 378.302ZM102.154 376.171C102.888 376.171 103.515 376.026 104.036 375.736C104.562 375.446 104.962 375.067 105.234 374.6C105.512 374.126 105.652 373.62 105.652 373.082V371.324C105.557 371.419 105.373 371.507 105.101 371.59C104.835 371.667 104.53 371.735 104.187 371.794C103.843 371.848 103.509 371.898 103.183 371.945C102.858 371.987 102.586 372.022 102.367 372.052C101.852 372.117 101.381 372.226 100.955 372.38C100.535 372.534 100.198 372.756 99.943 373.046C99.6945 373.33 99.5702 373.709 99.5702 374.183C99.5702 374.839 99.8128 375.337 100.298 375.674C100.783 376.005 101.402 376.171 102.154 376.171ZM117.719 378.275C116.375 378.275 115.218 377.988 114.247 377.414C113.283 376.834 112.537 376.02 112.01 374.973C111.489 373.919 111.229 372.685 111.229 371.271C111.229 369.874 111.489 368.643 112.01 367.577C112.537 366.512 113.271 365.681 114.212 365.083C115.159 364.485 116.266 364.186 117.532 364.186C118.302 364.186 119.047 364.313 119.769 364.568C120.492 364.822 121.14 365.222 121.714 365.766C122.288 366.311 122.741 367.018 123.072 367.888C123.403 368.752 123.569 369.803 123.569 371.04V371.981H112.729V369.992H120.968C120.968 369.294 120.826 368.675 120.542 368.137C120.258 367.592 119.858 367.163 119.343 366.849C118.834 366.536 118.237 366.379 117.55 366.379C116.804 366.379 116.153 366.562 115.597 366.929C115.046 367.29 114.62 367.764 114.318 368.35C114.023 368.93 113.875 369.56 113.875 370.241V371.794C113.875 372.706 114.034 373.481 114.354 374.12C114.68 374.76 115.132 375.248 115.712 375.585C116.292 375.917 116.97 376.082 117.745 376.082C118.248 376.082 118.707 376.011 119.121 375.869C119.536 375.721 119.894 375.502 120.196 375.212C120.497 374.922 120.728 374.564 120.888 374.138L123.401 374.591C123.199 375.331 122.838 375.979 122.317 376.535C121.803 377.086 121.154 377.515 120.373 377.822C119.598 378.124 118.713 378.275 117.719 378.275ZM135.785 369.903V378H133.131V364.364H135.679V366.583H135.847C136.161 365.861 136.652 365.281 137.321 364.843C137.996 364.405 138.845 364.186 139.869 364.186C140.798 364.186 141.612 364.381 142.31 364.772C143.009 365.157 143.55 365.731 143.935 366.494C144.32 367.258 144.512 368.202 144.512 369.326V378H141.858V369.646C141.858 368.658 141.6 367.885 141.085 367.329C140.57 366.767 139.863 366.485 138.963 366.485C138.348 366.485 137.8 366.619 137.321 366.885C136.847 367.151 136.472 367.542 136.193 368.057C135.921 368.566 135.785 369.181 135.785 369.903ZM156.71 372.345V364.364H159.374V378H156.763V375.638H156.621C156.308 376.366 155.805 376.973 155.112 377.458C154.426 377.938 153.57 378.178 152.546 378.178C151.671 378.178 150.895 377.985 150.22 377.6C149.552 377.21 149.025 376.633 148.64 375.869C148.261 375.106 148.072 374.162 148.072 373.037V364.364H150.727V372.718C150.727 373.647 150.984 374.387 151.499 374.937C152.014 375.488 152.683 375.763 153.505 375.763C154.002 375.763 154.497 375.638 154.988 375.39C155.485 375.141 155.896 374.766 156.222 374.262C156.553 373.759 156.716 373.12 156.71 372.345ZM168.817 378.275C167.474 378.275 166.317 377.988 165.346 377.414C164.381 376.834 163.636 376.02 163.109 374.973C162.588 373.919 162.328 372.685 162.328 371.271C162.328 369.874 162.588 368.643 163.109 367.577C163.636 366.512 164.37 365.681 165.311 365.083C166.258 364.485 167.364 364.186 168.631 364.186C169.4 364.186 170.146 364.313 170.868 364.568C171.59 364.822 172.238 365.222 172.812 365.766C173.386 366.311 173.839 367.018 174.171 367.888C174.502 368.752 174.668 369.803 174.668 371.04V371.981H163.828V369.992H172.067C172.067 369.294 171.925 368.675 171.64 368.137C171.356 367.592 170.957 367.163 170.442 366.849C169.933 366.536 169.335 366.379 168.649 366.379C167.903 366.379 167.252 366.562 166.696 366.929C166.145 367.29 165.719 367.764 165.417 368.35C165.121 368.93 164.973 369.56 164.973 370.241V371.794C164.973 372.706 165.133 373.481 165.453 374.12C165.778 374.76 166.231 375.248 166.811 375.585C167.391 375.917 168.069 376.082 168.844 376.082C169.347 376.082 169.806 376.011 170.22 375.869C170.634 375.721 170.992 375.502 171.294 375.212C171.596 374.922 171.827 374.564 171.987 374.138L174.499 374.591C174.298 375.331 173.937 375.979 173.416 376.535C172.901 377.086 172.253 377.515 171.472 377.822C170.696 378.124 169.812 378.275 168.817 378.275ZM188.888 364.364L183.943 378H181.102L176.148 364.364H178.998L182.451 374.857H182.594L186.038 364.364H188.888ZM196.663 378.275C195.384 378.275 194.269 377.982 193.316 377.396C192.363 376.81 191.623 375.991 191.096 374.937C190.57 373.884 190.306 372.653 190.306 371.244C190.306 369.829 190.57 368.592 191.096 367.533C191.623 366.474 192.363 365.651 193.316 365.065C194.269 364.479 195.384 364.186 196.663 364.186C197.941 364.186 199.057 364.479 200.01 365.065C200.963 365.651 201.702 366.474 202.229 367.533C202.756 368.592 203.019 369.829 203.019 371.244C203.019 372.653 202.756 373.884 202.229 374.937C201.702 375.991 200.963 376.81 200.01 377.396C199.057 377.982 197.941 378.275 196.663 378.275ZM196.672 376.047C197.5 376.047 198.187 375.828 198.731 375.39C199.276 374.952 199.678 374.369 199.939 373.641C200.205 372.913 200.338 372.111 200.338 371.235C200.338 370.365 200.205 369.566 199.939 368.838C199.678 368.104 199.276 367.515 198.731 367.071C198.187 366.627 197.5 366.406 196.672 366.406C195.837 366.406 195.145 366.627 194.594 367.071C194.05 367.515 193.644 368.104 193.378 368.838C193.117 369.566 192.987 370.365 192.987 371.235C192.987 372.111 193.117 372.913 193.378 373.641C193.644 374.369 194.05 374.952 194.594 375.39C195.145 375.828 195.837 376.047 196.672 376.047ZM216.201 367.693L213.795 368.119C213.694 367.811 213.534 367.518 213.315 367.24C213.102 366.962 212.812 366.734 212.445 366.556C212.078 366.379 211.62 366.29 211.069 366.29C210.318 366.29 209.69 366.459 209.187 366.796C208.684 367.128 208.432 367.557 208.432 368.083C208.432 368.539 208.601 368.906 208.939 369.184C209.276 369.462 209.82 369.69 210.572 369.868L212.738 370.365C213.993 370.655 214.928 371.102 215.544 371.706C216.159 372.309 216.467 373.094 216.467 374.058C216.467 374.875 216.23 375.603 215.757 376.242C215.289 376.875 214.635 377.373 213.795 377.734C212.96 378.095 211.992 378.275 210.892 378.275C209.365 378.275 208.119 377.95 207.154 377.299C206.189 376.642 205.597 375.71 205.379 374.502L207.944 374.112C208.104 374.78 208.432 375.286 208.93 375.63C209.427 375.967 210.075 376.136 210.874 376.136C211.744 376.136 212.439 375.955 212.96 375.594C213.481 375.227 213.741 374.78 213.741 374.254C213.741 373.827 213.582 373.469 213.262 373.179C212.948 372.889 212.466 372.67 211.815 372.522L209.507 372.016C208.234 371.726 207.293 371.265 206.684 370.631C206.08 369.998 205.778 369.196 205.778 368.225C205.778 367.421 206.003 366.716 206.453 366.113C206.903 365.509 207.524 365.038 208.317 364.701C209.11 364.358 210.019 364.186 211.043 364.186C212.516 364.186 213.676 364.506 214.523 365.145C215.369 365.778 215.928 366.627 216.201 367.693ZM99.7877 408.275C98.4678 408.275 97.3315 407.976 96.3786 407.379C95.4316 406.775 94.7036 405.943 94.1946 404.884C93.6857 403.824 93.4312 402.611 93.4312 401.244C93.4312 399.859 93.6916 398.637 94.2124 397.577C94.7332 396.512 95.4671 395.681 96.4141 395.083C97.3611 394.485 98.4767 394.186 99.7611 394.186C100.797 394.186 101.72 394.378 102.531 394.763C103.342 395.142 103.996 395.675 104.493 396.361C104.996 397.048 105.295 397.85 105.39 398.767H102.806C102.664 398.128 102.339 397.577 101.83 397.116C101.327 396.654 100.652 396.423 99.8054 396.423C99.0656 396.423 98.4175 396.619 97.8612 397.009C97.3108 397.394 96.8817 397.944 96.5739 398.661C96.2661 399.371 96.1123 400.211 96.1123 401.182C96.1123 402.176 96.2632 403.034 96.565 403.756C96.8669 404.478 97.293 405.038 97.8434 405.434C98.3998 405.831 99.0538 406.029 99.8054 406.029C100.309 406.029 100.764 405.937 101.173 405.754C101.587 405.565 101.933 405.295 102.211 404.946C102.495 404.597 102.694 404.177 102.806 403.685H105.39C105.295 404.567 105.008 405.354 104.528 406.047C104.049 406.739 103.407 407.284 102.602 407.68C101.803 408.077 100.865 408.275 99.7877 408.275ZM110.883 389.818V408H108.228V389.818H110.883ZM114.454 408V394.364H117.108V408H114.454ZM115.794 392.26C115.333 392.26 114.936 392.106 114.605 391.798C114.279 391.484 114.117 391.111 114.117 390.679C114.117 390.241 114.279 389.868 114.605 389.561C114.936 389.247 115.333 389.09 115.794 389.09C116.256 389.09 116.65 389.247 116.975 389.561C117.307 389.868 117.472 390.241 117.472 390.679C117.472 391.111 117.307 391.484 116.975 391.798C116.65 392.106 116.256 392.26 115.794 392.26ZM126.557 408.275C125.213 408.275 124.056 407.988 123.085 407.414C122.121 406.834 121.375 406.02 120.848 404.973C120.327 403.919 120.067 402.685 120.067 401.271C120.067 399.874 120.327 398.643 120.848 397.577C121.375 396.512 122.109 395.681 123.05 395.083C123.997 394.485 125.104 394.186 126.37 394.186C127.14 394.186 127.885 394.313 128.607 394.568C129.329 394.822 129.978 395.222 130.552 395.766C131.126 396.311 131.578 397.018 131.91 397.888C132.241 398.752 132.407 399.803 132.407 401.04V401.981H121.567V399.992H129.806C129.806 399.294 129.664 398.675 129.38 398.137C129.096 397.592 128.696 397.163 128.181 396.849C127.672 396.536 127.074 396.379 126.388 396.379C125.642 396.379 124.991 396.562 124.435 396.929C123.884 397.29 123.458 397.764 123.156 398.35C122.86 398.93 122.712 399.56 122.712 400.241V401.794C122.712 402.706 122.872 403.481 123.192 404.12C123.517 404.76 123.97 405.248 124.55 405.585C125.13 405.917 125.808 406.082 126.583 406.082C127.086 406.082 127.545 406.011 127.959 405.869C128.374 405.721 128.732 405.502 129.034 405.212C129.335 404.922 129.566 404.564 129.726 404.138L132.238 404.591C132.037 405.331 131.676 405.979 131.155 406.535C130.64 407.086 129.992 407.515 129.211 407.822C128.436 408.124 127.551 408.275 126.557 408.275ZM138.007 399.903V408H135.352V394.364H137.9V396.583H138.069C138.383 395.861 138.874 395.281 139.543 394.843C140.217 394.405 141.067 394.186 142.091 394.186C143.02 394.186 143.834 394.381 144.532 394.772C145.23 395.157 145.772 395.731 146.157 396.494C146.541 397.258 146.734 398.202 146.734 399.326V408H144.079V399.646C144.079 398.658 143.822 397.885 143.307 397.329C142.792 396.767 142.085 396.485 141.185 396.485C140.57 396.485 140.022 396.619 139.543 396.885C139.069 397.151 138.693 397.542 138.415 398.057C138.143 398.566 138.007 399.181 138.007 399.903ZM156.659 394.364V396.494H149.211V394.364H156.659ZM151.208 391.097H153.863V403.996C153.863 404.511 153.94 404.899 154.093 405.159C154.247 405.414 154.446 405.588 154.688 405.683C154.937 405.772 155.206 405.816 155.496 405.816C155.709 405.816 155.896 405.801 156.055 405.772C156.215 405.742 156.34 405.718 156.428 405.701L156.908 407.893C156.754 407.953 156.535 408.012 156.251 408.071C155.967 408.136 155.612 408.172 155.185 408.178C154.487 408.189 153.836 408.065 153.232 407.805C152.629 407.544 152.14 407.142 151.767 406.597C151.395 406.053 151.208 405.369 151.208 404.547V391.097ZM165.326 408.275C163.983 408.275 162.826 407.988 161.855 407.414C160.89 406.834 160.144 406.02 159.618 404.973C159.097 403.919 158.836 402.685 158.836 401.271C158.836 399.874 159.097 398.643 159.618 397.577C160.144 396.512 160.878 395.681 161.819 395.083C162.766 394.485 163.873 394.186 165.14 394.186C165.909 394.186 166.655 394.313 167.377 394.568C168.099 394.822 168.747 395.222 169.321 395.766C169.895 396.311 170.348 397.018 170.679 397.888C171.011 398.752 171.177 399.803 171.177 401.04V401.981H160.337V399.992H168.575C168.575 399.294 168.433 398.675 168.149 398.137C167.865 397.592 167.466 397.163 166.951 396.849C166.442 396.536 165.844 396.379 165.157 396.379C164.412 396.379 163.761 396.562 163.204 396.929C162.654 397.29 162.228 397.764 161.926 398.35C161.63 398.93 161.482 399.56 161.482 400.241V401.794C161.482 402.706 161.642 403.481 161.961 404.12C162.287 404.76 162.74 405.248 163.32 405.585C163.9 405.917 164.577 406.082 165.353 406.082C165.856 406.082 166.315 406.011 166.729 405.869C167.143 405.721 167.501 405.502 167.803 405.212C168.105 404.922 168.336 404.564 168.496 404.138L171.008 404.591C170.807 405.331 170.446 405.979 169.925 406.535C169.41 407.086 168.762 407.515 167.981 407.822C167.205 408.124 166.32 408.275 165.326 408.275ZM184.34 397.693L181.934 398.119C181.834 397.811 181.674 397.518 181.455 397.24C181.242 396.962 180.952 396.734 180.585 396.556C180.218 396.379 179.759 396.29 179.209 396.29C178.457 396.29 177.83 396.459 177.327 396.796C176.824 397.128 176.572 397.557 176.572 398.083C176.572 398.539 176.741 398.906 177.078 399.184C177.416 399.462 177.96 399.69 178.712 399.868L180.878 400.365C182.133 400.655 183.068 401.102 183.683 401.706C184.299 402.309 184.607 403.094 184.607 404.058C184.607 404.875 184.37 405.603 183.896 406.242C183.429 406.875 182.775 407.373 181.934 407.734C181.1 408.095 180.132 408.275 179.031 408.275C177.504 408.275 176.258 407.95 175.294 407.299C174.329 406.642 173.737 405.71 173.518 404.502L176.084 404.112C176.244 404.78 176.572 405.286 177.069 405.63C177.566 405.967 178.215 406.136 179.014 406.136C179.884 406.136 180.579 405.955 181.1 405.594C181.621 405.227 181.881 404.78 181.881 404.254C181.881 403.827 181.721 403.469 181.402 403.179C181.088 402.889 180.606 402.67 179.955 402.522L177.646 402.016C176.374 401.726 175.433 401.265 174.823 400.631C174.22 399.998 173.918 399.196 173.918 398.225C173.918 397.421 174.143 396.716 174.592 396.113C175.042 395.509 175.664 395.038 176.457 394.701C177.25 394.358 178.158 394.186 179.182 394.186C180.656 394.186 181.816 394.506 182.662 395.145C183.509 395.778 184.068 396.627 184.34 397.693Z" fill="#D4238B"/>
<path d="M11.0829 354V352.011L17.2353 345.637C17.8922 344.945 18.4338 344.338 18.8599 343.817C19.292 343.29 19.6145 342.79 19.8276 342.317C20.0407 341.843 20.1472 341.34 20.1472 340.808C20.1472 340.204 20.0051 339.683 19.7211 339.245C19.437 338.801 19.0493 338.461 18.5581 338.224C18.0668 337.981 17.5134 337.86 16.8979 337.86C16.2469 337.86 15.6787 337.993 15.1934 338.26C14.708 338.526 14.3352 338.902 14.0748 339.387C13.8143 339.872 13.6841 340.441 13.6841 341.092H11.0652C11.0652 339.985 11.3197 339.017 11.8287 338.189C12.3377 337.36 13.036 336.718 13.9238 336.262C14.8116 335.8 15.8207 335.57 16.9512 335.57C18.0935 335.57 19.0996 335.797 19.9696 336.253C20.8456 336.703 21.5292 337.319 22.0204 338.1C22.5117 338.875 22.7573 339.751 22.7573 340.728C22.7573 341.402 22.63 342.062 22.3755 342.707C22.127 343.353 21.6919 344.072 21.0705 344.865C20.449 345.652 19.5849 346.608 18.4782 347.732L14.8649 351.514V351.647H23.0502V354H11.0829Z" fill="#D4238B"/>
<defs>
<clipPath id="clip0_233_958">
<rect width="271.419" height="265" fill="white" transform="translate(1)"/>
</clipPath>
<clipPath id="clip1_233_958">
<rect width="95" height="70.9499" fill="white" transform="translate(86 108)"/>
</clipPath>
</defs>
</svg>
