<svg width="265" height="474" viewBox="0 0 265 474" fill="none" xmlns="http://www.w3.org/2000/svg">
<g clip-path="url(#clip0_233_1145)">
<g opacity="0.3">
<path d="M112.27 15.8872H43.2392C41.4502 15.8872 40 17.3374 40 19.1264V49.7858C40 51.5748 41.4502 53.025 43.2392 53.025H112.27C114.059 53.025 115.509 51.5748 115.509 49.7858V19.1264C115.509 17.3374 114.059 15.8872 112.27 15.8872Z" fill="#D4238B"/>
<path d="M76.3584 64.2656L66.105 41.811H89.4057L79.1523 64.2656C78.606 65.4621 76.9062 65.4621 76.3599 64.2656H76.3584Z" fill="#D4238B"/>
<path d="M63.3142 41.2245C71.1169 41.2245 77.4422 37.9406 77.4422 33.8896C77.4422 29.8386 71.1169 26.5547 63.3142 26.5547C55.5115 26.5547 49.1862 29.8386 49.1862 33.8896C49.1862 37.9406 55.5115 41.2245 63.3142 41.2245Z" fill="white"/>
<path d="M63.3141 41.995C59.4188 41.995 55.7447 41.2008 52.9686 39.7593C50.0323 38.2347 48.4142 36.149 48.4142 33.8881C48.4142 31.6272 50.0308 29.5415 52.9686 28.0169C55.7447 26.5755 59.4188 25.7812 63.3141 25.7812C67.2095 25.7812 70.8836 26.5755 73.6596 28.0169C76.596 29.5415 78.2141 31.6272 78.2141 33.8881C78.2141 36.149 76.5975 38.2347 73.6596 39.7593C70.8836 41.2008 67.2095 41.995 63.3141 41.995ZM63.3141 27.3266C56.0742 27.3266 49.9581 30.3327 49.9581 33.8896C49.9581 37.4465 56.0742 40.4526 63.3141 40.4526C70.5541 40.4526 76.6702 37.4465 76.6702 33.8896C76.6702 30.3327 70.5541 27.3266 63.3141 27.3266Z" fill="#B22F83"/>
<path d="M63.314 37.1824C65.1325 37.1824 66.6066 35.7083 66.6066 33.8898C66.6066 32.0713 65.1325 30.5972 63.314 30.5972C61.4955 30.5972 60.0214 32.0713 60.0214 33.8898C60.0214 35.7083 61.4955 37.1824 63.314 37.1824Z" fill="white"/>
<path d="M63.3141 37.9529C61.074 37.9529 59.2495 36.1299 59.2495 33.8883C59.2495 31.6467 61.0725 29.8237 63.3141 29.8237C65.5557 29.8237 67.3786 31.6467 67.3786 33.8883C67.3786 36.1299 65.5557 37.9529 63.3141 37.9529ZM63.3141 31.3691C61.9246 31.3691 60.7934 32.5003 60.7934 33.8898C60.7934 35.2793 61.9246 36.4105 63.3141 36.4105C64.7036 36.4105 65.8348 35.2793 65.8348 33.8898C65.8348 32.5003 64.7036 31.3691 63.3141 31.3691Z" fill="#B22F83"/>
<path d="M83.5479 29.1243H81.2677L82.3603 27.2627H85.5371V40.4481H83.5479V29.1243Z" fill="white"/>
<path d="M90.7211 40.4465L93.4971 26.271L98.0233 36.5185L102.711 26.271L105.205 40.4465H103.164L101.892 32.4881L97.9892 41.0537L94.1978 32.4807L92.7801 40.448H90.7226L90.7211 40.4465Z" fill="white"/>
</g>
<g opacity="0.3">
<path d="M222.123 15.7388H153.092C151.304 15.7388 149.853 17.189 149.853 18.978V49.6374C149.853 51.4263 151.304 52.8766 153.092 52.8766H222.123C223.912 52.8766 225.363 51.4263 225.363 49.6374V18.978C225.363 17.189 223.912 15.7388 222.123 15.7388Z" fill="#D4238B"/>
<path d="M186.212 64.1172L175.958 41.6626H199.259L189.006 64.1172C188.459 65.3137 186.759 65.3137 186.213 64.1172H186.212Z" fill="#D4238B"/>
<path d="M173.167 41.0761C180.97 41.0761 187.295 37.7921 187.295 33.7412C187.295 29.6902 180.97 26.4062 173.167 26.4062C165.365 26.4062 159.039 29.6902 159.039 33.7412C159.039 37.7921 165.365 41.0761 173.167 41.0761Z" fill="white"/>
<path d="M173.167 41.8466C169.272 41.8466 165.598 41.0523 162.822 39.6109C159.885 38.0863 158.267 36.0006 158.267 33.7397C158.267 31.4788 159.884 29.3931 162.822 27.8685C165.598 26.427 169.272 25.6328 173.167 25.6328C177.063 25.6328 180.737 26.427 183.513 27.8685C186.449 29.3931 188.067 31.4788 188.067 33.7397C188.067 36.0006 186.451 38.0863 183.513 39.6109C180.737 41.0523 177.063 41.8466 173.167 41.8466ZM173.167 27.1782C165.927 27.1782 159.811 30.1843 159.811 33.7412C159.811 37.298 165.927 40.3042 173.167 40.3042C180.407 40.3042 186.523 37.298 186.523 33.7412C186.523 30.1843 180.407 27.1782 173.167 27.1782Z" fill="#D4238B"/>
<path d="M173.167 37.034C174.986 37.034 176.46 35.5598 176.46 33.7414C176.46 31.9229 174.986 30.4487 173.167 30.4487C171.349 30.4487 169.875 31.9229 169.875 33.7414C169.875 35.5598 171.349 37.034 173.167 37.034Z" fill="white"/>
<path d="M173.167 37.8044C170.927 37.8044 169.103 35.9815 169.103 33.7399C169.103 31.4983 170.926 29.6753 173.167 29.6753C175.409 29.6753 177.232 31.4983 177.232 33.7399C177.232 35.9815 175.409 37.8044 173.167 37.8044ZM173.167 31.2207C171.778 31.2207 170.647 32.3519 170.647 33.7413C170.647 35.1308 171.778 36.262 173.167 36.262C174.557 36.262 175.688 35.1308 175.688 33.7413C175.688 32.3519 174.557 31.2207 173.167 31.2207Z" fill="#D4238B"/>
<path d="M193.401 28.9758H191.121L192.213 27.1143H195.39V40.2996H193.401V28.9758Z" fill="white"/>
<path d="M200.574 40.2981L203.35 26.1226L207.876 36.3701L212.565 26.1226L215.059 40.2981H213.017L211.745 32.3397L207.842 40.9052L204.051 32.3322L202.633 40.2996H200.576L200.574 40.2981Z" fill="white"/>
</g>
<path d="M68.1521 70.5957H206.808C210.905 70.5957 214.227 74.203 214.227 78.6536V304.941C214.227 309.391 210.905 312.999 206.808 312.999H68.1521C64.0549 312.999 60.7325 309.391 60.7325 304.941V78.6536C60.7325 74.203 64.0549 70.5957 68.1521 70.5957Z" fill="#D9D9D9"/>
<path d="M79.1893 88.5151H195.812C197.782 88.5151 199.381 90.3826 199.381 92.6851V290.869C199.381 293.173 197.783 295.039 195.812 295.039H79.1893C77.2179 295.039 75.6206 293.172 75.6206 290.869V92.6851C75.6206 90.3812 77.2179 88.5151 79.1893 88.5151Z" fill="white"/>
<path d="M195.813 295.781H79.1893C76.8126 295.781 74.8783 293.577 74.8783 290.869V92.6852C74.8783 89.9759 76.8126 87.7729 79.1893 87.7729H195.812C198.189 87.7729 200.123 89.9774 200.123 92.6852V290.869C200.123 293.578 198.189 295.781 195.812 295.781H195.813ZM79.1893 89.2575C77.6306 89.2575 76.3628 90.7954 76.3628 92.6852V290.869C76.3628 292.759 77.6306 294.297 79.1893 294.297H195.812C197.371 294.297 198.638 292.759 198.638 290.869V92.6852C198.638 90.7954 197.371 89.2575 195.812 89.2575H79.1893Z" fill="#A8A8A8"/>
<path d="M108.988 97.2246H166.012C168.374 97.2246 170.287 99.3029 170.287 101.868V109.393C170.287 111.958 168.374 114.037 166.012 114.037H108.988C106.626 114.037 104.712 111.958 104.712 109.393V101.868C104.712 99.3029 106.626 97.2246 108.988 97.2246Z" fill="#D9D9D9"/>
<path d="M185.438 128.104H89.5214C88.2146 128.104 87.1552 129.163 87.1552 130.47V250.733C87.1552 252.04 88.2146 253.099 89.5214 253.099H185.438C186.745 253.099 187.804 252.04 187.804 250.733V130.47C187.804 129.163 186.745 128.104 185.438 128.104Z" fill="#D4238B"/>
<path d="M129.55 265.772H90.2563C88.9946 265.772 87.9717 266.795 87.9717 268.057V276.22C87.9717 277.482 88.9946 278.505 90.2563 278.505H129.55C130.811 278.505 131.834 277.482 131.834 276.22V268.057C131.834 266.795 130.811 265.772 129.55 265.772Z" fill="white"/>
<path d="M129.55 279.247H90.2563C88.5862 279.247 87.2294 277.889 87.2294 276.22V268.057C87.2294 266.387 88.5877 265.03 90.2563 265.03H129.55C131.22 265.03 132.576 266.388 132.576 268.057V276.22C132.576 277.89 131.218 279.247 129.55 279.247ZM90.2563 266.514C89.4057 266.514 88.7139 267.206 88.7139 268.057V276.22C88.7139 277.071 89.4057 277.762 90.2563 277.762H129.55C130.4 277.762 131.092 277.071 131.092 276.22V268.057C131.092 267.206 130.4 266.514 129.55 266.514H90.2563Z" fill="#A8A8A8"/>
<path d="M184.776 265.698H145.483C144.221 265.698 143.198 266.721 143.198 267.982V276.146C143.198 277.407 144.221 278.43 145.483 278.43H184.776C186.038 278.43 187.061 277.407 187.061 276.146V267.982C187.061 266.721 186.038 265.698 184.776 265.698Z" fill="#FFB800"/>
<path d="M184.776 279.173H145.483C143.813 279.173 142.456 277.814 142.456 276.146V267.982C142.456 266.312 143.814 264.956 145.483 264.956H184.776C186.446 264.956 187.803 266.314 187.803 267.982V276.146C187.803 277.816 186.445 279.173 184.776 279.173ZM145.484 266.44C144.634 266.44 143.942 267.132 143.942 267.982V276.146C143.942 276.996 144.634 277.688 145.484 277.688H184.778C185.628 277.688 186.32 276.996 186.32 276.146V267.982C186.32 267.132 185.628 266.44 184.778 266.44H145.484Z" fill="#FFB800"/>
<path d="M179.24 159.773C180.257 159.773 181.077 160.621 181.026 161.636C180.055 181.273 163.827 196.896 143.949 196.896C124.072 196.896 107.843 181.273 106.872 161.636C106.822 160.621 107.641 159.773 108.658 159.773H179.24Z" fill="#F1F1F1"/>
<path d="M168.914 229.162L149.915 218.663C148.621 217.948 147.818 216.586 147.818 215.108V187.205H140.066V215.14C140.066 216.62 139.261 217.983 137.964 218.697L118.974 229.162C118.573 229.383 118.729 229.993 119.188 229.993H168.697C169.156 229.993 169.313 229.383 168.911 229.162H168.914Z" fill="#F1F1F1"/>
<path d="M143.949 191.966C156.251 191.966 166.891 184.857 171.987 174.523H115.91C121.008 184.857 131.647 191.966 143.948 191.966H143.949Z" fill="#D4238B"/>
<path d="M109.446 149.656L115.015 145.25L113.983 152.275C113.824 153.354 114.428 154.402 115.444 154.804L122.044 157.423L115.444 160.042C114.43 160.444 113.824 161.49 113.983 162.571L115.015 169.596L109.446 165.19C108.591 164.513 107.382 164.513 106.526 165.19L100.958 169.596L101.99 162.571C102.149 161.492 101.544 160.444 100.529 160.042L93.929 157.423L100.529 154.804C101.543 154.402 102.149 153.355 101.99 152.275L100.958 145.25L106.526 149.656C107.382 150.333 108.591 150.333 109.446 149.656Z" fill="#FFB800"/>
<path d="M166.206 0C167.994 0.000243247 169.444 1.45046 169.444 3.23926V33.8984C169.444 35.6872 167.994 37.1375 166.206 37.1377H138.221L133.087 48.3799C132.541 49.5764 130.842 49.5763 130.295 48.3799H130.293L125.16 37.1377H97.1743C95.3854 37.1377 93.9351 35.6874 93.9351 33.8984V3.23926C93.9351 1.45031 95.3854 0 97.1743 0H166.206Z" fill="#D4238B"/>
<path d="M117.248 25.3373C125.05 25.3373 131.376 22.0534 131.376 18.0024C131.376 13.9514 125.05 10.6675 117.248 10.6675C109.445 10.6675 103.12 13.9514 103.12 18.0024C103.12 22.0534 109.445 25.3373 117.248 25.3373Z" fill="white"/>
<path d="M117.248 26.1078C113.352 26.1078 109.678 25.3136 106.902 23.8721C103.966 22.3475 102.348 20.2618 102.348 18.0009C102.348 15.74 103.964 13.6543 106.902 12.1297C109.678 10.6883 113.352 9.89404 117.248 9.89404C121.143 9.89404 124.817 10.6883 127.593 12.1297C130.529 13.6543 132.148 15.74 132.148 18.0009C132.148 20.2618 130.531 22.3475 127.593 23.8721C124.817 25.3136 121.143 26.1078 117.248 26.1078ZM117.248 11.4394C110.008 11.4394 103.892 14.4455 103.892 18.0024C103.892 21.5593 110.008 24.5654 117.248 24.5654C124.488 24.5654 130.604 21.5593 130.604 18.0024C130.604 14.4455 124.488 11.4394 117.248 11.4394Z" fill="#D4238B"/>
<path d="M117.248 21.2952C119.066 21.2952 120.54 19.8211 120.54 18.0026C120.54 16.1841 119.066 14.71 117.248 14.71C115.429 14.71 113.955 16.1841 113.955 18.0026C113.955 19.8211 115.429 21.2952 117.248 21.2952Z" fill="white"/>
<path d="M117.248 22.0671C115.008 22.0671 113.183 20.2442 113.183 18.0026C113.183 15.761 115.006 13.938 117.248 13.938C119.489 13.938 121.312 15.761 121.312 18.0026C121.312 20.2442 119.489 22.0671 117.248 22.0671ZM117.248 15.4819C115.858 15.4819 114.727 16.6131 114.727 18.0026C114.727 19.3921 115.858 20.5232 117.248 20.5232C118.637 20.5232 119.768 19.3921 119.768 18.0026C119.768 16.6131 118.637 15.4819 117.248 15.4819Z" fill="#D4238B"/>
<path d="M137.483 13.2371H135.203L136.295 11.3755H139.472V24.5608H137.483V13.2371Z" fill="white"/>
<path d="M144.656 24.5608L147.432 10.3853L151.958 20.6328L156.646 10.3853L159.14 24.5608H157.099L155.827 16.6024L151.924 25.1679L148.133 16.5949L146.715 24.5623H144.657L144.656 24.5608Z" fill="white"/>
</g>
<rect x="19" y="394" width="245" height="79" fill="white" stroke="#D4238B" stroke-width="2"/>
<circle cx="18" cy="393" r="17" fill="white" stroke="#D4238B" stroke-width="2"/>
<path d="M73.3317 426H70.4198L76.9628 407.818H80.1321L86.6751 426H83.7632L78.6229 411.121H78.4809L73.3317 426ZM73.82 418.88H83.266V421.188H73.82V418.88ZM97.7258 420.345V412.364H100.389V426H97.7791V423.638H97.637C97.3233 424.366 96.8203 424.973 96.1278 425.458C95.4412 425.938 94.586 426.178 93.5621 426.178C92.6862 426.178 91.9108 425.985 91.2361 425.6C90.5673 425.21 90.0406 424.633 89.6559 423.869C89.2771 423.106 89.0877 422.162 89.0877 421.037V412.364H91.7421V420.718C91.7421 421.647 91.9996 422.387 92.5145 422.937C93.0294 423.488 93.6982 423.763 94.5209 423.763C95.0181 423.763 95.5123 423.638 96.0035 423.39C96.5007 423.141 96.912 422.766 97.2375 422.262C97.569 421.759 97.7317 421.12 97.7258 420.345ZM103.956 426V412.364H106.504V414.583H106.672C106.957 413.831 107.421 413.246 108.066 412.825C108.711 412.399 109.484 412.186 110.383 412.186C111.295 412.186 112.058 412.399 112.674 412.825C113.295 413.251 113.754 413.837 114.05 414.583H114.192C114.518 413.855 115.035 413.275 115.746 412.843C116.456 412.405 117.302 412.186 118.285 412.186C119.522 412.186 120.531 412.574 121.312 413.349C122.099 414.124 122.493 415.293 122.493 416.856V426H119.838V417.104C119.838 416.181 119.587 415.512 119.084 415.098C118.581 414.684 117.98 414.477 117.281 414.477C116.417 414.477 115.746 414.743 115.266 415.276C114.787 415.802 114.547 416.48 114.547 417.309V426H111.902V416.936C111.902 416.196 111.671 415.601 111.209 415.151C110.747 414.701 110.147 414.477 109.407 414.477C108.904 414.477 108.439 414.61 108.013 414.876C107.593 415.136 107.252 415.5 106.992 415.968C106.738 416.436 106.61 416.977 106.61 417.593V426H103.956ZM131.928 426.275C130.584 426.275 129.427 425.988 128.456 425.414C127.492 424.834 126.746 424.02 126.219 422.973C125.698 421.919 125.438 420.685 125.438 419.271C125.438 417.874 125.698 416.643 126.219 415.577C126.746 414.512 127.48 413.681 128.421 413.083C129.368 412.485 130.475 412.186 131.741 412.186C132.511 412.186 133.256 412.313 133.978 412.568C134.701 412.822 135.349 413.222 135.923 413.766C136.497 414.311 136.95 415.018 137.281 415.888C137.612 416.752 137.778 417.803 137.778 419.04V419.981H126.938V417.992H135.177C135.177 417.294 135.035 416.675 134.751 416.137C134.467 415.592 134.067 415.163 133.552 414.849C133.043 414.536 132.446 414.379 131.759 414.379C131.013 414.379 130.362 414.562 129.806 414.929C129.255 415.29 128.829 415.764 128.527 416.35C128.232 416.93 128.084 417.56 128.084 418.241V419.794C128.084 420.706 128.243 421.481 128.563 422.12C128.889 422.76 129.341 423.248 129.921 423.585C130.501 423.917 131.179 424.082 131.954 424.082C132.457 424.082 132.916 424.011 133.33 423.869C133.745 423.721 134.103 423.502 134.405 423.212C134.706 422.922 134.937 422.564 135.097 422.138L137.61 422.591C137.408 423.331 137.047 423.979 136.526 424.535C136.011 425.086 135.363 425.515 134.582 425.822C133.807 426.124 132.922 426.275 131.928 426.275ZM143.378 417.903V426H140.723V412.364H143.271V414.583H143.44C143.754 413.861 144.245 413.281 144.914 412.843C145.588 412.405 146.438 412.186 147.462 412.186C148.391 412.186 149.205 412.381 149.903 412.772C150.601 413.157 151.143 413.731 151.528 414.494C151.912 415.258 152.105 416.202 152.105 417.326V426H149.45V417.646C149.45 416.658 149.193 415.885 148.678 415.329C148.163 414.767 147.456 414.485 146.556 414.485C145.941 414.485 145.393 414.619 144.914 414.885C144.44 415.151 144.064 415.542 143.786 416.057C143.514 416.566 143.378 417.181 143.378 417.903ZM162.03 412.364V414.494H154.582V412.364H162.03ZM156.579 409.097H159.234V421.996C159.234 422.511 159.311 422.899 159.465 423.159C159.618 423.414 159.817 423.588 160.059 423.683C160.308 423.772 160.577 423.816 160.867 423.816C161.08 423.816 161.267 423.801 161.427 423.772C161.586 423.742 161.711 423.718 161.799 423.701L162.279 425.893C162.125 425.953 161.906 426.012 161.622 426.071C161.338 426.136 160.983 426.172 160.557 426.178C159.858 426.189 159.207 426.065 158.603 425.805C158 425.544 157.511 425.142 157.139 424.597C156.766 424.053 156.579 423.369 156.579 422.547V409.097ZM168.935 426.302C168.071 426.302 167.29 426.142 166.591 425.822C165.893 425.497 165.339 425.026 164.931 424.411C164.529 423.795 164.327 423.041 164.327 422.147C164.327 421.378 164.475 420.744 164.771 420.247C165.067 419.75 165.467 419.356 165.97 419.066C166.473 418.776 167.035 418.557 167.657 418.409C168.278 418.261 168.911 418.149 169.556 418.072C170.373 417.977 171.036 417.9 171.545 417.841C172.054 417.776 172.424 417.673 172.655 417.531C172.886 417.388 173.001 417.158 173.001 416.838V416.776C173.001 416.001 172.782 415.4 172.344 414.974C171.912 414.548 171.267 414.335 170.409 414.335C169.515 414.335 168.811 414.533 168.296 414.929C167.787 415.32 167.435 415.755 167.239 416.234L164.745 415.666C165.041 414.838 165.473 414.169 166.041 413.66C166.615 413.145 167.275 412.772 168.021 412.541C168.766 412.304 169.551 412.186 170.373 412.186C170.918 412.186 171.495 412.251 172.104 412.381C172.72 412.506 173.294 412.737 173.827 413.074C174.365 413.411 174.806 413.894 175.149 414.521C175.493 415.142 175.664 415.95 175.664 416.945V426H173.072V424.136H172.966C172.794 424.479 172.536 424.816 172.193 425.148C171.85 425.479 171.409 425.754 170.87 425.973C170.332 426.192 169.687 426.302 168.935 426.302ZM169.512 424.171C170.246 424.171 170.873 424.026 171.394 423.736C171.921 423.446 172.32 423.067 172.593 422.6C172.871 422.126 173.01 421.62 173.01 421.082V419.324C172.915 419.419 172.732 419.507 172.459 419.59C172.193 419.667 171.888 419.735 171.545 419.794C171.202 419.848 170.867 419.898 170.542 419.945C170.216 419.987 169.944 420.022 169.725 420.052C169.21 420.117 168.74 420.226 168.314 420.38C167.893 420.534 167.556 420.756 167.301 421.046C167.053 421.33 166.929 421.709 166.929 422.183C166.929 422.839 167.171 423.337 167.657 423.674C168.142 424.005 168.76 424.171 169.512 424.171ZM192.182 412.364V414.494H184.733V412.364H192.182ZM186.731 409.097H189.385V421.996C189.385 422.511 189.462 422.899 189.616 423.159C189.77 423.414 189.968 423.588 190.211 423.683C190.459 423.772 190.729 423.816 191.019 423.816C191.232 423.816 191.418 423.801 191.578 423.772C191.738 423.742 191.862 423.718 191.951 423.701L192.43 425.893C192.276 425.953 192.057 426.012 191.773 426.071C191.489 426.136 191.134 426.172 190.708 426.178C190.009 426.189 189.358 426.065 188.755 425.805C188.151 425.544 187.663 425.142 187.29 424.597C186.917 424.053 186.731 423.369 186.731 422.547V409.097ZM203.756 420.345V412.364H206.419V426H203.809V423.638H203.667C203.354 424.366 202.851 424.973 202.158 425.458C201.472 425.938 200.616 426.178 199.592 426.178C198.716 426.178 197.941 425.985 197.266 425.6C196.598 425.21 196.071 424.633 195.686 423.869C195.307 423.106 195.118 422.162 195.118 421.037V412.364H197.772V420.718C197.772 421.647 198.03 422.387 198.545 422.937C199.06 423.488 199.729 423.763 200.551 423.763C201.048 423.763 201.543 423.638 202.034 423.39C202.531 423.141 202.942 422.766 203.268 422.262C203.599 421.759 203.762 421.12 203.756 420.345ZM52.5598 442.364L47.6148 456H44.7739L39.8201 442.364H42.6699L46.1234 452.857H46.2654L49.71 442.364H52.5598ZM55.0545 456V442.364H57.7089V456H55.0545ZM56.395 440.26C55.9334 440.26 55.5368 440.106 55.2054 439.798C54.8799 439.484 54.7171 439.111 54.7171 438.679C54.7171 438.241 54.8799 437.868 55.2054 437.561C55.5368 437.247 55.9334 437.09 56.395 437.09C56.8567 437.09 57.2503 437.247 57.5758 437.561C57.9072 437.868 58.0729 438.241 58.0729 438.679C58.0729 439.111 57.9072 439.484 57.5758 439.798C57.2503 440.106 56.8567 440.26 56.395 440.26ZM71.4984 445.693L69.0926 446.119C68.9919 445.811 68.8321 445.518 68.6131 445.24C68.4001 444.962 68.1101 444.734 67.7431 444.556C67.3762 444.379 66.9175 444.29 66.3671 444.29C65.6154 444.29 64.988 444.459 64.485 444.796C63.9819 445.128 63.7303 445.557 63.7303 446.083C63.7303 446.539 63.899 446.906 64.2364 447.184C64.5737 447.462 65.1182 447.69 65.8699 447.868L68.0361 448.365C69.2908 448.655 70.226 449.102 70.8415 449.706C71.457 450.309 71.7648 451.094 71.7648 452.058C71.7648 452.875 71.528 453.603 71.0546 454.242C70.587 454.875 69.933 455.373 69.0926 455.734C68.258 456.095 67.2904 456.275 66.1895 456.275C64.6625 456.275 63.4167 455.95 62.4519 455.299C61.4872 454.642 60.8953 453.71 60.6764 452.502L63.2421 452.112C63.4019 452.78 63.7303 453.286 64.2275 453.63C64.7247 453.967 65.3727 454.136 66.1717 454.136C67.0418 454.136 67.7372 453.955 68.258 453.594C68.7789 453.227 69.0393 452.78 69.0393 452.254C69.0393 451.827 68.8795 451.469 68.5599 451.179C68.2462 450.889 67.7638 450.67 67.1128 450.522L64.8046 450.016C63.5321 449.726 62.591 449.265 61.9814 448.631C61.3777 447.998 61.0759 447.196 61.0759 446.225C61.0759 445.421 61.3008 444.716 61.7506 444.113C62.2004 443.509 62.8218 443.038 63.6149 442.701C64.408 442.358 65.3165 442.186 66.3404 442.186C67.8141 442.186 68.9742 442.506 69.8205 443.145C70.6669 443.778 71.2262 444.627 71.4984 445.693ZM74.6834 456V442.364H77.3378V456H74.6834ZM76.0239 440.26C75.5623 440.26 75.1657 440.106 74.8343 439.798C74.5088 439.484 74.346 439.111 74.346 438.679C74.346 438.241 74.5088 437.868 74.8343 437.561C75.1657 437.247 75.5623 437.09 76.0239 437.09C76.4856 437.09 76.8792 437.247 77.2047 437.561C77.5361 437.868 77.7018 438.241 77.7018 438.679C77.7018 439.111 77.5361 439.484 77.2047 439.798C76.8792 440.106 76.4856 440.26 76.0239 440.26ZM81.122 456V437.818H83.7765V444.574H83.9363C84.0902 444.29 84.3121 443.962 84.6021 443.589C84.8921 443.216 85.2946 442.89 85.8095 442.612C86.3244 442.328 87.0051 442.186 87.8514 442.186C88.9523 442.186 89.9348 442.464 90.7989 443.021C91.663 443.577 92.3407 444.379 92.8319 445.426C93.3291 446.474 93.5776 447.735 93.5776 449.208C93.5776 450.682 93.332 451.946 92.8408 452.999C92.3495 454.047 91.6748 454.855 90.8166 455.423C89.9584 455.985 88.9789 456.266 87.8781 456.266C87.0495 456.266 86.3718 456.127 85.845 455.849C85.3242 455.571 84.9158 455.245 84.6199 454.873C84.324 454.5 84.0961 454.168 83.9363 453.878H83.7144V456H81.122ZM83.7232 449.182C83.7232 450.141 83.8623 450.981 84.1405 451.703C84.4187 452.425 84.8211 452.99 85.3479 453.399C85.8746 453.801 86.5198 454.002 87.2832 454.002C88.0763 454.002 88.7392 453.792 89.2719 453.372C89.8046 452.946 90.207 452.369 90.4793 451.641C90.7574 450.913 90.8965 450.093 90.8965 449.182C90.8965 448.282 90.7604 447.474 90.4881 446.758C90.2218 446.042 89.8194 445.477 89.2808 445.062C88.7481 444.648 88.0823 444.441 87.2832 444.441C86.5138 444.441 85.8628 444.639 85.3301 445.036C84.8034 445.432 84.4039 445.986 84.1316 446.696C83.8594 447.406 83.7232 448.235 83.7232 449.182ZM96.5584 456V442.364H99.2128V456H96.5584ZM97.8989 440.26C97.4373 440.26 97.0407 440.106 96.7093 439.798C96.3838 439.484 96.221 439.111 96.221 438.679C96.221 438.241 96.3838 437.868 96.7093 437.561C97.0407 437.247 97.4373 437.09 97.8989 437.09C98.3606 437.09 98.7542 437.247 99.0797 437.561C99.4111 437.868 99.5768 438.241 99.5768 438.679C99.5768 439.111 99.4111 439.484 99.0797 439.798C98.7542 440.106 98.3606 440.26 97.8989 440.26ZM105.438 437.818V456H102.784V437.818H105.438ZM109.01 456V442.364H111.664V456H109.01ZM110.35 440.26C109.888 440.26 109.492 440.106 109.16 439.798C108.835 439.484 108.672 439.111 108.672 438.679C108.672 438.241 108.835 437.868 109.16 437.561C109.492 437.247 109.888 437.09 110.35 437.09C110.812 437.09 111.205 437.247 111.531 437.561C111.862 437.868 112.028 438.241 112.028 438.679C112.028 439.111 111.862 439.484 111.531 439.798C111.205 440.106 110.812 440.26 110.35 440.26ZM120.34 456.266C119.239 456.266 118.257 455.985 117.392 455.423C116.534 454.855 115.86 454.047 115.368 452.999C114.883 451.946 114.64 450.682 114.64 449.208C114.64 447.735 114.886 446.474 115.377 445.426C115.874 444.379 116.555 443.577 117.419 443.021C118.283 442.464 119.263 442.186 120.358 442.186C121.204 442.186 121.885 442.328 122.4 442.612C122.92 442.89 123.323 443.216 123.607 443.589C123.897 443.962 124.122 444.29 124.282 444.574H124.441V437.818H127.096V456H124.504V453.878H124.282C124.122 454.168 123.891 454.5 123.589 454.873C123.293 455.245 122.885 455.571 122.364 455.849C121.843 456.127 121.168 456.266 120.34 456.266ZM120.926 454.002C121.689 454.002 122.334 453.801 122.861 453.399C123.394 452.99 123.796 452.425 124.069 451.703C124.347 450.981 124.486 450.141 124.486 449.182C124.486 448.235 124.35 447.406 124.077 446.696C123.805 445.986 123.406 445.432 122.879 445.036C122.352 444.639 121.701 444.441 120.926 444.441C120.127 444.441 119.461 444.648 118.928 445.062C118.396 445.477 117.993 446.042 117.721 446.758C117.455 447.474 117.321 448.282 117.321 449.182C117.321 450.093 117.458 450.913 117.73 451.641C118.002 452.369 118.405 452.946 118.937 453.372C119.476 453.792 120.139 454.002 120.926 454.002ZM134.853 456.302C133.989 456.302 133.208 456.142 132.509 455.822C131.811 455.497 131.257 455.026 130.849 454.411C130.447 453.795 130.245 453.041 130.245 452.147C130.245 451.378 130.393 450.744 130.689 450.247C130.985 449.75 131.385 449.356 131.888 449.066C132.391 448.776 132.953 448.557 133.575 448.409C134.196 448.261 134.829 448.149 135.474 448.072C136.291 447.977 136.954 447.9 137.463 447.841C137.972 447.776 138.342 447.673 138.573 447.531C138.804 447.388 138.919 447.158 138.919 446.838V446.776C138.919 446.001 138.7 445.4 138.262 444.974C137.83 444.548 137.185 444.335 136.327 444.335C135.433 444.335 134.729 444.533 134.214 444.929C133.705 445.32 133.353 445.755 133.157 446.234L130.663 445.666C130.959 444.838 131.391 444.169 131.959 443.66C132.533 443.145 133.193 442.772 133.939 442.541C134.684 442.304 135.468 442.186 136.291 442.186C136.836 442.186 137.413 442.251 138.022 442.381C138.638 442.506 139.212 442.737 139.745 443.074C140.283 443.411 140.724 443.894 141.067 444.521C141.411 445.142 141.582 445.95 141.582 446.945V456H138.99V454.136H138.883C138.712 454.479 138.454 454.816 138.111 455.148C137.768 455.479 137.327 455.754 136.788 455.973C136.25 456.192 135.605 456.302 134.853 456.302ZM135.43 454.171C136.164 454.171 136.791 454.026 137.312 453.736C137.839 453.446 138.238 453.067 138.511 452.6C138.789 452.126 138.928 451.62 138.928 451.082V449.324C138.833 449.419 138.65 449.507 138.377 449.59C138.111 449.667 137.806 449.735 137.463 449.794C137.12 449.848 136.785 449.898 136.46 449.945C136.134 449.987 135.862 450.022 135.643 450.052C135.128 450.117 134.658 450.226 134.231 450.38C133.811 450.534 133.474 450.756 133.219 451.046C132.971 451.33 132.847 451.709 132.847 452.183C132.847 452.839 133.089 453.337 133.575 453.674C134.06 454.005 134.678 454.171 135.43 454.171ZM150.223 456.266C149.122 456.266 148.139 455.985 147.275 455.423C146.417 454.855 145.742 454.047 145.251 452.999C144.766 451.946 144.523 450.682 144.523 449.208C144.523 447.735 144.769 446.474 145.26 445.426C145.757 444.379 146.438 443.577 147.302 443.021C148.166 442.464 149.146 442.186 150.24 442.186C151.087 442.186 151.767 442.328 152.282 442.612C152.803 442.89 153.206 443.216 153.49 443.589C153.78 443.962 154.005 444.29 154.164 444.574H154.324V437.818H156.979V456H154.386V453.878H154.164C154.005 454.168 153.774 454.5 153.472 454.873C153.176 455.245 152.768 455.571 152.247 455.849C151.726 456.127 151.051 456.266 150.223 456.266ZM150.809 454.002C151.572 454.002 152.217 453.801 152.744 453.399C153.277 452.99 153.679 452.425 153.951 451.703C154.23 450.981 154.369 450.141 154.369 449.182C154.369 448.235 154.233 447.406 153.96 446.696C153.688 445.986 153.289 445.432 152.762 445.036C152.235 444.639 151.584 444.441 150.809 444.441C150.01 444.441 149.344 444.648 148.811 445.062C148.278 445.477 147.876 446.042 147.604 446.758C147.337 447.474 147.204 448.282 147.204 449.182C147.204 450.093 147.34 450.913 147.613 451.641C147.885 452.369 148.287 452.946 148.82 453.372C149.359 453.792 150.021 454.002 150.809 454.002ZM172.488 456.266C171.387 456.266 170.405 455.985 169.541 455.423C168.683 454.855 168.008 454.047 167.517 452.999C167.031 451.946 166.789 450.682 166.789 449.208C166.789 447.735 167.034 446.474 167.526 445.426C168.023 444.379 168.703 443.577 169.568 443.021C170.432 442.464 171.411 442.186 172.506 442.186C173.352 442.186 174.033 442.328 174.548 442.612C175.069 442.89 175.471 443.216 175.755 443.589C176.045 443.962 176.27 444.29 176.43 444.574H176.59V437.818H179.244V456H176.652V453.878H176.43C176.27 454.168 176.039 454.5 175.738 454.873C175.442 455.245 175.033 455.571 174.512 455.849C173.992 456.127 173.317 456.266 172.488 456.266ZM173.074 454.002C173.838 454.002 174.483 453.801 175.01 453.399C175.542 452.99 175.945 452.425 176.217 451.703C176.495 450.981 176.634 450.141 176.634 449.182C176.634 448.235 176.498 447.406 176.226 446.696C175.954 445.986 175.554 445.432 175.027 445.036C174.501 444.639 173.85 444.441 173.074 444.441C172.275 444.441 171.609 444.648 171.077 445.062C170.544 445.477 170.142 446.042 169.869 446.758C169.603 447.474 169.47 448.282 169.47 449.182C169.47 450.093 169.606 450.913 169.878 451.641C170.15 452.369 170.553 452.946 171.086 453.372C171.624 453.792 172.287 454.002 173.074 454.002ZM183.033 456V442.364H185.687V456H183.033ZM184.374 440.26C183.912 440.26 183.515 440.106 183.184 439.798C182.858 439.484 182.696 439.111 182.696 438.679C182.696 438.241 182.858 437.868 183.184 437.561C183.515 437.247 183.912 437.09 184.374 437.09C184.835 437.09 185.229 437.247 185.554 437.561C185.886 437.868 186.051 438.241 186.051 438.679C186.051 439.111 185.886 439.484 185.554 439.798C185.229 440.106 184.835 440.26 184.374 440.26ZM194.976 461.398C193.893 461.398 192.961 461.256 192.179 460.972C191.404 460.688 190.771 460.312 190.28 459.844C189.788 459.377 189.421 458.865 189.179 458.308L191.46 457.367C191.62 457.628 191.833 457.903 192.099 458.193C192.372 458.489 192.739 458.74 193.2 458.947C193.668 459.155 194.269 459.258 195.003 459.258C196.009 459.258 196.84 459.013 197.497 458.521C198.154 458.036 198.483 457.261 198.483 456.195V453.514H198.314C198.154 453.804 197.923 454.127 197.621 454.482C197.326 454.837 196.917 455.145 196.396 455.405C195.876 455.666 195.198 455.796 194.363 455.796C193.286 455.796 192.316 455.544 191.451 455.041C190.593 454.532 189.913 453.783 189.409 452.795C188.912 451.801 188.664 450.579 188.664 449.129C188.664 447.679 188.909 446.436 189.401 445.4C189.898 444.364 190.578 443.571 191.443 443.021C192.307 442.464 193.286 442.186 194.381 442.186C195.227 442.186 195.911 442.328 196.432 442.612C196.953 442.89 197.358 443.216 197.648 443.589C197.944 443.962 198.172 444.29 198.332 444.574H198.527V442.364H201.128V456.302C201.128 457.474 200.856 458.435 200.311 459.187C199.767 459.939 199.03 460.495 198.101 460.856C197.178 461.217 196.136 461.398 194.976 461.398ZM194.949 453.594C195.713 453.594 196.358 453.417 196.885 453.061C197.417 452.7 197.82 452.185 198.092 451.517C198.37 450.842 198.509 450.034 198.509 449.093C198.509 448.176 198.373 447.368 198.101 446.669C197.829 445.971 197.429 445.426 196.902 445.036C196.376 444.639 195.725 444.441 194.949 444.441C194.15 444.441 193.484 444.648 192.952 445.062C192.419 445.471 192.017 446.027 191.744 446.732C191.478 447.436 191.345 448.223 191.345 449.093C191.345 449.987 191.481 450.771 191.753 451.446C192.025 452.12 192.428 452.647 192.961 453.026C193.499 453.405 194.162 453.594 194.949 453.594ZM204.688 456V442.364H207.343V456H204.688ZM206.029 440.26C205.567 440.26 205.171 440.106 204.839 439.798C204.514 439.484 204.351 439.111 204.351 438.679C204.351 438.241 204.514 437.868 204.839 437.561C205.171 437.247 205.567 437.09 206.029 437.09C206.49 437.09 206.884 437.247 207.21 437.561C207.541 437.868 207.707 438.241 207.707 438.679C207.707 439.111 207.541 439.484 207.21 439.798C206.884 440.106 206.49 440.26 206.029 440.26ZM217.279 442.364V444.494H209.831V442.364H217.279ZM211.828 439.097H214.483V451.996C214.483 452.511 214.56 452.899 214.714 453.159C214.867 453.414 215.066 453.588 215.308 453.683C215.557 453.772 215.826 453.816 216.116 453.816C216.329 453.816 216.516 453.801 216.676 453.772C216.835 453.742 216.96 453.718 217.048 453.701L217.528 455.893C217.374 455.953 217.155 456.012 216.871 456.071C216.587 456.136 216.232 456.172 215.806 456.178C215.107 456.189 214.456 456.065 213.852 455.805C213.249 455.544 212.76 455.142 212.388 454.597C212.015 454.053 211.828 453.369 211.828 452.547V439.097ZM224.184 456.302C223.32 456.302 222.539 456.142 221.84 455.822C221.142 455.497 220.588 455.026 220.18 454.411C219.778 453.795 219.576 453.041 219.576 452.147C219.576 451.378 219.724 450.744 220.02 450.247C220.316 449.75 220.716 449.356 221.219 449.066C221.722 448.776 222.284 448.557 222.906 448.409C223.527 448.261 224.16 448.149 224.805 448.072C225.622 447.977 226.285 447.9 226.794 447.841C227.303 447.776 227.673 447.673 227.904 447.531C228.135 447.388 228.25 447.158 228.25 446.838V446.776C228.25 446.001 228.031 445.4 227.593 444.974C227.161 444.548 226.516 444.335 225.658 444.335C224.764 444.335 224.06 444.533 223.545 444.929C223.036 445.32 222.684 445.755 222.488 446.234L219.994 445.666C220.29 444.838 220.722 444.169 221.29 443.66C221.864 443.145 222.524 442.772 223.27 442.541C224.015 442.304 224.8 442.186 225.622 442.186C226.167 442.186 226.744 442.251 227.353 442.381C227.969 442.506 228.543 442.737 229.076 443.074C229.614 443.411 230.055 443.894 230.398 444.521C230.742 445.142 230.913 445.95 230.913 446.945V456H228.321V454.136H228.215C228.043 454.479 227.785 454.816 227.442 455.148C227.099 455.479 226.658 455.754 226.119 455.973C225.581 456.192 224.936 456.302 224.184 456.302ZM224.761 454.171C225.495 454.171 226.122 454.026 226.643 453.736C227.17 453.446 227.569 453.067 227.842 452.6C228.12 452.126 228.259 451.62 228.259 451.082V449.324C228.164 449.419 227.981 449.507 227.708 449.59C227.442 449.667 227.137 449.735 226.794 449.794C226.451 449.848 226.116 449.898 225.791 449.945C225.465 449.987 225.193 450.022 224.974 450.052C224.459 450.117 223.989 450.226 223.563 450.38C223.142 450.534 222.805 450.756 222.55 451.046C222.302 451.33 222.178 451.709 222.178 452.183C222.178 452.839 222.42 453.337 222.906 453.674C223.391 454.005 224.009 454.171 224.761 454.171ZM237.103 437.818V456H234.449V437.818H237.103Z" fill="#D4238B"/>
<path d="M19.7388 383.818V402H16.9867V386.57H16.8801L12.53 389.411V386.783L17.0666 383.818H19.7388Z" fill="#D4238B"/>
<defs>
<clipPath id="clip0_233_1145">
<rect width="185.362" height="313" fill="white" transform="translate(40)"/>
</clipPath>
</defs>
</svg>
