<svg width="265" height="430" viewBox="0 0 265 430" fill="none" xmlns="http://www.w3.org/2000/svg">
<rect x="19" y="350" width="245" height="79" fill="white" stroke="#D4238B" stroke-width="2"/>
<circle cx="18" cy="349" r="17" fill="white" stroke="#D4238B" stroke-width="2"/>
<path d="M75.4102 369.731H72.6404C72.5338 369.139 72.3356 368.618 72.0455 368.168C71.7555 367.719 71.4004 367.337 70.9802 367.023C70.56 366.709 70.0895 366.473 69.5686 366.313C69.0537 366.153 68.5062 366.073 67.9262 366.073C66.8786 366.073 65.9405 366.337 65.1119 366.863C64.2893 367.39 63.6382 368.162 63.1588 369.18C62.6853 370.198 62.4486 371.441 62.4486 372.909C62.4486 374.389 62.6853 375.638 63.1588 376.656C63.6382 377.674 64.2922 378.443 65.1208 378.964C65.9494 379.485 66.8816 379.745 67.9173 379.745C68.4914 379.745 69.036 379.668 69.5509 379.514C70.0717 379.354 70.5422 379.121 70.9624 378.813C71.3827 378.505 71.7378 378.129 72.0278 377.685C72.3237 377.236 72.5279 376.721 72.6404 376.141L75.4102 376.15C75.2623 377.043 74.9752 377.866 74.5491 378.618C74.1289 379.363 73.5873 380.008 72.9244 380.553C72.2675 381.092 71.5158 381.509 70.6695 381.805C69.8231 382.101 68.8998 382.249 67.8996 382.249C66.3253 382.249 64.9226 381.876 63.6915 381.13C62.4604 380.378 61.4898 379.304 60.7796 377.907C60.0753 376.511 59.7231 374.844 59.7231 372.909C59.7231 370.968 60.0782 369.302 60.7884 367.911C61.4987 366.514 62.4693 365.443 63.7004 364.697C64.9314 363.945 66.3312 363.57 67.8996 363.57C68.8643 363.57 69.7639 363.709 70.5985 363.987C71.4389 364.259 72.1935 364.662 72.8623 365.194C73.5311 365.721 74.0845 366.366 74.5225 367.13C74.9604 367.887 75.2564 368.754 75.4102 369.731ZM84.2237 382.275C82.9453 382.275 81.8297 381.982 80.8768 381.396C79.9239 380.81 79.1841 379.991 78.6573 378.937C78.1306 377.884 77.8672 376.653 77.8672 375.244C77.8672 373.829 78.1306 372.592 78.6573 371.533C79.1841 370.474 79.9239 369.651 80.8768 369.065C81.8297 368.479 82.9453 368.186 84.2237 368.186C85.5021 368.186 86.6178 368.479 87.5707 369.065C88.5236 369.651 89.2634 370.474 89.7901 371.533C90.3169 372.592 90.5803 373.829 90.5803 375.244C90.5803 376.653 90.3169 377.884 89.7901 378.937C89.2634 379.991 88.5236 380.81 87.5707 381.396C86.6178 381.982 85.5021 382.275 84.2237 382.275ZM84.2326 380.047C85.0612 380.047 85.7478 379.828 86.2923 379.39C86.8368 378.952 87.2392 378.369 87.4996 377.641C87.766 376.913 87.8991 376.111 87.8991 375.235C87.8991 374.365 87.766 373.566 87.4996 372.838C87.2392 372.104 86.8368 371.515 86.2923 371.071C85.7478 370.627 85.0612 370.406 84.2326 370.406C83.3981 370.406 82.7056 370.627 82.1552 371.071C81.6107 371.515 81.2053 372.104 80.9389 372.838C80.6785 373.566 80.5483 374.365 80.5483 375.235C80.5483 376.111 80.6785 376.913 80.9389 377.641C81.2053 378.369 81.6107 378.952 82.1552 379.39C82.7056 379.828 83.3981 380.047 84.2326 380.047ZM96.1977 373.903V382H93.5432V368.364H96.0912V370.583H96.2599C96.5735 369.861 97.0648 369.281 97.7336 368.843C98.4083 368.405 99.2576 368.186 100.282 368.186C101.211 368.186 102.025 368.381 102.723 368.772C103.421 369.157 103.963 369.731 104.348 370.494C104.732 371.258 104.925 372.202 104.925 373.326V382H102.27V373.646C102.27 372.658 102.013 371.885 101.498 371.329C100.983 370.767 100.276 370.485 99.376 370.485C98.7604 370.485 98.213 370.619 97.7336 370.885C97.2601 371.151 96.8843 371.542 96.6061 372.057C96.3338 372.566 96.1977 373.181 96.1977 373.903ZM119.662 368.364L114.717 382H111.876L106.922 368.364H109.772L113.225 378.857H113.367L116.812 368.364H119.662ZM122.157 382V368.364H124.811V382H122.157ZM123.497 366.26C123.035 366.26 122.639 366.106 122.307 365.798C121.982 365.484 121.819 365.111 121.819 364.679C121.819 364.241 121.982 363.868 122.307 363.561C122.639 363.247 123.035 363.09 123.497 363.09C123.959 363.09 124.352 363.247 124.678 363.561C125.009 363.868 125.175 364.241 125.175 364.679C125.175 365.111 125.009 365.484 124.678 365.798C124.352 366.106 123.959 366.26 123.497 366.26ZM134.259 382.275C132.916 382.275 131.759 381.988 130.788 381.414C129.823 380.834 129.078 380.02 128.551 378.973C128.03 377.919 127.77 376.685 127.77 375.271C127.77 373.874 128.03 372.643 128.551 371.577C129.078 370.512 129.811 369.681 130.752 369.083C131.699 368.485 132.806 368.186 134.073 368.186C134.842 368.186 135.588 368.313 136.31 368.568C137.032 368.822 137.68 369.222 138.254 369.766C138.828 370.311 139.281 371.018 139.613 371.888C139.944 372.752 140.11 373.803 140.11 375.04V375.981H129.27V373.992H137.509C137.509 373.294 137.366 372.675 137.082 372.137C136.798 371.592 136.399 371.163 135.884 370.849C135.375 370.536 134.777 370.379 134.091 370.379C133.345 370.379 132.694 370.562 132.137 370.929C131.587 371.29 131.161 371.764 130.859 372.35C130.563 372.93 130.415 373.56 130.415 374.241V375.794C130.415 376.706 130.575 377.481 130.895 378.12C131.22 378.76 131.673 379.248 132.253 379.585C132.833 379.917 133.511 380.082 134.286 380.082C134.789 380.082 135.248 380.011 135.662 379.869C136.076 379.721 136.434 379.502 136.736 379.212C137.038 378.922 137.269 378.564 137.429 378.138L139.941 378.591C139.74 379.331 139.379 379.979 138.858 380.535C138.343 381.086 137.695 381.515 136.914 381.822C136.138 382.124 135.254 382.275 134.259 382.275ZM143.055 382V368.364H145.621V370.53H145.763C146.011 369.796 146.449 369.219 147.077 368.799C147.71 368.373 148.426 368.159 149.225 368.159C149.391 368.159 149.586 368.165 149.811 368.177C150.042 368.189 150.222 368.204 150.353 368.222V370.761C150.246 370.731 150.057 370.699 149.784 370.663C149.512 370.622 149.24 370.601 148.968 370.601C148.34 370.601 147.781 370.734 147.29 371C146.804 371.261 146.42 371.625 146.136 372.092C145.851 372.554 145.709 373.081 145.709 373.673V382H143.055ZM159.821 368.364V370.494H152.372V368.364H159.821ZM154.37 365.097H157.024V377.996C157.024 378.511 157.101 378.899 157.255 379.159C157.409 379.414 157.607 379.588 157.85 379.683C158.098 379.772 158.368 379.816 158.658 379.816C158.871 379.816 159.057 379.801 159.217 379.772C159.377 379.742 159.501 379.718 159.59 379.701L160.069 381.893C159.915 381.953 159.696 382.012 159.412 382.071C159.128 382.136 158.773 382.172 158.347 382.178C157.649 382.189 156.998 382.065 156.394 381.805C155.79 381.544 155.302 381.142 154.929 380.597C154.556 380.053 154.37 379.369 154.37 378.547V365.097ZM168.488 382.275C167.144 382.275 165.987 381.988 165.017 381.414C164.052 380.834 163.306 380.02 162.779 378.973C162.258 377.919 161.998 376.685 161.998 375.271C161.998 373.874 162.258 372.643 162.779 371.577C163.306 370.512 164.04 369.681 164.981 369.083C165.928 368.485 167.035 368.186 168.301 368.186C169.071 368.186 169.816 368.313 170.539 368.568C171.261 368.822 171.909 369.222 172.483 369.766C173.057 370.311 173.51 371.018 173.841 371.888C174.173 372.752 174.338 373.803 174.338 375.04V375.981H163.498V373.992H171.737C171.737 373.294 171.595 372.675 171.311 372.137C171.027 371.592 170.627 371.163 170.112 370.849C169.603 370.536 169.006 370.379 168.319 370.379C167.573 370.379 166.922 370.562 166.366 370.929C165.816 371.29 165.389 371.764 165.088 372.35C164.792 372.93 164.644 373.56 164.644 374.241V375.794C164.644 376.706 164.803 377.481 165.123 378.12C165.449 378.76 165.901 379.248 166.481 379.585C167.061 379.917 167.739 380.082 168.514 380.082C169.017 380.082 169.476 380.011 169.89 379.869C170.305 379.721 170.663 379.502 170.965 379.212C171.267 378.922 171.497 378.564 171.657 378.138L174.17 378.591C173.968 379.331 173.607 379.979 173.086 380.535C172.572 381.086 171.923 381.515 171.142 381.822C170.367 382.124 169.482 382.275 168.488 382.275ZM190.265 368.364V370.494H182.817V368.364H190.265ZM184.814 365.097H187.469V377.996C187.469 378.511 187.546 378.899 187.699 379.159C187.853 379.414 188.052 379.588 188.294 379.683C188.543 379.772 188.812 379.816 189.102 379.816C189.315 379.816 189.502 379.801 189.661 379.772C189.821 379.742 189.945 379.718 190.034 379.701L190.514 381.893C190.36 381.953 190.141 382.012 189.857 382.071C189.573 382.136 189.218 382.172 188.791 382.178C188.093 382.189 187.442 382.065 186.838 381.805C186.235 381.544 185.746 381.142 185.373 380.597C185.001 380.053 184.814 379.369 184.814 378.547V365.097ZM201.84 376.345V368.364H204.503V382H201.893V379.638H201.751C201.437 380.366 200.934 380.973 200.242 381.458C199.555 381.938 198.7 382.178 197.676 382.178C196.8 382.178 196.025 381.985 195.35 381.6C194.681 381.21 194.154 380.633 193.77 379.869C193.391 379.106 193.201 378.162 193.201 377.037V368.364H195.856V376.718C195.856 377.647 196.113 378.387 196.628 378.937C197.143 379.488 197.812 379.763 198.635 379.763C199.132 379.763 199.626 379.638 200.117 379.39C200.614 379.141 201.026 378.766 201.351 378.262C201.683 377.759 201.845 377.12 201.84 376.345ZM218.288 371.693L215.882 372.119C215.781 371.811 215.622 371.518 215.403 371.24C215.19 370.962 214.9 370.734 214.533 370.556C214.166 370.379 213.707 370.29 213.157 370.29C212.405 370.29 211.778 370.459 211.275 370.796C210.771 371.128 210.52 371.557 210.52 372.083C210.52 372.539 210.689 372.906 211.026 373.184C211.363 373.462 211.908 373.69 212.659 373.868L214.826 374.365C216.08 374.655 217.016 375.102 217.631 375.706C218.247 376.309 218.554 377.094 218.554 378.058C218.554 378.875 218.318 379.603 217.844 380.242C217.377 380.875 216.723 381.373 215.882 381.734C215.048 382.095 214.08 382.275 212.979 382.275C211.452 382.275 210.206 381.95 209.241 381.299C208.277 380.642 207.685 379.71 207.466 378.502L210.032 378.112C210.191 378.78 210.52 379.286 211.017 379.63C211.514 379.967 212.162 380.136 212.961 380.136C213.831 380.136 214.527 379.955 215.048 379.594C215.568 379.227 215.829 378.78 215.829 378.254C215.829 377.827 215.669 377.469 215.349 377.179C215.036 376.889 214.553 376.67 213.902 376.522L211.594 376.016C210.322 375.726 209.381 375.265 208.771 374.631C208.167 373.998 207.865 373.196 207.865 372.225C207.865 371.421 208.09 370.716 208.54 370.113C208.99 369.509 209.611 369.038 210.404 368.701C211.198 368.358 212.106 368.186 213.13 368.186C214.604 368.186 215.764 368.506 216.61 369.145C217.456 369.778 218.016 370.627 218.288 371.693ZM51.1194 398.364L46.1744 412H43.3335L38.3797 398.364H41.2294L44.6829 408.857H44.825L48.2696 398.364H51.1194ZM53.614 412V398.364H56.2685V412H53.614ZM54.9546 396.26C54.4929 396.26 54.0964 396.106 53.765 395.798C53.4394 395.484 53.2767 395.111 53.2767 394.679C53.2767 394.241 53.4394 393.868 53.765 393.561C54.0964 393.247 54.4929 393.09 54.9546 393.09C55.4162 393.09 55.8098 393.247 56.1353 393.561C56.4668 393.868 56.6325 394.241 56.6325 394.679C56.6325 395.111 56.4668 395.484 56.1353 395.798C55.8098 396.106 55.4162 396.26 54.9546 396.26ZM70.058 401.693L67.6521 402.119C67.5515 401.811 67.3917 401.518 67.1727 401.24C66.9597 400.962 66.6696 400.734 66.3027 400.556C65.9357 400.379 65.4771 400.29 64.9266 400.29C64.175 400.29 63.5476 400.459 63.0445 400.796C62.5414 401.128 62.2899 401.557 62.2899 402.083C62.2899 402.539 62.4586 402.906 62.7959 403.184C63.1333 403.462 63.6778 403.69 64.4295 403.868L66.5957 404.365C67.8504 404.655 68.7855 405.102 69.4011 405.706C70.0166 406.309 70.3244 407.094 70.3244 408.058C70.3244 408.875 70.0876 409.603 69.6141 410.242C69.1466 410.875 68.4926 411.373 67.6521 411.734C66.8176 412.095 65.8499 412.275 64.7491 412.275C63.2221 412.275 61.9762 411.95 61.0115 411.299C60.0468 410.642 59.4549 409.71 59.2359 408.502L61.8016 408.112C61.9614 408.78 62.2899 409.286 62.7871 409.63C63.2842 409.967 63.9323 410.136 64.7313 410.136C65.6013 410.136 66.2968 409.955 66.8176 409.594C67.3384 409.227 67.5989 408.78 67.5989 408.254C67.5989 407.827 67.4391 407.469 67.1195 407.179C66.8058 406.889 66.3234 406.67 65.6724 406.522L63.3641 406.016C62.0916 405.726 61.1506 405.265 60.541 404.631C59.9373 403.998 59.6354 403.196 59.6354 402.225C59.6354 401.421 59.8603 400.716 60.3101 400.113C60.76 399.509 61.3814 399.038 62.1745 398.701C62.9676 398.358 63.8761 398.186 64.9 398.186C66.3737 398.186 67.5338 398.506 68.3801 399.145C69.2265 399.778 69.7858 400.627 70.058 401.693ZM73.2429 412V398.364H75.8974V412H73.2429ZM74.5835 396.26C74.1218 396.26 73.7253 396.106 73.3939 395.798C73.0683 395.484 72.9056 395.111 72.9056 394.679C72.9056 394.241 73.0683 393.868 73.3939 393.561C73.7253 393.247 74.1218 393.09 74.5835 393.09C75.0451 393.09 75.4387 393.247 75.7642 393.561C76.0957 393.868 76.2614 394.241 76.2614 394.679C76.2614 395.111 76.0957 395.484 75.7642 395.798C75.4387 396.106 75.0451 396.26 74.5835 396.26ZM85.8339 398.364V400.494H78.3854V398.364H85.8339ZM80.3829 395.097H83.0374V407.996C83.0374 408.511 83.1144 408.899 83.2682 409.159C83.4221 409.414 83.6204 409.588 83.8631 409.683C84.1116 409.772 84.3809 409.816 84.6709 409.816C84.884 409.816 85.0704 409.801 85.2302 409.772C85.39 409.742 85.5143 409.718 85.6031 409.701L86.0825 411.893C85.9286 411.953 85.7097 412.012 85.4256 412.071C85.1415 412.136 84.7864 412.172 84.3602 412.178C83.6618 412.189 83.0108 412.065 82.4071 411.805C81.8034 411.544 81.3151 411.142 80.9422 410.597C80.5694 410.053 80.3829 409.369 80.3829 408.547V395.097ZM92.7387 412.302C91.8746 412.302 91.0933 412.142 90.3949 411.822C89.6965 411.497 89.1432 411.026 88.7348 410.411C88.3323 409.795 88.1311 409.041 88.1311 408.147C88.1311 407.378 88.279 406.744 88.575 406.247C88.8709 405.75 89.2704 405.356 89.7735 405.066C90.2766 404.776 90.8388 404.557 91.4603 404.409C92.0817 404.261 92.715 404.149 93.3601 404.072C94.1769 403.977 94.8398 403.9 95.3488 403.841C95.8578 403.776 96.2277 403.673 96.4585 403.531C96.6893 403.388 96.8047 403.158 96.8047 402.838V402.776C96.8047 402.001 96.5857 401.4 96.1478 400.974C95.7157 400.548 95.0706 400.335 94.2124 400.335C93.3187 400.335 92.6144 400.533 92.0995 400.929C91.5905 401.32 91.2383 401.755 91.043 402.234L88.5483 401.666C88.8443 400.838 89.2763 400.169 89.8445 399.66C90.4186 399.145 91.0785 398.772 91.8243 398.541C92.57 398.304 93.3542 398.186 94.1769 398.186C94.7214 398.186 95.2985 398.251 95.9081 398.381C96.5236 398.506 97.0977 398.737 97.6304 399.074C98.169 399.411 98.6099 399.894 98.9532 400.521C99.2964 401.142 99.4681 401.95 99.4681 402.945V412H96.8758V410.136H96.7692C96.5976 410.479 96.3401 410.816 95.9968 411.148C95.6536 411.479 95.2126 411.754 94.6741 411.973C94.1355 412.192 93.4903 412.302 92.7387 412.302ZM93.3157 410.171C94.0496 410.171 94.677 410.026 95.1978 409.736C95.7246 409.446 96.1241 409.067 96.3964 408.6C96.6745 408.126 96.8136 407.62 96.8136 407.082V405.324C96.7189 405.419 96.5354 405.507 96.2632 405.59C95.9968 405.667 95.692 405.735 95.3488 405.794C95.0055 405.848 94.6711 405.898 94.3456 405.945C94.02 405.987 93.7478 406.022 93.5288 406.052C93.0139 406.117 92.5434 406.226 92.1172 406.38C91.697 406.534 91.3597 406.756 91.1052 407.046C90.8566 407.33 90.7323 407.709 90.7323 408.183C90.7323 408.839 90.9749 409.337 91.4603 409.674C91.9456 410.005 92.5641 410.171 93.3157 410.171ZM113.222 401.693L110.816 402.119C110.716 401.811 110.556 401.518 110.337 401.24C110.124 400.962 109.834 400.734 109.467 400.556C109.1 400.379 108.641 400.29 108.091 400.29C107.339 400.29 106.712 400.459 106.209 400.796C105.706 401.128 105.454 401.557 105.454 402.083C105.454 402.539 105.623 402.906 105.96 403.184C106.297 403.462 106.842 403.69 107.594 403.868L109.76 404.365C111.014 404.655 111.95 405.102 112.565 405.706C113.181 406.309 113.488 407.094 113.488 408.058C113.488 408.875 113.252 409.603 112.778 410.242C112.311 410.875 111.657 411.373 110.816 411.734C109.982 412.095 109.014 412.275 107.913 412.275C106.386 412.275 105.14 411.95 104.176 411.299C103.211 410.642 102.619 409.71 102.4 408.502L104.966 408.112C105.125 408.78 105.454 409.286 105.951 409.63C106.448 409.967 107.096 410.136 107.895 410.136C108.765 410.136 109.461 409.955 109.982 409.594C110.503 409.227 110.763 408.78 110.763 408.254C110.763 407.827 110.603 407.469 110.284 407.179C109.97 406.889 109.487 406.67 108.836 406.522L106.528 406.016C105.256 405.726 104.315 405.265 103.705 404.631C103.101 403.998 102.799 403.196 102.799 402.225C102.799 401.421 103.024 400.716 103.474 400.113C103.924 399.509 104.545 399.038 105.339 398.701C106.132 398.358 107.04 398.186 108.064 398.186C109.538 398.186 110.698 398.506 111.544 399.145C112.391 399.778 112.95 400.627 113.222 401.693ZM128.9 412.275C127.557 412.275 126.4 411.988 125.429 411.414C124.464 410.834 123.719 410.02 123.192 408.973C122.671 407.919 122.411 406.685 122.411 405.271C122.411 403.874 122.671 402.643 123.192 401.577C123.719 400.512 124.453 399.681 125.394 399.083C126.341 398.485 127.447 398.186 128.714 398.186C129.483 398.186 130.229 398.313 130.951 398.568C131.673 398.822 132.321 399.222 132.895 399.766C133.469 400.311 133.922 401.018 134.254 401.888C134.585 402.752 134.751 403.803 134.751 405.04V405.981H123.911V403.992H132.15C132.15 403.294 132.008 402.675 131.723 402.137C131.439 401.592 131.04 401.163 130.525 400.849C130.016 400.536 129.418 400.379 128.732 400.379C127.986 400.379 127.335 400.562 126.779 400.929C126.228 401.29 125.802 401.764 125.5 402.35C125.204 402.93 125.056 403.56 125.056 404.241V405.794C125.056 406.706 125.216 407.481 125.536 408.12C125.861 408.76 126.314 409.248 126.894 409.585C127.474 409.917 128.152 410.082 128.927 410.082C129.43 410.082 129.889 410.011 130.303 409.869C130.717 409.721 131.075 409.502 131.377 409.212C131.679 408.922 131.91 408.564 132.07 408.138L134.582 408.591C134.381 409.331 134.02 409.979 133.499 410.535C132.984 411.086 132.336 411.515 131.555 411.822C130.779 412.124 129.895 412.275 128.9 412.275ZM140.351 403.903V412H137.696V398.364H140.244V400.583H140.413C140.726 399.861 141.218 399.281 141.886 398.843C142.561 398.405 143.41 398.186 144.434 398.186C145.364 398.186 146.177 398.381 146.876 398.772C147.574 399.157 148.116 399.731 148.5 400.494C148.885 401.258 149.077 402.202 149.077 403.326V412H146.423V403.646C146.423 402.658 146.166 401.885 145.651 401.329C145.136 400.767 144.428 400.485 143.529 400.485C142.913 400.485 142.366 400.619 141.886 400.885C141.413 401.151 141.037 401.542 140.759 402.057C140.487 402.566 140.351 403.181 140.351 403.903ZM159.254 417.114V398.364H161.846V400.574H162.068C162.222 400.29 162.444 399.962 162.734 399.589C163.024 399.216 163.426 398.89 163.941 398.612C164.456 398.328 165.137 398.186 165.983 398.186C167.084 398.186 168.066 398.464 168.931 399.021C169.795 399.577 170.472 400.379 170.964 401.426C171.461 402.474 171.709 403.735 171.709 405.208C171.709 406.682 171.464 407.946 170.972 408.999C170.481 410.047 169.806 410.855 168.948 411.423C168.09 411.985 167.111 412.266 166.01 412.266C165.181 412.266 164.503 412.127 163.977 411.849C163.456 411.571 163.047 411.245 162.752 410.873C162.456 410.5 162.228 410.168 162.068 409.878H161.908V417.114H159.254ZM161.855 405.182C161.855 406.141 161.994 406.981 162.272 407.703C162.55 408.425 162.953 408.99 163.48 409.399C164.006 409.801 164.651 410.002 165.415 410.002C166.208 410.002 166.871 409.792 167.404 409.372C167.936 408.946 168.339 408.369 168.611 407.641C168.889 406.913 169.028 406.093 169.028 405.182C169.028 404.282 168.892 403.474 168.62 402.758C168.353 402.042 167.951 401.477 167.412 401.062C166.88 400.648 166.214 400.441 165.415 400.441C164.645 400.441 163.994 400.639 163.462 401.036C162.935 401.432 162.536 401.986 162.263 402.696C161.991 403.406 161.855 404.235 161.855 405.182ZM183.322 406.345V398.364H185.985V412H183.375V409.638H183.233C182.919 410.366 182.416 410.973 181.723 411.458C181.037 411.938 180.182 412.178 179.158 412.178C178.282 412.178 177.507 411.985 176.832 411.6C176.163 411.21 175.636 410.633 175.252 409.869C174.873 409.106 174.683 408.162 174.683 407.037V398.364H177.338V406.718C177.338 407.647 177.595 408.387 178.11 408.937C178.625 409.488 179.294 409.763 180.117 409.763C180.614 409.763 181.108 409.638 181.599 409.39C182.096 409.141 182.508 408.766 182.833 408.262C183.165 407.759 183.327 407.12 183.322 406.345ZM192.206 403.903V412H189.552V398.364H192.099V400.583H192.268C192.582 399.861 193.073 399.281 193.742 398.843C194.417 398.405 195.266 398.186 196.29 398.186C197.219 398.186 198.033 398.381 198.731 398.772C199.43 399.157 199.971 399.731 200.356 400.494C200.741 401.258 200.933 402.202 200.933 403.326V412H198.278V403.646C198.278 402.658 198.021 401.885 197.506 401.329C196.991 400.767 196.284 400.485 195.384 400.485C194.769 400.485 194.221 400.619 193.742 400.885C193.268 401.151 192.893 401.542 192.614 402.057C192.342 402.566 192.206 403.181 192.206 403.903ZM210.858 398.364V400.494H203.41V398.364H210.858ZM205.407 395.097H208.062V407.996C208.062 408.511 208.139 408.899 208.293 409.159C208.447 409.414 208.645 409.588 208.887 409.683C209.136 409.772 209.405 409.816 209.695 409.816C209.908 409.816 210.095 409.801 210.255 409.772C210.414 409.742 210.539 409.718 210.628 409.701L211.107 411.893C210.953 411.953 210.734 412.012 210.45 412.071C210.166 412.136 209.811 412.172 209.385 412.178C208.686 412.189 208.035 412.065 207.432 411.805C206.828 411.544 206.34 411.142 205.967 410.597C205.594 410.053 205.407 409.369 205.407 408.547V395.097ZM219.392 412.275C218.114 412.275 216.998 411.982 216.045 411.396C215.092 410.81 214.353 409.991 213.826 408.937C213.299 407.884 213.036 406.653 213.036 405.244C213.036 403.829 213.299 402.592 213.826 401.533C214.353 400.474 215.092 399.651 216.045 399.065C216.998 398.479 218.114 398.186 219.392 398.186C220.671 398.186 221.786 398.479 222.739 399.065C223.692 399.651 224.432 400.474 224.959 401.533C225.485 402.592 225.749 403.829 225.749 405.244C225.749 406.653 225.485 407.884 224.959 408.937C224.432 409.991 223.692 410.81 222.739 411.396C221.786 411.982 220.671 412.275 219.392 412.275ZM219.401 410.047C220.23 410.047 220.916 409.828 221.461 409.39C222.005 408.952 222.408 408.369 222.668 407.641C222.934 406.913 223.068 406.111 223.068 405.235C223.068 404.365 222.934 403.566 222.668 402.838C222.408 402.104 222.005 401.515 221.461 401.071C220.916 400.627 220.23 400.406 219.401 400.406C218.567 400.406 217.874 400.627 217.324 401.071C216.779 401.515 216.374 402.104 216.107 402.838C215.847 403.566 215.717 404.365 215.717 405.235C215.717 406.111 215.847 406.913 216.107 407.641C216.374 408.369 216.779 408.952 217.324 409.39C217.874 409.828 218.567 410.047 219.401 410.047ZM238.93 401.693L236.524 402.119C236.424 401.811 236.264 401.518 236.045 401.24C235.832 400.962 235.542 400.734 235.175 400.556C234.808 400.379 234.349 400.29 233.799 400.29C233.047 400.29 232.42 400.459 231.917 400.796C231.414 401.128 231.162 401.557 231.162 402.083C231.162 402.539 231.331 402.906 231.668 403.184C232.005 403.462 232.55 403.69 233.302 403.868L235.468 404.365C236.722 404.655 237.658 405.102 238.273 405.706C238.889 406.309 239.196 407.094 239.196 408.058C239.196 408.875 238.96 409.603 238.486 410.242C238.019 410.875 237.365 411.373 236.524 411.734C235.69 412.095 234.722 412.275 233.621 412.275C232.094 412.275 230.848 411.95 229.884 411.299C228.919 410.642 228.327 409.71 228.108 408.502L230.674 408.112C230.833 408.78 231.162 409.286 231.659 409.63C232.156 409.967 232.804 410.136 233.603 410.136C234.473 410.136 235.169 409.955 235.69 409.594C236.211 409.227 236.471 408.78 236.471 408.254C236.471 407.827 236.311 407.469 235.992 407.179C235.678 406.889 235.195 406.67 234.544 406.522L232.236 406.016C230.964 405.726 230.023 405.265 229.413 404.631C228.809 403.998 228.508 403.196 228.508 402.225C228.508 401.421 228.732 400.716 229.182 400.113C229.632 399.509 230.253 399.038 231.047 398.701C231.84 398.358 232.748 398.186 233.772 398.186C235.246 398.186 236.406 398.506 237.252 399.145C238.099 399.778 238.658 400.627 238.93 401.693Z" fill="#D4238B"/>
<path d="M11.0829 358V356.011L17.2353 349.637C17.8922 348.945 18.4338 348.338 18.8599 347.817C19.292 347.29 19.6145 346.79 19.8276 346.317C20.0407 345.843 20.1472 345.34 20.1472 344.808C20.1472 344.204 20.0051 343.683 19.7211 343.245C19.437 342.801 19.0493 342.461 18.5581 342.224C18.0668 341.981 17.5134 341.86 16.8979 341.86C16.2469 341.86 15.6787 341.993 15.1934 342.26C14.708 342.526 14.3352 342.902 14.0748 343.387C13.8143 343.872 13.6841 344.441 13.6841 345.092H11.0652C11.0652 343.985 11.3197 343.017 11.8287 342.189C12.3377 341.36 13.036 340.718 13.9238 340.262C14.8116 339.8 15.8207 339.57 16.9512 339.57C18.0935 339.57 19.0996 339.797 19.9696 340.253C20.8456 340.703 21.5292 341.319 22.0204 342.1C22.5117 342.875 22.7573 343.751 22.7573 344.728C22.7573 345.402 22.63 346.062 22.3755 346.707C22.127 347.353 21.6919 348.072 21.0705 348.865C20.449 349.652 19.5849 350.608 18.4782 351.732L14.8649 355.514V355.647H23.0502V358H11.0829Z" fill="#D4238B"/>
<g clip-path="url(#clip0_233_1350)">
<path d="M57.9084 0H207.202C211.614 0 215.19 3.88541 215.19 8.67641V252.324C215.19 257.115 211.614 261 207.202 261H57.9084C53.497 261 49.9207 257.115 49.9207 252.324V8.67641C49.9207 3.88541 53.497 0 57.9084 0Z" fill="#D9D9D9"/>
<path d="M69.7939 19.2944H195.363C197.486 19.2944 199.205 21.3036 199.205 23.7845V237.173C199.205 239.654 197.486 241.663 195.363 241.663H69.7939C67.6709 241.663 65.9519 239.654 65.9519 237.173V23.7845C65.9519 21.3036 67.6709 19.2944 69.7939 19.2944Z" fill="white"/>
<path d="M195.363 243.018H69.7937C66.9277 243.018 64.5959 240.396 64.5959 237.172V23.7842C64.5959 20.5604 66.9277 17.9385 69.7937 17.9385H195.363C198.229 17.9385 200.561 20.5604 200.561 23.7842V237.172C200.561 240.396 198.229 243.018 195.363 243.018ZM69.7937 20.6499C68.4217 20.6499 67.3073 22.0571 67.3073 23.7842V237.172C67.3073 238.902 68.4217 240.307 69.7937 240.307H195.363C196.735 240.307 197.849 238.9 197.849 237.172V23.7842C197.849 22.0543 196.735 20.6499 195.363 20.6499H69.7937Z" fill="#7E7B7E"/>
<path d="M101.876 28.6729H163.275C165.819 28.6729 167.879 30.9125 167.879 33.6726V41.7742C167.879 44.5344 165.819 46.774 163.275 46.774H101.876C99.3329 46.774 97.2722 44.5344 97.2722 41.7742V33.6726C97.2722 30.9125 99.3329 28.6729 101.876 28.6729Z" fill="#D9D9D9"/>
<path d="M183.656 189.875H81.4585C79.3515 189.875 77.6436 191.583 77.6436 193.69V222.52C77.6436 224.627 79.3515 226.335 81.4585 226.335H183.656C185.763 226.335 187.471 224.627 187.471 222.52V193.69C187.471 191.583 185.763 189.875 183.656 189.875Z" fill="#D4238B"/>
<path d="M103.195 217.943C108.63 217.943 113.035 213.538 113.035 208.104C113.035 202.67 108.63 198.264 103.195 198.264C97.761 198.264 93.3557 202.67 93.3557 208.104C93.3557 213.538 97.761 217.943 103.195 217.943Z" fill="#FFB800"/>
<path d="M103.195 218.669C97.3679 218.669 92.6284 213.93 92.6284 208.103C92.6284 202.276 97.3679 197.537 103.195 197.537C109.021 197.537 113.761 202.276 113.761 208.103C113.761 213.93 109.021 218.669 103.195 218.669ZM103.195 198.993C98.1705 198.993 94.0817 203.081 94.0817 208.106C94.0817 213.13 98.1705 217.219 103.195 217.219C108.219 217.219 112.308 213.13 112.308 208.106C112.308 203.081 108.219 198.993 103.195 198.993Z" fill="white"/>
<path d="M105.652 203.96L101.723 210.809L100.723 209.06H97.7617L100.424 213.694H103.011L108.626 203.96H105.652Z" fill="white"/>
<path d="M132.558 217.943C137.992 217.943 142.397 213.538 142.397 208.104C142.397 202.67 137.992 198.264 132.558 198.264C127.124 198.264 122.718 202.67 122.718 208.104C122.718 213.538 127.124 217.943 132.558 217.943Z" fill="#FFB800"/>
<path d="M132.559 218.669C126.732 218.669 121.993 213.93 121.993 208.103C121.993 202.276 126.732 197.537 132.559 197.537C138.386 197.537 143.125 202.276 143.125 208.103C143.125 213.93 138.386 218.669 132.559 218.669ZM132.559 198.993C127.535 198.993 123.446 203.081 123.446 208.106C123.446 213.13 127.535 217.219 132.559 217.219C137.583 217.219 141.672 213.13 141.672 208.106C141.672 203.081 137.583 198.993 132.559 198.993Z" fill="white"/>
<path d="M135.014 203.96L131.086 210.809L130.085 209.06H127.124L129.787 213.694H132.374L137.991 203.96H135.014Z" fill="white"/>
<path d="M161.92 217.943C167.354 217.943 171.759 213.538 171.759 208.104C171.759 202.67 167.354 198.264 161.92 198.264C156.485 198.264 152.08 202.67 152.08 208.104C152.08 213.538 156.485 217.943 161.92 217.943Z" fill="#FFB800"/>
<path d="M161.919 218.669C156.092 218.669 151.353 213.93 151.353 208.103C151.353 202.276 156.092 197.537 161.919 197.537C167.746 197.537 172.485 202.276 172.485 208.103C172.485 213.93 167.746 218.669 161.919 218.669ZM161.919 198.993C156.895 198.993 152.806 203.081 152.806 208.106C152.806 213.13 156.895 217.219 161.919 217.219C166.943 217.219 171.032 213.13 171.032 208.106C171.032 203.081 166.943 198.993 161.919 198.993Z" fill="white"/>
<path d="M164.377 203.96L160.446 210.809L159.445 209.06H156.485L159.147 213.694H161.734L167.352 203.96H164.377Z" fill="white"/>
<path d="M251.944 55.8678L233.444 51.2937C232.62 51.0904 231.787 51.592 231.584 52.4163L225.605 76.5991C225.402 77.4233 225.904 78.2557 226.728 78.4591L245.222 83.0304C246.556 83.3612 247.619 81.9052 246.898 80.7339L239.233 68.2778C238.783 67.5485 239.018 66.5913 239.756 66.1521L252.356 58.6768C253.538 57.9746 253.275 56.1959 251.941 55.8651L251.944 55.8678Z" fill="#FFB800"/>
<path d="M13.1685 55.8678L31.6682 51.2937C32.4925 51.0904 33.3249 51.592 33.5282 52.4163L39.5068 76.5991C39.7102 77.4233 39.2086 78.2557 38.3843 78.4591L19.89 83.0304C18.556 83.3612 17.4931 81.9052 18.2144 80.7339L25.8794 68.2778C26.3295 67.5485 26.0936 66.5913 25.3561 66.1521L12.7536 58.6795C11.5715 57.9773 11.8345 56.1986 13.1685 55.8678Z" fill="#FFB800"/>
<path d="M224.195 78.4243C198.077 74.5986 167.709 71.8194 133.893 71.7462C98.9268 71.6703 67.6077 74.501 40.8057 78.4243C40.2391 78.4243 37.2321 78.3674 34.8027 75.938C33.2654 74.4006 32.3164 72.2776 32.3164 69.935V51.0177C32.3164 46.327 36.1178 42.5257 40.8084 42.5257C68.2964 39.3452 99.2305 37.2141 133.06 37.2385C166.448 37.2629 197.006 39.3805 224.198 42.5257C224.765 42.5257 227.772 42.5826 230.201 45.012C231.738 46.5494 232.687 48.6724 232.687 51.015V69.9323C232.687 74.623 228.886 78.4243 224.195 78.4243Z" fill="#FF9829"/>
<path d="M222.243 75.528C196.794 71.7998 167.21 69.0939 134.262 69.0207C100.193 68.9448 69.6794 71.7022 43.5688 75.528C43.0184 75.528 40.0874 75.4738 37.7204 73.104C36.2237 71.6073 35.2964 69.5386 35.2964 67.2556V48.8236C35.2964 44.2549 39.0001 40.5512 43.5688 40.5512C70.3491 37.4521 100.489 35.3779 133.448 35.3996C165.977 35.4213 195.748 37.4846 222.243 40.5512C222.794 40.5512 225.725 40.6054 228.092 42.9752C229.588 44.4719 230.516 46.5406 230.516 48.8236V67.2556C230.516 71.8242 226.812 75.528 222.243 75.528Z" fill="#FFB800"/>
<path d="M61.3273 54.769C60.7036 54.8314 60.1695 54.6877 59.7276 54.3352C59.2856 53.9854 59.0334 53.5055 58.9738 52.9009C58.9141 52.2963 59.066 51.7784 59.432 51.3527C59.7981 50.927 60.2915 50.683 60.9151 50.6206C61.5388 50.5583 62.0729 50.702 62.5149 51.0463C62.9568 51.3934 63.209 51.8679 63.2686 52.4752C63.3283 53.0825 63.1764 53.6004 62.8104 54.0315C62.4444 54.4626 61.9509 54.7094 61.3273 54.7717V54.769ZM61.029 70.6577L59.9472 57.2472L63.1737 56.9273L64.7545 70.2863L61.0263 70.6577H61.029Z" fill="#D4238B"/>
<path d="M77.1146 64.6583C75.3007 64.7939 73.682 64.5038 72.2558 63.788C70.8296 63.0722 69.6773 61.9903 68.7988 60.5424C67.9203 59.0946 67.4024 57.3376 67.2479 55.2688C67.0879 53.1485 67.3482 51.3021 68.0206 49.7349C68.6958 48.1677 69.68 46.9286 70.976 46.023C72.2721 45.1174 73.7769 44.5995 75.4932 44.4694C76.575 44.388 77.5972 44.4694 78.5597 44.7188C79.5223 44.9683 80.3899 45.3533 81.1681 45.8847C81.9463 46.4162 82.6024 47.0642 83.1311 47.8288C83.6626 48.5934 84.0367 49.4502 84.2591 50.3992L80.6556 50.6703C80.4577 50.1551 80.2056 49.6996 79.8965 49.3065C79.5874 48.9133 79.2267 48.5825 78.8119 48.3114C78.3971 48.0403 77.9361 47.8478 77.4264 47.7312C76.9167 47.6146 76.3635 47.5793 75.7643 47.6227C74.7069 47.7013 73.785 48.0403 72.9933 48.6395C72.2016 49.2387 71.6078 50.0711 71.2092 51.1367C70.8106 52.2022 70.6669 53.482 70.7808 54.9787C70.892 56.4564 71.2228 57.6955 71.7759 58.6933C72.329 59.6911 73.0421 60.4313 73.9206 60.9085C74.7964 61.3884 75.786 61.5863 76.8868 61.5023C77.89 61.4263 78.7441 61.1688 79.4518 60.7268C80.1567 60.2849 80.6828 59.6911 81.0325 58.9481C81.3796 58.2052 81.5179 57.3484 81.4447 56.3805L82.2608 56.451L76.9139 56.8522L76.7052 54.0785L84.6658 53.482L84.842 55.8463C84.9667 57.5274 84.7173 59.0078 84.0937 60.2903C83.4673 61.5728 82.5536 62.5895 81.3498 63.3433C80.1459 64.0971 78.7333 64.5363 77.1146 64.6556V64.6583Z" fill="#D4238B"/>
<path d="M86.6438 63.6927L92.617 43.6719L97.1016 43.4658L105.043 62.8495L101.169 63.0284L97.1938 52.9529C96.8006 51.9118 96.3885 50.7296 95.9574 49.4119C95.5263 48.0941 95.0464 46.592 94.5176 44.911L95.2579 44.8757C94.8945 46.6164 94.5664 48.1646 94.2709 49.5258C93.9754 50.8869 93.6934 52.0853 93.4222 53.1237L90.5075 63.5165L86.6465 63.6927H86.6438ZM90.4289 58.6306L90.2987 55.7863L100.681 55.3091L100.811 58.1534L90.4289 58.6306Z" fill="#D4238B"/>
<path d="M107.543 62.7844L107.194 43.0618L111.19 42.9913L118.199 53.7392C118.489 54.1839 118.798 54.6882 119.126 55.2522C119.454 55.8161 119.796 56.4452 120.154 57.142C120.512 57.8388 120.864 58.6116 121.214 59.4602L120.818 59.4684C120.742 58.7282 120.675 57.969 120.612 57.1881C120.55 56.4072 120.501 55.667 120.466 54.9675C120.431 54.2652 120.409 53.6742 120.401 53.1888L120.216 42.8368L123.804 42.7744L124.153 62.497L120.143 62.5675L113.815 52.8933C113.416 52.2724 113.039 51.6623 112.684 51.0604C112.329 50.4585 111.947 49.7752 111.535 49.016C111.125 48.2541 110.626 47.3377 110.043 46.2612L110.548 46.2531C110.618 47.2129 110.683 48.124 110.743 48.9835C110.802 49.843 110.854 50.613 110.897 51.2909C110.941 51.9687 110.965 52.5164 110.973 52.9312L111.147 62.7275L107.546 62.7898L107.543 62.7844Z" fill="#D4238B"/>
<path d="M126.673 62.4698L133.744 42.8096L138.232 42.853L145.086 62.646L141.206 62.6081L137.795 52.3292C137.461 51.2664 137.114 50.0652 136.757 48.7258C136.399 47.3864 136.003 45.8599 135.569 44.1544L136.309 44.1625C135.851 45.8789 135.439 47.4081 135.067 48.7502C134.696 50.0923 134.349 51.2745 134.021 52.294L130.534 62.5077L126.667 62.4698H126.673ZM130.732 57.6218L130.759 54.7749L141.152 54.8752L141.125 57.7222L130.732 57.6218Z" fill="#D4238B"/>
<path d="M154.24 63.2641C152.713 63.2126 151.395 62.9279 150.289 62.4155C149.18 61.9003 148.323 61.1791 147.721 60.2491C147.117 59.3191 146.81 58.2047 146.802 56.906L150.281 57.0253C150.319 57.7167 150.517 58.2969 150.872 58.7687C151.227 59.2405 151.704 59.5984 152.306 59.8451C152.908 60.0918 153.578 60.2274 154.318 60.2518C155.094 60.2789 155.785 60.1813 156.387 59.9644C156.992 59.7475 157.466 59.4303 157.816 59.0127C158.166 58.5952 158.35 58.1071 158.369 57.5404C158.385 57.028 158.252 56.5996 157.968 56.2552C157.683 55.9109 157.279 55.6126 156.753 55.3605C156.227 55.1083 155.612 54.8833 154.901 54.6826L152.686 54.0238C151.051 53.5439 149.787 52.8606 148.895 51.974C148.003 51.0873 147.58 49.9459 147.626 48.5522C147.667 47.389 148.014 46.3804 148.67 45.529C149.327 44.6776 150.205 44.0296 151.306 43.585C152.407 43.1403 153.646 42.9424 155.023 42.9885C156.425 43.0373 157.648 43.322 158.689 43.8425C159.73 44.3631 160.535 45.0627 161.102 45.9384C161.669 46.8142 161.945 47.8012 161.934 48.8938L158.507 48.7773C158.448 47.9286 158.092 47.2589 157.442 46.7735C156.791 46.2882 155.931 46.0279 154.866 45.99C154.126 45.9656 153.483 46.055 152.944 46.2611C152.401 46.4672 151.981 46.76 151.683 47.1396C151.382 47.5192 151.224 47.9584 151.208 48.46C151.189 49.0077 151.344 49.4632 151.672 49.8266C152 50.1899 152.418 50.4881 152.927 50.7159C153.437 50.9464 153.952 51.1362 154.478 51.2853L156.3 51.8248C157.027 52.0255 157.729 52.2831 158.407 52.5976C159.085 52.9121 159.692 53.3025 160.229 53.7662C160.766 54.2298 161.186 54.7857 161.49 55.431C161.793 56.0763 161.932 56.8273 161.902 57.6841C161.861 58.8392 161.533 59.8451 160.912 60.7046C160.291 61.5614 159.416 62.2176 158.288 62.6676C157.16 63.1204 155.809 63.3184 154.24 63.2641Z" fill="#D4238B"/>
<path d="M164.735 46.5842L164.906 43.6099L180.581 44.5128L180.41 47.4871L174.342 47.1374L173.379 63.8584L169.849 63.6551L170.812 46.934L164.733 46.5842H164.735Z" fill="#D4238B"/>
<path d="M182.418 64.43L184.001 44.7671L196.775 45.7947L196.536 48.7637L187.285 48.018L186.857 53.3242L195.422 54.0129L195.186 56.9412L186.621 56.2525L186.179 61.743L195.481 62.4914L195.243 65.4603L182.415 64.4273L182.418 64.43Z" fill="#D4238B"/>
<path d="M201.041 66.2595C200.417 66.1999 199.921 65.9531 199.558 65.522C199.192 65.0909 199.037 64.5785 199.097 63.9793C199.157 63.3719 199.406 62.8947 199.848 62.5422C200.29 62.1897 200.824 62.046 201.448 62.1057C202.071 62.1653 202.565 62.4121 202.931 62.8432C203.297 63.2743 203.451 63.7922 203.392 64.3968C203.332 64.9933 203.083 65.4678 202.641 65.8203C202.199 66.1728 201.665 66.3165 201.041 66.2568V66.2595ZM200.038 59.6302L201.109 46.2197L204.837 46.5831L203.281 59.9447L200.041 59.6275L200.038 59.6302Z" fill="#D4238B"/>
<path d="M144.873 98.5228C144.458 98.5228 144.046 98.3927 143.688 98.1324C142.989 97.6253 142.696 96.7604 142.937 95.9307L143.58 93.7372C143.748 93.1597 143.55 92.5469 143.073 92.1809L141.264 90.7845C140.581 90.2558 140.313 89.3855 140.578 88.5639C140.844 87.7424 141.576 87.1947 142.438 87.1703L144.721 87.1025C145.323 87.0862 145.844 86.7066 146.047 86.1399L146.817 83.9898C147.107 83.1764 147.853 82.6504 148.718 82.6504C149.583 82.6504 150.328 83.1764 150.619 83.9898L151.389 86.1399C151.592 86.7066 152.113 87.0862 152.714 87.1025L154.997 87.1703C155.862 87.1947 156.592 87.7424 156.857 88.5639C157.123 89.3855 156.857 90.2585 156.171 90.7845L154.363 92.1809C153.886 92.5496 153.688 93.1597 153.856 93.7372L154.499 95.9307C154.743 96.7604 154.447 97.6226 153.748 98.1324C153.048 98.6394 152.137 98.6529 151.424 98.1676L149.537 96.8797C149.041 96.5408 148.395 96.5408 147.899 96.8797L146.012 98.1676C145.665 98.4062 145.269 98.5228 144.873 98.5228ZM148.718 94.4503C149.428 94.4503 150.139 94.6618 150.76 95.0848L152.3 96.1368L151.776 94.3473C151.353 92.9048 151.85 91.381 153.037 90.4646L154.512 89.3258L152.649 89.2716C151.147 89.2282 149.851 88.2846 149.347 86.872L148.721 85.1177L148.094 86.872C147.587 88.2873 146.291 89.2282 144.792 89.2716L142.929 89.3258L144.404 90.4646C145.592 91.3837 146.088 92.9075 145.665 94.3473L145.142 96.1368L146.682 95.0848C147.303 94.6618 148.013 94.4503 148.723 94.4503H148.718Z" fill="#D9D9D9"/>
<path d="M79.9412 170.138C79.5263 170.138 79.1142 170.008 78.7563 169.748C78.0568 169.241 77.7639 168.376 78.0052 167.546L78.881 164.556C79.0491 163.978 78.8512 163.365 78.374 162.999L75.9094 161.096C75.2261 160.567 74.9577 159.697 75.2234 158.875C75.4891 158.054 76.2212 157.506 77.0834 157.482L80.196 157.389C80.798 157.371 81.3186 156.994 81.5219 156.427L82.5712 153.493C82.8613 152.68 83.607 152.154 84.4719 152.154C85.3368 152.154 86.0824 152.68 86.3726 153.493L87.4219 156.427C87.6252 156.994 88.1458 157.373 88.7477 157.389L91.8604 157.482C92.7226 157.506 93.4547 158.054 93.7204 158.875C93.9861 159.697 93.7204 160.57 93.0344 161.096L90.5698 162.999C90.0926 163.368 89.8946 163.978 90.0627 164.556L90.9385 167.546C91.1825 168.376 90.887 169.238 90.1875 169.748C89.4879 170.255 88.5769 170.269 87.8638 169.783L85.2907 168.026C84.7945 167.687 84.1492 167.687 83.653 168.026L81.0799 169.783C80.7329 170.022 80.337 170.138 79.9412 170.138ZM84.4719 165.6C85.1823 165.6 85.8926 165.811 86.5136 166.234L88.7396 167.752L87.9831 165.166C87.5601 163.723 88.0563 162.199 89.2439 161.283L91.3751 159.637L88.6827 159.559C87.1806 159.515 85.8845 158.572 85.3802 157.159L84.4719 154.624L83.5636 157.162C83.0565 158.574 81.7605 159.518 80.2611 159.561L77.5687 159.64L79.6999 161.286C80.8874 162.205 81.3836 163.729 80.9606 165.168L80.2042 167.755L82.4302 166.237C83.0511 165.814 83.7615 165.602 84.4719 165.602V165.6Z" fill="#D9D9D9"/>
<path d="M95.6841 90.6382C97.7805 90.6382 99.48 88.9388 99.48 86.8423C99.48 84.7459 97.7805 83.0464 95.6841 83.0464C93.5877 83.0464 91.8882 84.7459 91.8882 86.8423C91.8882 88.9388 93.5877 90.6382 95.6841 90.6382Z" fill="#D9D9D9"/>
<path d="M173.907 153.271C175.929 153.271 177.568 151.632 177.568 149.611C177.568 147.589 175.929 145.95 173.907 145.95C171.886 145.95 170.247 147.589 170.247 149.611C170.247 151.632 171.886 153.271 173.907 153.271Z" fill="#D9D9D9"/>
<path d="M135.267 184.182C151.626 184.182 164.889 180.723 164.889 176.455C164.889 172.187 151.626 168.728 135.267 168.728C118.907 168.728 105.645 172.187 105.645 176.455C105.645 180.723 118.907 184.182 135.267 184.182Z" fill="#D9D9D9"/>
<path d="M153.412 110.602L109.725 126.382C108.38 126.868 107.684 128.352 108.17 129.697L110.001 134.767C110.487 136.112 111.971 136.808 113.316 136.322L157.002 120.543C158.347 120.057 159.044 118.573 158.558 117.228L156.727 112.158C156.241 110.813 154.757 110.117 153.412 110.602Z" fill="#FFB800"/>
<g opacity="0.7">
<path opacity="0.7" d="M120.054 128.125L116.646 118.692C116.204 117.466 117.21 116.206 118.503 116.368L129.462 117.74C130.878 117.916 131.493 119.625 130.52 120.663L122.969 128.724C122.079 129.676 120.499 129.35 120.054 128.125Z" fill="#A8A8A8"/>
<path opacity="0.7" d="M143.621 119.611L140.213 110.178C139.771 108.953 138.19 108.627 137.298 109.579L129.747 117.637C128.774 118.678 129.389 120.384 130.804 120.56L141.764 121.932C143.057 122.095 144.063 120.834 143.621 119.608V119.611Z" fill="#A8A8A8"/>
</g>
<path d="M120.073 106.806L129.989 103.224C131.277 102.758 132.603 103.818 132.432 105.177L130.989 116.697C130.802 118.183 129.01 118.831 127.915 117.809L119.442 109.87C118.441 108.935 118.786 107.273 120.073 106.806Z" fill="#D4238B"/>
<path d="M118.76 126.577L115.179 116.661C114.712 115.374 115.772 114.048 117.131 114.219L128.651 115.661C130.137 115.848 130.785 117.64 129.763 118.736L121.824 127.209C120.889 128.209 119.227 127.865 118.76 126.577Z" fill="#D4238B"/>
<path d="M143.534 117.626L139.953 107.711C139.486 106.423 137.827 106.081 136.889 107.079L128.95 115.552C127.925 116.645 128.573 118.44 130.061 118.627L141.582 120.069C142.94 120.24 144.001 118.914 143.534 117.626Z" fill="#D4238B"/>
<path d="M114.432 140.125H156.157C156.873 140.125 157.454 140.706 157.454 141.422V167.375C157.454 172.402 153.373 176.485 148.343 176.485H122.244C117.217 176.485 113.133 172.404 113.133 167.375V141.422C113.133 140.706 113.714 140.125 114.429 140.125H114.432Z" fill="#FFB800"/>
<path d="M157.453 160.673V155.938H113.135V160.673H157.453Z" fill="#D4238B"/>
<path d="M132.167 116.98L127.985 118.491L132.009 129.632L136.192 128.122L132.167 116.98Z" fill="#D4238B"/>
<path d="M137.712 140.167H132.978V176.524H137.712V140.167Z" fill="#D4238B"/>
<path d="M144.76 137.543C144.619 137.543 144.475 137.516 144.337 137.457C143.787 137.223 143.529 136.589 143.762 136.039C143.909 135.692 147.463 127.544 158.534 126.972C162.476 126.768 165.467 124.927 167.424 121.5C168.935 118.854 169.246 116.208 169.249 116.18C169.317 115.587 169.851 115.158 170.448 115.223C171.041 115.288 171.473 115.823 171.407 116.419C171.394 116.541 169.957 128.555 158.648 129.141C148.982 129.642 145.888 136.592 145.761 136.887C145.584 137.299 145.183 137.546 144.763 137.546L144.76 137.543Z" fill="#D9D9D9"/>
<path d="M97.1745 128.869C94.1107 128.869 91.6162 126.374 91.6162 123.31C91.6162 120.246 94.1107 117.752 97.1745 117.752C100.238 117.752 102.733 120.246 102.733 123.31C102.733 126.374 100.238 128.869 97.1745 128.869ZM97.1745 119.921C95.3064 119.921 93.7853 121.442 93.7853 123.31C93.7853 125.178 95.3064 126.7 97.1745 126.7C99.0427 126.7 100.564 125.178 100.564 123.31C100.564 121.442 99.0427 119.921 97.1745 119.921Z" fill="#D9D9D9"/>
<path d="M175.933 107.85C175.535 107.85 175.134 107.726 174.789 107.474C174.114 106.983 173.832 106.15 174.065 105.351C174.212 104.849 174.041 104.32 173.626 104C172.967 103.491 172.707 102.65 172.964 101.858C173.222 101.067 173.927 100.538 174.759 100.513C175.283 100.497 175.733 100.172 175.909 99.6783C176.191 98.8947 176.91 98.3877 177.742 98.3877C178.574 98.3877 179.296 98.8947 179.575 99.6783C179.751 100.169 180.201 100.497 180.722 100.513C181.554 100.538 182.259 101.067 182.517 101.858C182.774 102.65 182.517 103.491 181.855 104C181.443 104.32 181.269 104.849 181.416 105.351C181.649 106.15 181.367 106.983 180.692 107.474C180.017 107.964 179.138 107.975 178.45 107.506C178.018 107.211 177.46 107.211 177.029 107.506C176.693 107.737 176.31 107.85 175.931 107.85H175.933ZM175.337 102.628C176.064 103.382 176.4 104.418 176.256 105.456C177.197 105.001 178.287 105.001 179.23 105.456C179.087 104.421 179.423 103.382 180.15 102.628C179.119 102.444 178.238 101.804 177.745 100.879C177.251 101.801 176.37 102.444 175.34 102.628H175.337Z" fill="#D9D9D9"/>
</g>
<defs>
<clipPath id="clip0_233_1350">
<rect width="241.109" height="261" fill="white" transform="translate(12)"/>
</clipPath>
</defs>
</svg>
