<svg width="266" height="426" viewBox="0 0 266 426" fill="none" xmlns="http://www.w3.org/2000/svg">
<rect x="19" y="346" width="245" height="79" fill="white" stroke="#D4238B" stroke-width="2"/>
<circle cx="18" cy="345" r="17" fill="white" stroke="#D4238B" stroke-width="2"/>
<path d="M62.6406 378V359.818H73.9154V362.18H65.3838V367.719H73.1076V370.072H65.3838V378H62.6406ZM77.0759 378V364.364H79.7304V378H77.0759ZM78.4165 362.26C77.9549 362.26 77.5583 362.106 77.2269 361.798C76.9014 361.484 76.7386 361.111 76.7386 360.679C76.7386 360.241 76.9014 359.868 77.2269 359.561C77.5583 359.247 77.9549 359.09 78.4165 359.09C78.8782 359.09 79.2717 359.247 79.5973 359.561C79.9287 359.868 80.0944 360.241 80.0944 360.679C80.0944 361.111 79.9287 361.484 79.5973 361.798C79.2717 362.106 78.8782 362.26 78.4165 362.26ZM88.4063 378.266C87.3054 378.266 86.323 377.985 85.4589 377.423C84.6007 376.855 83.9259 376.047 83.4347 374.999C82.9494 373.946 82.7067 372.682 82.7067 371.208C82.7067 369.735 82.9523 368.474 83.4436 367.426C83.9407 366.379 84.6214 365.577 85.4855 365.021C86.3496 364.464 87.3291 364.186 88.4241 364.186C89.2704 364.186 89.951 364.328 90.466 364.612C90.9868 364.89 91.3892 365.216 91.6733 365.589C91.9633 365.962 92.1883 366.29 92.3481 366.574H92.5079V359.818H95.1623V378H92.57V375.878H92.3481C92.1883 376.168 91.9574 376.5 91.6556 376.873C91.3597 377.245 90.9513 377.571 90.4304 377.849C89.9096 378.127 89.2349 378.266 88.4063 378.266ZM88.9922 376.002C89.7557 376.002 90.4008 375.801 90.9276 375.399C91.4603 374.99 91.8627 374.425 92.135 373.703C92.4132 372.981 92.5522 372.141 92.5522 371.182C92.5522 370.235 92.4161 369.406 92.1439 368.696C91.8716 367.986 91.4721 367.432 90.9454 367.036C90.4186 366.639 89.7676 366.441 88.9922 366.441C88.1932 366.441 87.5274 366.648 86.9947 367.062C86.462 367.477 86.0596 368.042 85.7873 368.758C85.521 369.474 85.3878 370.282 85.3878 371.182C85.3878 372.093 85.524 372.913 85.7962 373.641C86.0685 374.369 86.4709 374.946 87.0036 375.372C87.5422 375.792 88.2051 376.002 88.9922 376.002ZM104.828 378.275C103.485 378.275 102.327 377.988 101.357 377.414C100.392 376.834 99.6464 376.02 99.1196 374.973C98.5988 373.919 98.3384 372.685 98.3384 371.271C98.3384 369.874 98.5988 368.643 99.1196 367.577C99.6464 366.512 100.38 365.681 101.321 365.083C102.268 364.485 103.375 364.186 104.642 364.186C105.411 364.186 106.157 364.313 106.879 364.568C107.601 364.822 108.249 365.222 108.823 365.766C109.397 366.311 109.85 367.018 110.181 367.888C110.513 368.752 110.679 369.803 110.679 371.04V371.981H99.8387V369.992H108.077C108.077 369.294 107.935 368.675 107.651 368.137C107.367 367.592 106.968 367.163 106.453 366.849C105.944 366.536 105.346 366.379 104.659 366.379C103.914 366.379 103.263 366.562 102.706 366.929C102.156 367.29 101.73 367.764 101.428 368.35C101.132 368.93 100.984 369.56 100.984 370.241V371.794C100.984 372.706 101.144 373.481 101.463 374.12C101.789 374.76 102.242 375.248 102.822 375.585C103.402 375.917 104.079 376.082 104.855 376.082C105.358 376.082 105.816 376.011 106.231 375.869C106.645 375.721 107.003 375.502 107.305 375.212C107.607 374.922 107.838 374.564 107.997 374.138L110.51 374.591C110.309 375.331 109.948 375.979 109.427 376.535C108.912 377.086 108.264 377.515 107.483 377.822C106.707 378.124 105.822 378.275 104.828 378.275ZM116.278 359.818V378H113.624V359.818H116.278ZM119.849 378V364.364H122.504V378H119.849ZM121.19 362.26C120.728 362.26 120.332 362.106 120 361.798C119.675 361.484 119.512 361.111 119.512 360.679C119.512 360.241 119.675 359.868 120 359.561C120.332 359.247 120.728 359.09 121.19 359.09C121.652 359.09 122.045 359.247 122.371 359.561C122.702 359.868 122.868 360.241 122.868 360.679C122.868 361.111 122.702 361.484 122.371 361.798C122.045 362.106 121.652 362.26 121.19 362.26ZM125.791 378V376.18L133.177 366.796V366.672H126.031V364.364H136.489V366.299L129.386 375.567V375.692H136.737V378H125.791ZM143.837 378.302C142.973 378.302 142.192 378.142 141.494 377.822C140.795 377.497 140.242 377.026 139.833 376.411C139.431 375.795 139.23 375.041 139.23 374.147C139.23 373.378 139.378 372.744 139.674 372.247C139.97 371.75 140.369 371.356 140.872 371.066C141.375 370.776 141.937 370.557 142.559 370.409C143.18 370.261 143.814 370.149 144.459 370.072C145.276 369.977 145.938 369.9 146.447 369.841C146.956 369.776 147.326 369.673 147.557 369.531C147.788 369.388 147.903 369.158 147.903 368.838V368.776C147.903 368.001 147.684 367.4 147.246 366.974C146.814 366.548 146.169 366.335 145.311 366.335C144.417 366.335 143.713 366.533 143.198 366.929C142.689 367.32 142.337 367.755 142.142 368.234L139.647 367.666C139.943 366.838 140.375 366.169 140.943 365.66C141.517 365.145 142.177 364.772 142.923 364.541C143.669 364.304 144.453 364.186 145.276 364.186C145.82 364.186 146.397 364.251 147.007 364.381C147.622 364.506 148.196 364.737 148.729 365.074C149.268 365.411 149.709 365.894 150.052 366.521C150.395 367.142 150.567 367.95 150.567 368.945V378H147.974V376.136H147.868C147.696 376.479 147.439 376.816 147.095 377.148C146.752 377.479 146.311 377.754 145.773 377.973C145.234 378.192 144.589 378.302 143.837 378.302ZM144.414 376.171C145.148 376.171 145.776 376.026 146.296 375.736C146.823 375.446 147.223 375.067 147.495 374.6C147.773 374.126 147.912 373.62 147.912 373.082V371.324C147.818 371.419 147.634 371.507 147.362 371.59C147.095 371.667 146.791 371.735 146.447 371.794C146.104 371.848 145.77 371.898 145.444 371.945C145.119 371.987 144.846 372.022 144.627 372.052C144.113 372.117 143.642 372.226 143.216 372.38C142.796 372.534 142.458 372.756 142.204 373.046C141.955 373.33 141.831 373.709 141.831 374.183C141.831 374.839 142.074 375.337 142.559 375.674C143.044 376.005 143.663 376.171 144.414 376.171ZM164.687 378.302C163.823 378.302 163.042 378.142 162.343 377.822C161.645 377.497 161.091 377.026 160.683 376.411C160.281 375.795 160.079 375.041 160.079 374.147C160.079 373.378 160.227 372.744 160.523 372.247C160.819 371.75 161.219 371.356 161.722 371.066C162.225 370.776 162.787 370.557 163.409 370.409C164.03 370.261 164.663 370.149 165.308 370.072C166.125 369.977 166.788 369.9 167.297 369.841C167.806 369.776 168.176 369.673 168.407 369.531C168.638 369.388 168.753 369.158 168.753 368.838V368.776C168.753 368.001 168.534 367.4 168.096 366.974C167.664 366.548 167.019 366.335 166.161 366.335C165.267 366.335 164.563 366.533 164.048 366.929C163.539 367.32 163.187 367.755 162.991 368.234L160.497 367.666C160.793 366.838 161.225 366.169 161.793 365.66C162.367 365.145 163.027 364.772 163.773 364.541C164.518 364.304 165.302 364.186 166.125 364.186C166.67 364.186 167.247 364.251 167.856 364.381C168.472 364.506 169.046 364.737 169.579 365.074C170.117 365.411 170.558 365.894 170.901 366.521C171.245 367.142 171.416 367.95 171.416 368.945V378H168.824V376.136H168.717C168.546 376.479 168.288 376.816 167.945 377.148C167.602 377.479 167.161 377.754 166.622 377.973C166.084 378.192 165.439 378.302 164.687 378.302ZM165.264 376.171C165.998 376.171 166.625 376.026 167.146 375.736C167.673 375.446 168.072 375.067 168.345 374.6C168.623 374.126 168.762 373.62 168.762 373.082V371.324C168.667 371.419 168.484 371.507 168.211 371.59C167.945 371.667 167.64 371.735 167.297 371.794C166.954 371.848 166.619 371.898 166.294 371.945C165.968 371.987 165.696 372.022 165.477 372.052C164.962 372.117 164.492 372.226 164.065 372.38C163.645 372.534 163.308 372.756 163.053 373.046C162.805 373.33 162.681 373.709 162.681 374.183C162.681 374.839 162.923 375.337 163.409 375.674C163.894 376.005 164.512 376.171 165.264 376.171ZM187.934 364.364V366.494H180.485V364.364H187.934ZM182.483 361.097H185.137V373.996C185.137 374.511 185.214 374.899 185.368 375.159C185.522 375.414 185.72 375.588 185.963 375.683C186.211 375.772 186.481 375.816 186.771 375.816C186.984 375.816 187.17 375.801 187.33 375.772C187.49 375.742 187.614 375.718 187.703 375.701L188.182 377.893C188.028 377.953 187.809 378.012 187.525 378.071C187.241 378.136 186.886 378.172 186.46 378.178C185.761 378.189 185.11 378.065 184.507 377.805C183.903 377.544 183.415 377.142 183.042 376.597C182.669 376.053 182.483 375.369 182.483 374.547V361.097ZM199.508 372.345V364.364H202.171V378H199.561V375.638H199.419C199.106 376.366 198.602 376.973 197.91 377.458C197.223 377.938 196.368 378.178 195.344 378.178C194.468 378.178 193.693 377.985 193.018 377.6C192.35 377.21 191.823 376.633 191.438 375.869C191.059 375.106 190.87 374.162 190.87 373.037V364.364H193.524V372.718C193.524 373.647 193.782 374.387 194.297 374.937C194.812 375.488 195.48 375.763 196.303 375.763C196.8 375.763 197.294 375.638 197.786 375.39C198.283 375.141 198.694 374.766 199.02 374.262C199.351 373.759 199.514 373.12 199.508 372.345ZM215.956 367.693L213.551 368.119C213.45 367.811 213.29 367.518 213.071 367.24C212.858 366.962 212.568 366.734 212.201 366.556C211.834 366.379 211.375 366.29 210.825 366.29C210.073 366.29 209.446 366.459 208.943 366.796C208.44 367.128 208.188 367.557 208.188 368.083C208.188 368.539 208.357 368.906 208.694 369.184C209.032 369.462 209.576 369.69 210.328 369.868L212.494 370.365C213.749 370.655 214.684 371.102 215.299 371.706C215.915 372.309 216.223 373.094 216.223 374.058C216.223 374.875 215.986 375.603 215.513 376.242C215.045 376.875 214.391 377.373 213.551 377.734C212.716 378.095 211.748 378.275 210.648 378.275C209.121 378.275 207.875 377.95 206.91 377.299C205.945 376.642 205.353 375.71 205.134 374.502L207.7 374.112C207.86 374.78 208.188 375.286 208.686 375.63C209.183 375.967 209.831 376.136 210.63 376.136C211.5 376.136 212.195 375.955 212.716 375.594C213.237 375.227 213.497 374.78 213.497 374.254C213.497 373.827 213.337 373.469 213.018 373.179C212.704 372.889 212.222 372.67 211.571 372.522L209.263 372.016C207.99 371.726 207.049 371.265 206.439 370.631C205.836 369.998 205.534 369.196 205.534 368.225C205.534 367.421 205.759 366.716 206.209 366.113C206.658 365.509 207.28 365.038 208.073 364.701C208.866 364.358 209.775 364.186 210.798 364.186C212.272 364.186 213.432 364.506 214.279 365.145C215.125 365.778 215.684 366.627 215.956 367.693ZM45.9181 408.275C44.5982 408.275 43.4619 407.976 42.509 407.379C41.562 406.775 40.834 405.943 40.325 404.884C39.816 403.824 39.5615 402.611 39.5615 401.244C39.5615 399.859 39.8219 398.637 40.3428 397.577C40.8636 396.512 41.5975 395.681 42.5445 395.083C43.4914 394.485 44.6071 394.186 45.8914 394.186C46.9272 394.186 47.8505 394.378 48.6613 394.763C49.4722 395.142 50.1262 395.675 50.6233 396.361C51.1264 397.048 51.4253 397.85 51.52 398.767H48.9365C48.7945 398.128 48.469 397.577 47.96 397.116C47.4569 396.654 46.7822 396.423 45.9358 396.423C45.196 396.423 44.5479 396.619 43.9916 397.009C43.4411 397.394 43.012 397.944 42.7043 398.661C42.3965 399.371 42.2426 400.211 42.2426 401.182C42.2426 402.176 42.3936 403.034 42.6954 403.756C42.9972 404.478 43.4234 405.038 43.9738 405.434C44.5302 405.831 45.1842 406.029 45.9358 406.029C46.4389 406.029 46.8946 405.937 47.303 405.754C47.7173 405.565 48.0635 405.295 48.3417 404.946C48.6258 404.597 48.8241 404.177 48.9365 403.685H51.52C51.4253 404.567 51.1382 405.354 50.6588 406.047C50.1794 406.739 49.5373 407.284 48.7323 407.68C47.9333 408.077 46.9952 408.275 45.9181 408.275ZM57.0131 389.818V408H54.3587V389.818H57.0131ZM60.5843 408V394.364H63.2387V408H60.5843ZM61.9248 392.26C61.4632 392.26 61.0666 392.106 60.7352 391.798C60.4097 391.484 60.2469 391.111 60.2469 390.679C60.2469 390.241 60.4097 389.868 60.7352 389.561C61.0666 389.247 61.4632 389.09 61.9248 389.09C62.3865 389.09 62.78 389.247 63.1056 389.561C63.437 389.868 63.6027 390.241 63.6027 390.679C63.6027 391.111 63.437 391.484 63.1056 391.798C62.78 392.106 62.3865 392.26 61.9248 392.26ZM72.687 408.275C71.3435 408.275 70.1864 407.988 69.2157 407.414C68.251 406.834 67.5053 406.02 66.9785 404.973C66.4577 403.919 66.1973 402.685 66.1973 401.271C66.1973 399.874 66.4577 398.643 66.9785 397.577C67.5053 396.512 68.2392 395.681 69.1802 395.083C70.1272 394.485 71.234 394.186 72.5005 394.186C73.2699 394.186 74.0157 394.313 74.7377 394.568C75.4598 394.822 76.1079 395.222 76.682 395.766C77.2561 396.311 77.7089 397.018 78.0403 397.888C78.3717 398.752 78.5375 399.803 78.5375 401.04V401.981H67.6976V399.992H75.9363C75.9363 399.294 75.7942 398.675 75.5101 398.137C75.226 397.592 74.8265 397.163 74.3116 396.849C73.8026 396.536 73.2048 396.379 72.5183 396.379C71.7725 396.379 71.1215 396.562 70.5652 396.929C70.0147 397.29 69.5886 397.764 69.2868 398.35C68.9908 398.93 68.8429 399.56 68.8429 400.241V401.794C68.8429 402.706 69.0027 403.481 69.3223 404.12C69.6478 404.76 70.1006 405.248 70.6806 405.585C71.2606 405.917 71.9383 406.082 72.7136 406.082C73.2167 406.082 73.6754 406.011 74.0897 405.869C74.504 405.721 74.862 405.502 75.1639 405.212C75.4657 404.922 75.6966 404.564 75.8564 404.138L78.3688 404.591C78.1676 405.331 77.8065 405.979 77.2857 406.535C76.7708 407.086 76.1227 407.515 75.3414 407.822C74.5661 408.124 73.6813 408.275 72.687 408.275ZM84.1372 399.903V408H81.4827V394.364H84.0306V396.583H84.1993C84.513 395.861 85.0042 395.281 85.673 394.843C86.3477 394.405 87.1971 394.186 88.221 394.186C89.1502 394.186 89.964 394.381 90.6624 394.772C91.3608 395.157 91.9023 395.731 92.287 396.494C92.6717 397.258 92.8641 398.202 92.8641 399.326V408H90.2096V399.646C90.2096 398.658 89.9521 397.885 89.4372 397.329C88.9223 396.767 88.2151 396.485 87.3154 396.485C86.6999 396.485 86.1524 396.619 85.673 396.885C85.1995 397.151 84.8237 397.542 84.5455 398.057C84.2733 398.566 84.1372 399.181 84.1372 399.903ZM102.79 394.364V396.494H95.341V394.364H102.79ZM97.3385 391.097H99.993V403.996C99.993 404.511 100.07 404.899 100.224 405.159C100.378 405.414 100.576 405.588 100.819 405.683C101.067 405.772 101.336 405.816 101.627 405.816C101.84 405.816 102.026 405.801 102.186 405.772C102.346 405.742 102.47 405.718 102.559 405.701L103.038 407.893C102.884 407.953 102.665 408.012 102.381 408.071C102.097 408.136 101.742 408.172 101.316 408.178C100.617 408.189 99.9664 408.065 99.3627 407.805C98.759 407.544 98.2707 407.142 97.8978 406.597C97.5249 406.053 97.3385 405.369 97.3385 404.547V391.097ZM111.456 408.275C110.113 408.275 108.956 407.988 107.985 407.414C107.021 406.834 106.275 406.02 105.748 404.973C105.227 403.919 104.967 402.685 104.967 401.271C104.967 399.874 105.227 398.643 105.748 397.577C106.275 396.512 107.009 395.681 107.95 395.083C108.897 394.485 110.003 394.186 111.27 394.186C112.039 394.186 112.785 394.313 113.507 394.568C114.229 394.822 114.877 395.222 115.452 395.766C116.026 396.311 116.478 397.018 116.81 397.888C117.141 398.752 117.307 399.803 117.307 401.04V401.981H106.467V399.992H114.706C114.706 399.294 114.564 398.675 114.28 398.137C113.996 397.592 113.596 397.163 113.081 396.849C112.572 396.536 111.974 396.379 111.288 396.379C110.542 396.379 109.891 396.562 109.335 396.929C108.784 397.29 108.358 397.764 108.056 398.35C107.76 398.93 107.612 399.56 107.612 400.241V401.794C107.612 402.706 107.772 403.481 108.092 404.12C108.417 404.76 108.87 405.248 109.45 405.585C110.03 405.917 110.708 406.082 111.483 406.082C111.986 406.082 112.445 406.011 112.859 405.869C113.273 405.721 113.632 405.502 113.933 405.212C114.235 404.922 114.466 404.564 114.626 404.138L117.138 404.591C116.937 405.331 116.576 405.979 116.055 406.535C115.54 407.086 114.892 407.515 114.111 407.822C113.336 408.124 112.451 408.275 111.456 408.275ZM130.471 397.693L128.065 398.119C127.964 397.811 127.804 397.518 127.585 397.24C127.372 396.962 127.082 396.734 126.715 396.556C126.348 396.379 125.89 396.29 125.339 396.29C124.588 396.29 123.96 396.459 123.457 396.796C122.954 397.128 122.703 397.557 122.703 398.083C122.703 398.539 122.871 398.906 123.209 399.184C123.546 399.462 124.09 399.69 124.842 399.868L127.008 400.365C128.263 400.655 129.198 401.102 129.814 401.706C130.429 402.309 130.737 403.094 130.737 404.058C130.737 404.875 130.5 405.603 130.027 406.242C129.559 406.875 128.905 407.373 128.065 407.734C127.23 408.095 126.263 408.275 125.162 408.275C123.635 408.275 122.389 407.95 121.424 407.299C120.459 406.642 119.868 405.71 119.649 404.502L122.214 404.112C122.374 404.78 122.703 405.286 123.2 405.63C123.697 405.967 124.345 406.136 125.144 406.136C126.014 406.136 126.709 405.955 127.23 405.594C127.751 405.227 128.011 404.78 128.011 404.254C128.011 403.827 127.852 403.469 127.532 403.179C127.218 402.889 126.736 402.67 126.085 402.522L123.777 402.016C122.504 401.726 121.563 401.265 120.954 400.631C120.35 399.998 120.048 399.196 120.048 398.225C120.048 397.421 120.273 396.716 120.723 396.113C121.173 395.509 121.794 395.038 122.587 394.701C123.38 394.358 124.289 394.186 125.313 394.186C126.786 394.186 127.946 394.506 128.793 395.145C129.639 395.778 130.198 396.627 130.471 397.693ZM144.24 408.302C143.376 408.302 142.595 408.142 141.896 407.822C141.198 407.497 140.645 407.026 140.236 406.411C139.834 405.795 139.633 405.041 139.633 404.147C139.633 403.378 139.781 402.744 140.076 402.247C140.372 401.75 140.772 401.356 141.275 401.066C141.778 400.776 142.34 400.557 142.962 400.409C143.583 400.261 144.216 400.149 144.862 400.072C145.678 399.977 146.341 399.9 146.85 399.841C147.359 399.776 147.729 399.673 147.96 399.531C148.191 399.388 148.306 399.158 148.306 398.838V398.776C148.306 398.001 148.087 397.4 147.649 396.974C147.217 396.548 146.572 396.335 145.714 396.335C144.82 396.335 144.116 396.533 143.601 396.929C143.092 397.32 142.74 397.755 142.544 398.234L140.05 397.666C140.346 396.838 140.778 396.169 141.346 395.66C141.92 395.145 142.58 394.772 143.326 394.541C144.071 394.304 144.856 394.186 145.678 394.186C146.223 394.186 146.8 394.251 147.41 394.381C148.025 394.506 148.599 394.737 149.132 395.074C149.67 395.411 150.111 395.894 150.455 396.521C150.798 397.142 150.97 397.95 150.97 398.945V408H148.377V406.136H148.271C148.099 406.479 147.842 406.816 147.498 407.148C147.155 407.479 146.714 407.754 146.176 407.973C145.637 408.192 144.992 408.302 144.24 408.302ZM144.817 406.171C145.551 406.171 146.178 406.026 146.699 405.736C147.226 405.446 147.626 405.067 147.898 404.6C148.176 404.126 148.315 403.62 148.315 403.082V401.324C148.22 401.419 148.037 401.507 147.765 401.59C147.498 401.667 147.194 401.735 146.85 401.794C146.507 401.848 146.173 401.898 145.847 401.945C145.522 401.987 145.249 402.022 145.03 402.052C144.515 402.117 144.045 402.226 143.619 402.38C143.198 402.534 142.861 402.756 142.607 403.046C142.358 403.33 142.234 403.709 142.234 404.183C142.234 404.839 142.476 405.337 142.962 405.674C143.447 406.005 144.066 406.171 144.817 406.171ZM160.249 408.275C158.929 408.275 157.793 407.976 156.84 407.379C155.893 406.775 155.165 405.943 154.656 404.884C154.147 403.824 153.893 402.611 153.893 401.244C153.893 399.859 154.153 398.637 154.674 397.577C155.195 396.512 155.929 395.681 156.876 395.083C157.823 394.485 158.938 394.186 160.222 394.186C161.258 394.186 162.182 394.378 162.992 394.763C163.803 395.142 164.457 395.675 164.954 396.361C165.457 397.048 165.756 397.85 165.851 398.767H163.268C163.126 398.128 162.8 397.577 162.291 397.116C161.788 396.654 161.113 396.423 160.267 396.423C159.527 396.423 158.879 396.619 158.323 397.009C157.772 397.394 157.343 397.944 157.035 398.661C156.728 399.371 156.574 400.211 156.574 401.182C156.574 402.176 156.725 403.034 157.026 403.756C157.328 404.478 157.754 405.038 158.305 405.434C158.861 405.831 159.515 406.029 160.267 406.029C160.77 406.029 161.226 405.937 161.634 405.754C162.048 405.565 162.395 405.295 162.673 404.946C162.957 404.597 163.155 404.177 163.268 403.685H165.851C165.756 404.567 165.469 405.354 164.99 406.047C164.51 406.739 163.868 407.284 163.063 407.68C162.264 408.077 161.326 408.275 160.249 408.275ZM175.055 394.364V396.494H167.607V394.364H175.055ZM169.604 391.097H172.259V403.996C172.259 404.511 172.336 404.899 172.489 405.159C172.643 405.414 172.842 405.588 173.084 405.683C173.333 405.772 173.602 405.816 173.892 405.816C174.105 405.816 174.292 405.801 174.451 405.772C174.611 405.742 174.736 405.718 174.824 405.701L175.304 407.893C175.15 407.953 174.931 408.012 174.647 408.071C174.363 408.136 174.008 408.172 173.581 408.178C172.883 408.189 172.232 408.065 171.628 407.805C171.025 407.544 170.536 407.142 170.163 406.597C169.791 406.053 169.604 405.369 169.604 404.547V391.097ZM186.63 402.345V394.364H189.293V408H186.683V405.638H186.541C186.227 406.366 185.724 406.973 185.032 407.458C184.345 407.938 183.49 408.178 182.466 408.178C181.59 408.178 180.815 407.985 180.14 407.6C179.471 407.21 178.944 406.633 178.56 405.869C178.181 405.106 177.991 404.162 177.991 403.037V394.364H180.646V402.718C180.646 403.647 180.903 404.387 181.418 404.937C181.933 405.488 182.602 405.763 183.425 405.763C183.922 405.763 184.416 405.638 184.907 405.39C185.404 405.141 185.816 404.766 186.141 404.262C186.473 403.759 186.636 403.12 186.63 402.345ZM196.828 408.302C195.964 408.302 195.183 408.142 194.484 407.822C193.786 407.497 193.233 407.026 192.824 406.411C192.422 405.795 192.22 405.041 192.22 404.147C192.22 403.378 192.368 402.744 192.664 402.247C192.96 401.75 193.36 401.356 193.863 401.066C194.366 400.776 194.928 400.557 195.55 400.409C196.171 400.261 196.804 400.149 197.449 400.072C198.266 399.977 198.929 399.9 199.438 399.841C199.947 399.776 200.317 399.673 200.548 399.531C200.779 399.388 200.894 399.158 200.894 398.838V398.776C200.894 398.001 200.675 397.4 200.237 396.974C199.805 396.548 199.16 396.335 198.302 396.335C197.408 396.335 196.704 396.533 196.189 396.929C195.68 397.32 195.328 397.755 195.132 398.234L192.638 397.666C192.934 396.838 193.366 396.169 193.934 395.66C194.508 395.145 195.168 394.772 195.914 394.541C196.659 394.304 197.444 394.186 198.266 394.186C198.811 394.186 199.388 394.251 199.997 394.381C200.613 394.506 201.187 394.737 201.72 395.074C202.258 395.411 202.699 395.894 203.043 396.521C203.386 397.142 203.557 397.95 203.557 398.945V408H200.965V406.136H200.859C200.687 406.479 200.429 406.816 200.086 407.148C199.743 407.479 199.302 407.754 198.763 407.973C198.225 408.192 197.58 408.302 196.828 408.302ZM197.405 406.171C198.139 406.171 198.766 406.026 199.287 405.736C199.814 405.446 200.213 405.067 200.486 404.6C200.764 404.126 200.903 403.62 200.903 403.082V401.324C200.808 401.419 200.625 401.507 200.353 401.59C200.086 401.667 199.781 401.735 199.438 401.794C199.095 401.848 198.76 401.898 198.435 401.945C198.109 401.987 197.837 402.022 197.618 402.052C197.103 402.117 196.633 402.226 196.207 402.38C195.786 402.534 195.449 402.756 195.195 403.046C194.946 403.33 194.822 403.709 194.822 404.183C194.822 404.839 195.064 405.337 195.55 405.674C196.035 406.005 196.653 406.171 197.405 406.171ZM209.748 389.818V408H207.093V389.818H209.748ZM219.196 408.275C217.852 408.275 216.695 407.988 215.725 407.414C214.76 406.834 214.014 406.02 213.487 404.973C212.966 403.919 212.706 402.685 212.706 401.271C212.706 399.874 212.966 398.643 213.487 397.577C214.014 396.512 214.748 395.681 215.689 395.083C216.636 394.485 217.743 394.186 219.009 394.186C219.779 394.186 220.524 394.313 221.247 394.568C221.969 394.822 222.617 395.222 223.191 395.766C223.765 396.311 224.218 397.018 224.549 397.888C224.881 398.752 225.046 399.803 225.046 401.04V401.981H214.206V399.992H222.445C222.445 399.294 222.303 398.675 222.019 398.137C221.735 397.592 221.335 397.163 220.82 396.849C220.311 396.536 219.714 396.379 219.027 396.379C218.281 396.379 217.63 396.562 217.074 396.929C216.524 397.29 216.097 397.764 215.796 398.35C215.5 398.93 215.352 399.56 215.352 400.241V401.794C215.352 402.706 215.511 403.481 215.831 404.12C216.157 404.76 216.609 405.248 217.189 405.585C217.769 405.917 218.447 406.082 219.222 406.082C219.725 406.082 220.184 406.011 220.598 405.869C221.013 405.721 221.371 405.502 221.673 405.212C221.975 404.922 222.205 404.564 222.365 404.138L224.878 404.591C224.676 405.331 224.315 405.979 223.794 406.535C223.28 407.086 222.631 407.515 221.85 407.822C221.075 408.124 220.19 408.275 219.196 408.275ZM238.21 397.693L235.804 398.119C235.703 397.811 235.544 397.518 235.325 397.24C235.112 396.962 234.821 396.734 234.455 396.556C234.088 396.379 233.629 396.29 233.078 396.29C232.327 396.29 231.699 396.459 231.196 396.796C230.693 397.128 230.442 397.557 230.442 398.083C230.442 398.539 230.61 398.906 230.948 399.184C231.285 399.462 231.83 399.69 232.581 399.868L234.748 400.365C236.002 400.655 236.937 401.102 237.553 401.706C238.168 402.309 238.476 403.094 238.476 404.058C238.476 404.875 238.239 405.603 237.766 406.242C237.298 406.875 236.644 407.373 235.804 407.734C234.969 408.095 234.002 408.275 232.901 408.275C231.374 408.275 230.128 407.95 229.163 407.299C228.199 406.642 227.607 405.71 227.388 404.502L229.953 404.112C230.113 404.78 230.442 405.286 230.939 405.63C231.436 405.967 232.084 406.136 232.883 406.136C233.753 406.136 234.449 405.955 234.969 405.594C235.49 405.227 235.751 404.78 235.751 404.254C235.751 403.827 235.591 403.469 235.271 403.179C234.958 402.889 234.475 402.67 233.824 402.522L231.516 402.016C230.243 401.726 229.302 401.265 228.693 400.631C228.089 399.998 227.787 399.196 227.787 398.225C227.787 397.421 228.012 396.716 228.462 396.113C228.912 395.509 229.533 395.038 230.326 394.701C231.119 394.358 232.028 394.186 233.052 394.186C234.526 394.186 235.686 394.506 236.532 395.145C237.378 395.778 237.938 396.627 238.21 397.693Z" fill="#D4238B"/>
<path d="M17.0222 354.249C15.803 354.249 14.714 354.038 13.7551 353.618C12.8023 353.198 12.0476 352.615 11.4913 351.869C10.9409 351.118 10.6449 350.248 10.6035 349.259H13.3912C13.4267 349.798 13.6072 350.265 13.9327 350.662C14.2641 351.053 14.6962 351.354 15.2289 351.567C15.7615 351.781 16.3534 351.887 17.0044 351.887C17.7206 351.887 18.3539 351.763 18.9043 351.514C19.4606 351.266 19.8957 350.919 20.2093 350.475C20.523 350.026 20.6799 349.508 20.6799 348.922C20.6799 348.312 20.523 347.777 20.2093 347.315C19.9016 346.847 19.4488 346.48 18.851 346.214C18.2592 345.948 17.543 345.815 16.7026 345.815H15.1667V343.577H16.7026C17.3773 343.577 17.9692 343.456 18.4782 343.213C18.9931 342.971 19.3955 342.633 19.6855 342.201C19.9756 341.763 20.1206 341.251 20.1206 340.665C20.1206 340.103 19.9933 339.615 19.7388 339.201C19.4902 338.78 19.1351 338.452 18.6735 338.215C18.2177 337.978 17.6792 337.86 17.0577 337.86C16.4658 337.86 15.9125 337.97 15.3975 338.189C14.8886 338.402 14.4743 338.709 14.1547 339.112C13.835 339.508 13.6634 339.985 13.6397 340.541H10.9853C11.0149 339.559 11.3049 338.695 11.8553 337.949C12.4116 337.203 13.1455 336.62 14.057 336.2C14.9685 335.78 15.9805 335.57 17.0932 335.57C18.2592 335.57 19.2653 335.797 20.1117 336.253C20.964 336.703 21.6209 337.304 22.0826 338.055C22.5501 338.807 22.781 339.63 22.775 340.523C22.781 341.541 22.4969 342.406 21.9228 343.116C21.3546 343.826 20.597 344.302 19.65 344.545V344.687C20.8574 344.871 21.7926 345.35 22.4554 346.125C23.1242 346.901 23.4557 347.862 23.4498 349.011C23.4557 350.011 23.1775 350.908 22.6152 351.701C22.0589 352.494 21.2984 353.118 20.3336 353.574C19.3689 354.024 18.2651 354.249 17.0222 354.249Z" fill="#D4238B"/>
<g clip-path="url(#clip0_233_1012)">
<path d="M223.237 32.0161H23.4758C17.1379 32.0161 12 37.154 12 43.4919V254.524C12 260.862 17.1379 266 23.4758 266H223.237C229.575 266 234.713 260.862 234.713 254.524V43.4919C234.713 37.154 229.575 32.0161 223.237 32.0161Z" fill="#D9D9D9"/>
<path d="M193.139 99.9398C193.139 94.022 198.101 89.2275 204.221 89.2275V78.9247C198.101 78.9247 193.139 74.1271 193.139 68.2124C193.139 62.2945 198.101 57.5 204.221 57.5V49.8691H42.4924V57.5C48.612 57.5 53.5741 62.2976 53.5741 68.2124C53.5741 74.1302 48.612 78.9247 42.4924 78.9247V89.2275C48.612 89.2275 53.5741 94.0251 53.5741 99.9398C53.5741 105.858 48.612 110.652 42.4924 110.652V118.283H204.221V110.652C198.101 110.652 193.139 105.855 193.139 99.9398Z" fill="#D4238B"/>
<path d="M65.5744 49.8657H62.6418V118.286H65.5744V49.8657Z" fill="white"/>
<path d="M184.071 49.8657H181.139V118.286H184.071V49.8657Z" fill="white"/>
<path d="M166.833 91.2007H79.8803C79.3027 91.2007 78.8345 91.6689 78.8345 92.2465V110.205C78.8345 110.782 79.3027 111.251 79.8803 111.251H166.833C167.41 111.251 167.879 110.782 167.879 110.205V92.2465C167.879 91.6689 167.41 91.2007 166.833 91.2007Z" fill="white"/>
<path d="M102.673 66.3163V69.0906C101.32 67.9579 99.9208 67.3931 98.4747 67.3931C96.8796 67.3931 95.5359 67.9672 94.4467 69.1123C93.3482 70.2512 92.7989 71.6445 92.7989 73.2923C92.7989 74.9215 93.3482 76.2932 94.4467 77.4103C95.5452 78.5306 96.8921 79.0892 98.4871 79.0892C99.3095 79.0892 100.011 78.9557 100.588 78.6858C100.911 78.5523 101.243 78.3723 101.587 78.1427C101.932 77.9162 102.295 77.64 102.676 77.3203V80.1443C101.336 80.9015 99.9301 81.2801 98.4561 81.2801C96.2373 81.2801 94.3474 80.5074 92.7803 78.9589C91.2193 77.3979 90.4404 75.5174 90.4404 73.311C90.4404 71.3342 91.0921 69.5747 92.3986 68.0262C94.006 66.1301 96.0852 65.1836 98.6392 65.1836C100.033 65.1836 101.379 65.5622 102.68 66.3194L102.673 66.3163Z" fill="white"/>
<path d="M104.548 76.0325C104.548 74.6205 105.054 73.4165 106.065 72.4265C107.077 71.4366 108.309 70.9401 109.761 70.9401C111.223 70.9401 112.461 71.4397 113.479 72.4358C114.484 73.4351 114.987 74.6609 114.987 76.1132C114.987 77.5655 114.481 78.8099 113.47 79.7998C112.452 80.7835 111.201 81.277 109.721 81.277C108.253 81.277 107.024 80.7742 106.034 79.7688C105.044 78.7789 104.548 77.5314 104.548 76.0325ZM106.86 76.0728C106.86 77.0504 107.12 77.8231 107.645 78.3941C108.182 78.9713 108.886 79.2568 109.764 79.2568C110.649 79.2568 111.356 78.9713 111.884 78.4034C112.415 77.8355 112.678 77.0752 112.678 76.1225C112.678 75.1729 112.415 74.4126 111.884 73.8416C111.347 73.2644 110.643 72.9789 109.764 72.9789C108.902 72.9789 108.2 73.2675 107.663 73.8416C107.127 74.4188 106.86 75.1605 106.86 76.0728ZM113.159 66.3876L109.501 69.7019L108.266 68.9385L111.027 65.2798L113.156 66.3845L113.159 66.3876Z" fill="white"/>
<path d="M124.408 64.0259H126.68V80.9975H124.408V79.9734C123.518 80.8454 122.509 81.2799 121.383 81.2799C120.042 81.2799 118.931 80.7896 118.047 79.812C117.169 78.8128 116.731 77.5684 116.731 76.0757C116.731 74.6141 117.169 73.3976 118.047 72.417C118.919 71.4333 120.014 70.9399 121.333 70.9399C122.478 70.9399 123.502 71.4085 124.408 72.3457V64.0259ZM119.043 76.0726C119.043 77.0098 119.294 77.7732 119.797 78.3628C120.312 78.9586 120.964 79.2566 121.746 79.2566C122.584 79.2566 123.26 78.968 123.775 78.3939C124.29 77.798 124.548 77.0408 124.548 76.1223C124.548 75.2037 124.29 74.4465 123.775 73.8507C123.26 73.2673 122.59 72.9756 121.764 72.9756C120.989 72.9756 120.337 73.2704 119.816 73.86C119.3 74.4558 119.043 75.1944 119.043 76.0695V76.0726Z" fill="white"/>
<path d="M129.004 67.1385C129.004 66.7444 129.147 66.4031 129.436 66.1145C129.724 65.8259 130.069 65.6831 130.469 65.6831C130.879 65.6831 131.226 65.8259 131.515 66.1145C131.804 66.3968 131.946 66.7413 131.946 67.1509C131.946 67.5606 131.8 67.9081 131.515 68.1967C131.233 68.4853 130.888 68.6281 130.482 68.6281C130.072 68.6281 129.724 68.4853 129.436 68.1967C129.147 67.9081 129.004 67.5575 129.004 67.1416V67.1385ZM131.608 71.21V80.9976H129.349V71.21H131.608Z" fill="white"/>
<path d="M143.751 80.765C143.751 81.2273 143.735 81.6339 143.704 81.9845C143.673 82.3352 143.633 82.6455 143.58 82.9124C143.419 83.6479 143.105 84.2809 142.637 84.8116C141.752 85.8294 140.536 86.3384 138.991 86.3384C137.684 86.3384 136.61 85.9877 135.766 85.2833C134.894 84.5602 134.395 83.5579 134.258 82.2793H136.53C136.617 82.7603 136.759 83.1327 136.961 83.3934C137.43 84.0016 138.112 84.3089 139.012 84.3089C140.666 84.3089 141.495 83.2941 141.495 81.2646V79.8992C140.598 80.8177 139.562 81.277 138.392 81.277C137.057 81.277 135.968 80.796 135.115 79.8309C134.258 78.8534 133.83 77.6307 133.83 76.1629C133.83 74.7354 134.23 73.5251 135.025 72.5259C135.881 71.4677 137.014 70.937 138.42 70.937C139.652 70.937 140.676 71.3963 141.495 72.3148V71.2101H143.757V80.765H143.751ZM141.582 76.1225C141.582 75.1729 141.327 74.4126 140.818 73.8416C140.303 73.2582 139.642 72.9665 138.838 72.9665C137.982 72.9665 137.305 73.2862 136.809 73.9223C136.359 74.4902 136.136 75.2288 136.136 76.1318C136.136 77.0225 136.359 77.7517 136.809 78.3227C137.299 78.9465 137.976 79.2568 138.838 79.2568C139.701 79.2568 140.387 78.9434 140.887 78.3134C141.349 77.7455 141.579 77.0131 141.579 76.1225H141.582Z" fill="white"/>
<path d="M145.957 76.0323C145.957 74.6204 146.463 73.4163 147.475 72.4264C148.486 71.4365 149.718 70.9399 151.171 70.9399C152.632 70.9399 153.871 71.4396 154.888 72.4357C155.894 73.4349 156.397 74.6607 156.397 76.113C156.397 77.5809 155.891 78.8097 154.879 79.7997C153.861 80.7834 152.611 81.2768 151.13 81.2768C149.663 81.2768 148.434 80.7741 147.444 79.7686C146.451 78.7787 145.957 77.5312 145.957 76.0323ZM148.269 76.0727C148.269 77.0502 148.53 77.8229 149.054 78.3939C149.591 78.9711 150.296 79.2566 151.174 79.2566C152.058 79.2566 152.766 78.9711 153.293 78.4032C153.821 77.8353 154.088 77.075 154.088 76.1223C154.088 75.1728 153.824 74.4125 153.293 73.8415C152.756 73.2643 152.052 72.9788 151.174 72.9788C150.311 72.9788 149.61 73.2674 149.073 73.8415C148.536 74.4187 148.269 75.1603 148.269 76.0727Z" fill="white"/>
<path d="M87.4863 99.7004L87.2784 95.9424H90.0775L89.8541 99.7004L93.3762 98.335L94.2389 100.994L90.5926 101.941L92.9728 104.864L90.7168 106.506L88.6717 103.331L86.6391 106.506L84.3707 104.864L86.7632 101.956L83.1169 100.998L83.9796 98.3381L87.4863 99.7035V99.7004Z" fill="#FFB800"/>
<path d="M104.821 99.7004L104.613 95.9424H107.412L107.189 99.7004L110.711 98.335L111.574 100.994L107.927 101.941L110.308 104.864L108.051 106.506L106.006 103.331L103.974 106.506L101.705 104.864L104.098 101.956L100.452 100.998L101.314 98.3381L104.821 99.7035V99.7004Z" fill="#FFB800"/>
<path d="M122.159 99.7004L121.951 95.9424H124.75L124.526 99.7004L128.049 98.335L128.911 100.994L125.265 101.941L127.645 104.864L125.389 106.506L123.344 103.331L121.311 106.506L119.043 104.864L121.436 101.956L117.789 100.998L118.652 98.3381L122.159 99.7035V99.7004Z" fill="#FFB800"/>
<path d="M139.497 99.7004L139.289 95.9424H142.088L141.864 99.7004L145.386 98.335L146.249 100.994L142.603 101.941L144.983 104.864L142.727 106.506L140.682 103.331L138.649 106.506L136.381 104.864L138.773 101.956L135.127 100.998L135.99 98.3381L139.497 99.7035V99.7004Z" fill="#FFB800"/>
<path d="M156.834 99.7004L156.626 95.9424H159.425L159.202 99.7004L162.724 98.335L163.587 100.994L159.941 101.941L162.321 104.864L160.065 106.506L158.02 103.331L155.987 106.506L153.719 104.864L156.111 101.956L152.465 100.998L153.328 98.3381L156.834 99.7035V99.7004Z" fill="#FFB800"/>
<path d="M71.7496 69.6301C72.9202 69.6301 73.8691 68.6812 73.8691 67.5106C73.8691 66.3401 72.9202 65.3911 71.7496 65.3911C70.5791 65.3911 69.6301 66.3401 69.6301 67.5106C69.6301 68.6812 70.5791 69.6301 71.7496 69.6301Z" fill="white"/>
<path d="M71.7496 58.5857C72.9202 58.5857 73.8691 57.6368 73.8691 56.4662C73.8691 55.2956 72.9202 54.3467 71.7496 54.3467C70.5791 54.3467 69.6301 55.2956 69.6301 56.4662C69.6301 57.6368 70.5791 58.5857 71.7496 58.5857Z" fill="white"/>
<path d="M71.7496 80.6716C72.9202 80.6716 73.8691 79.7227 73.8691 78.5521C73.8691 77.3816 72.9202 76.4326 71.7496 76.4326C70.5791 76.4326 69.6301 77.3816 69.6301 78.5521C69.6301 79.7227 70.5791 80.6716 71.7496 80.6716Z" fill="white"/>
<path d="M71.7496 91.7161C72.9202 91.7161 73.8691 90.7671 73.8691 89.5966C73.8691 88.426 72.9202 87.4771 71.7496 87.4771C70.5791 87.4771 69.6301 88.426 69.6301 89.5966C69.6301 90.7671 70.5791 91.7161 71.7496 91.7161Z" fill="white"/>
<path d="M71.7496 102.761C72.9202 102.761 73.8691 101.812 73.8691 100.641C73.8691 99.4704 72.9202 98.5215 71.7496 98.5215C70.5791 98.5215 69.6301 99.4704 69.6301 100.641C69.6301 101.812 70.5791 102.761 71.7496 102.761Z" fill="white"/>
<path d="M71.7496 113.804C72.9202 113.804 73.8691 112.856 73.8691 111.685C73.8691 110.514 72.9202 109.565 71.7496 109.565C70.5791 109.565 69.6301 110.514 69.6301 111.685C69.6301 112.856 70.5791 113.804 71.7496 113.804Z" fill="white"/>
<path d="M174.96 69.6301C176.131 69.6301 177.08 68.6812 177.08 67.5106C177.08 66.3401 176.131 65.3911 174.96 65.3911C173.79 65.3911 172.841 66.3401 172.841 67.5106C172.841 68.6812 173.79 69.6301 174.96 69.6301Z" fill="white"/>
<path d="M174.96 58.5857C176.131 58.5857 177.08 57.6368 177.08 56.4662C177.08 55.2956 176.131 54.3467 174.96 54.3467C173.79 54.3467 172.841 55.2956 172.841 56.4662C172.841 57.6368 173.79 58.5857 174.96 58.5857Z" fill="white"/>
<path d="M174.96 80.6716C176.131 80.6716 177.08 79.7227 177.08 78.5521C177.08 77.3816 176.131 76.4326 174.96 76.4326C173.79 76.4326 172.841 77.3816 172.841 78.5521C172.841 79.7227 173.79 80.6716 174.96 80.6716Z" fill="white"/>
<path d="M174.96 91.7161C176.131 91.7161 177.08 90.7671 177.08 89.5966C177.08 88.426 176.131 87.4771 174.96 87.4771C173.79 87.4771 172.841 88.426 172.841 89.5966C172.841 90.7671 173.79 91.7161 174.96 91.7161Z" fill="white"/>
<path d="M174.96 102.761C176.131 102.761 177.08 101.812 177.08 100.641C177.08 99.4704 176.131 98.5215 174.96 98.5215C173.79 98.5215 172.841 99.4704 172.841 100.641C172.841 101.812 173.79 102.761 174.96 102.761Z" fill="white"/>
<path d="M174.96 113.804C176.131 113.804 177.08 112.856 177.08 111.685C177.08 110.514 176.131 109.565 174.96 109.565C173.79 109.565 172.841 110.514 172.841 111.685C172.841 112.856 173.79 113.804 174.96 113.804Z" fill="white"/>
<path d="M204.245 134.339H42.4645C42.1132 134.339 41.8284 134.624 41.8284 134.975V165.629C41.8284 165.98 42.1132 166.265 42.4645 166.265H204.245C204.597 166.265 204.882 165.98 204.882 165.629V134.975C204.882 134.624 204.597 134.339 204.245 134.339Z" fill="white"/>
<path d="M73.1183 141.988H51.0698C50.4288 141.988 49.9092 142.508 49.9092 143.149V159.785C49.9092 160.426 50.4288 160.946 51.0698 160.946H73.1183C73.7593 160.946 74.2789 160.426 74.2789 159.785V143.149C74.2789 142.508 73.7593 141.988 73.1183 141.988Z" fill="white"/>
<path d="M73.1182 161.259H51.0666C50.2567 161.259 49.5957 160.601 49.5957 159.788V143.149C49.5957 142.339 50.2536 141.678 51.0666 141.678H73.1182C73.9282 141.678 74.5892 142.336 74.5892 143.149V159.788C74.5892 160.598 73.9313 161.259 73.1182 161.259ZM51.0666 142.298C50.598 142.298 50.2164 142.68 50.2164 143.149V159.788C50.2164 160.257 50.598 160.639 51.0666 160.639H73.1182C73.5868 160.639 73.9685 160.257 73.9685 159.788V143.149C73.9685 142.68 73.5868 142.298 73.1182 142.298H51.0666Z" fill="#7E7B7E"/>
<path d="M74.2789 146.178H49.9092C49.7385 146.178 49.5989 146.038 49.5989 145.867C49.5989 145.697 49.7385 145.557 49.9092 145.557H74.2789C74.4496 145.557 74.5892 145.697 74.5892 145.867C74.5892 146.038 74.4496 146.178 74.2789 146.178Z" fill="#7E7B7E"/>
<path d="M54.9674 148.514H53.8317C53.4255 148.514 53.0962 148.843 53.0962 149.25V149.786C53.0962 150.193 53.4255 150.522 53.8317 150.522H54.9674C55.3736 150.522 55.7029 150.193 55.7029 149.786V149.25C55.7029 148.843 55.3736 148.514 54.9674 148.514Z" fill="white"/>
<path d="M54.9644 150.835H53.8317C53.2545 150.835 52.7859 150.367 52.7859 149.79V149.256C52.7859 148.679 53.2545 148.21 53.8317 148.21H54.9644C55.5416 148.21 56.0133 148.679 56.0133 149.256V149.79C56.0133 150.367 55.5447 150.835 54.9644 150.835ZM53.8317 148.824C53.5958 148.824 53.4065 149.017 53.4065 149.25V149.783C53.4065 150.019 53.5989 150.208 53.8317 150.208H54.9644C55.2002 150.208 55.3926 150.016 55.3926 149.783V149.25C55.3926 149.014 55.2002 148.824 54.9644 148.824H53.8317Z" fill="#7E7B7E"/>
<path d="M60.0971 148.514H58.9613C58.5551 148.514 58.2258 148.843 58.2258 149.25V149.786C58.2258 150.193 58.5551 150.522 58.9613 150.522H60.0971C60.5033 150.522 60.8325 150.193 60.8325 149.786V149.25C60.8325 148.843 60.5033 148.514 60.0971 148.514Z" fill="white"/>
<path d="M60.094 150.835H58.9613C58.3841 150.835 57.9155 150.367 57.9155 149.79V149.256C57.9155 148.679 58.3841 148.21 58.9613 148.21H60.094C60.6712 148.21 61.1398 148.679 61.1398 149.256V149.79C61.1398 150.367 60.6712 150.835 60.094 150.835ZM58.9613 148.824C58.7255 148.824 58.5362 149.017 58.5362 149.25V149.783C58.5362 150.019 58.7286 150.208 58.9613 150.208H60.094C60.3298 150.208 60.5191 150.016 60.5191 149.783V149.25C60.5191 149.014 60.3267 148.824 60.094 148.824H58.9613Z" fill="#7E7B7E"/>
<path d="M65.2267 148.514H64.0909C63.6847 148.514 63.3555 148.843 63.3555 149.25V149.786C63.3555 150.193 63.6847 150.522 64.0909 150.522H65.2267C65.6329 150.522 65.9622 150.193 65.9622 149.786V149.25C65.9622 148.843 65.6329 148.514 65.2267 148.514Z" fill="white"/>
<path d="M65.2236 150.835H64.0909C63.5137 150.835 63.042 150.367 63.042 149.79V149.256C63.042 148.679 63.5106 148.21 64.0909 148.21H65.2236C65.8008 148.21 66.2725 148.679 66.2725 149.256V149.79C66.2725 150.367 65.8039 150.835 65.2236 150.835ZM64.0909 148.824C63.855 148.824 63.6626 149.017 63.6626 149.25V149.783C63.6626 150.019 63.855 150.208 64.0909 150.208H65.2236C65.4594 150.208 65.6518 150.016 65.6518 149.783V149.25C65.6518 149.014 65.4594 148.824 65.2236 148.824H64.0909Z" fill="#7E7B7E"/>
<path d="M70.3564 148.514H69.2206C68.8144 148.514 68.4851 148.843 68.4851 149.25V149.786C68.4851 150.193 68.8144 150.522 69.2206 150.522H70.3564C70.7625 150.522 71.0918 150.193 71.0918 149.786V149.25C71.0918 148.843 70.7625 148.514 70.3564 148.514Z" fill="white"/>
<path d="M70.3533 150.835H69.2206C68.6434 150.835 68.1748 150.367 68.1748 149.79V149.256C68.1748 148.679 68.6434 148.21 69.2206 148.21H70.3533C70.9305 148.21 71.3991 148.679 71.3991 149.256V149.79C71.3991 150.367 70.9305 150.835 70.3533 150.835ZM69.2206 148.824C68.9847 148.824 68.7955 149.017 68.7955 149.25V149.783C68.7955 150.019 68.9879 150.208 69.2206 150.208H70.3533C70.5891 150.208 70.7784 150.016 70.7784 149.783V149.25C70.7784 149.014 70.586 148.824 70.3533 148.824H69.2206Z" fill="#7E7B7E"/>
<path d="M54.9674 152.424H53.8317C53.4255 152.424 53.0962 152.754 53.0962 153.16V153.697C53.0962 154.103 53.4255 154.432 53.8317 154.432H54.9674C55.3736 154.432 55.7029 154.103 55.7029 153.697V153.16C55.7029 152.754 55.3736 152.424 54.9674 152.424Z" fill="white"/>
<path d="M54.9644 154.745H53.8317C53.2545 154.745 52.7859 154.277 52.7859 153.7V153.166C52.7859 152.589 53.2545 152.12 53.8317 152.12H54.9644C55.5416 152.12 56.0133 152.589 56.0133 153.166V153.7C56.0133 154.277 55.5447 154.745 54.9644 154.745ZM53.8317 152.735C53.5958 152.735 53.4065 152.927 53.4065 153.16V153.693C53.4065 153.929 53.5989 154.119 53.8317 154.119H54.9644C55.2002 154.119 55.3926 153.926 55.3926 153.693V153.16C55.3926 152.924 55.2002 152.735 54.9644 152.735H53.8317Z" fill="#7E7B7E"/>
<path d="M60.0971 152.424H58.9613C58.5551 152.424 58.2258 152.754 58.2258 153.16V153.697C58.2258 154.103 58.5551 154.432 58.9613 154.432H60.0971C60.5033 154.432 60.8325 154.103 60.8325 153.697V153.16C60.8325 152.754 60.5033 152.424 60.0971 152.424Z" fill="white"/>
<path d="M60.094 154.745H58.9613C58.3841 154.745 57.9155 154.277 57.9155 153.7V153.166C57.9155 152.589 58.3841 152.12 58.9613 152.12H60.094C60.6712 152.12 61.1398 152.589 61.1398 153.166V153.7C61.1398 154.277 60.6712 154.745 60.094 154.745ZM58.9613 152.735C58.7255 152.735 58.5362 152.927 58.5362 153.16V153.693C58.5362 153.929 58.7286 154.119 58.9613 154.119H60.094C60.3298 154.119 60.5191 153.926 60.5191 153.693V153.16C60.5191 152.924 60.3267 152.735 60.094 152.735H58.9613Z" fill="#7E7B7E"/>
<path d="M65.2267 152.424H64.0909C63.6847 152.424 63.3555 152.754 63.3555 153.16V153.697C63.3555 154.103 63.6847 154.432 64.0909 154.432H65.2267C65.6329 154.432 65.9622 154.103 65.9622 153.697V153.16C65.9622 152.754 65.6329 152.424 65.2267 152.424Z" fill="white"/>
<path d="M65.2236 154.745H64.0909C63.5137 154.745 63.042 154.277 63.042 153.7V153.166C63.042 152.589 63.5106 152.12 64.0909 152.12H65.2236C65.8008 152.12 66.2725 152.589 66.2725 153.166V153.7C66.2725 154.277 65.8039 154.745 65.2236 154.745ZM64.0909 152.735C63.855 152.735 63.6626 152.927 63.6626 153.16V153.693C63.6626 153.929 63.855 154.119 64.0909 154.119H65.2236C65.4594 154.119 65.6518 153.926 65.6518 153.693V153.16C65.6518 152.924 65.4594 152.735 65.2236 152.735H64.0909Z" fill="#7E7B7E"/>
<path d="M70.3564 152.424H69.2206C68.8144 152.424 68.4851 152.754 68.4851 153.16V153.697C68.4851 154.103 68.8144 154.432 69.2206 154.432H70.3564C70.7625 154.432 71.0918 154.103 71.0918 153.697V153.16C71.0918 152.754 70.7625 152.424 70.3564 152.424Z" fill="white"/>
<path d="M70.3533 154.745H69.2206C68.6434 154.745 68.1748 154.277 68.1748 153.7V153.166C68.1748 152.589 68.6434 152.12 69.2206 152.12H70.3533C70.9305 152.12 71.3991 152.589 71.3991 153.166V153.7C71.3991 154.277 70.9305 154.745 70.3533 154.745ZM69.2206 152.735C68.9847 152.735 68.7955 152.927 68.7955 153.16V153.693C68.7955 153.929 68.9879 154.119 69.2206 154.119H70.3533C70.5891 154.119 70.7784 153.926 70.7784 153.693V153.16C70.7784 152.924 70.586 152.735 70.3533 152.735H69.2206Z" fill="#7E7B7E"/>
<path d="M54.9674 156.337H53.8317C53.4255 156.337 53.0962 156.667 53.0962 157.073V157.61C53.0962 158.016 53.4255 158.345 53.8317 158.345H54.9674C55.3736 158.345 55.7029 158.016 55.7029 157.61V157.073C55.7029 156.667 55.3736 156.337 54.9674 156.337Z" fill="white"/>
<path d="M54.9644 158.656H53.8317C53.2545 158.656 52.7859 158.187 52.7859 157.61V157.076C52.7859 156.499 53.2545 156.03 53.8317 156.03H54.9644C55.5416 156.03 56.0133 156.499 56.0133 157.076V157.61C56.0133 158.187 55.5447 158.656 54.9644 158.656ZM53.8317 156.648C53.5958 156.648 53.4065 156.84 53.4065 157.073V157.607C53.4065 157.843 53.5989 158.032 53.8317 158.032H54.9644C55.2002 158.032 55.3926 157.839 55.3926 157.607V157.073C55.3926 156.837 55.2002 156.648 54.9644 156.648H53.8317Z" fill="#7E7B7E"/>
<path d="M60.0971 156.337H58.9613C58.5551 156.337 58.2258 156.667 58.2258 157.073V157.61C58.2258 158.016 58.5551 158.345 58.9613 158.345H60.0971C60.5033 158.345 60.8325 158.016 60.8325 157.61V157.073C60.8325 156.667 60.5033 156.337 60.0971 156.337Z" fill="white"/>
<path d="M60.094 158.656H58.9613C58.3841 158.656 57.9155 158.187 57.9155 157.61V157.076C57.9155 156.499 58.3841 156.03 58.9613 156.03H60.094C60.6712 156.03 61.1398 156.499 61.1398 157.076V157.61C61.1398 158.187 60.6712 158.656 60.094 158.656ZM58.9613 156.648C58.7255 156.648 58.5362 156.84 58.5362 157.073V157.607C58.5362 157.843 58.7286 158.032 58.9613 158.032H60.094C60.3298 158.032 60.5191 157.839 60.5191 157.607V157.073C60.5191 156.837 60.3267 156.648 60.094 156.648H58.9613Z" fill="#7E7B7E"/>
<path d="M56.2956 140.663C56.2956 140.108 55.8462 139.658 55.2917 139.658C54.7373 139.658 54.2878 140.108 54.2878 140.663V142.541C54.2878 143.096 54.7373 143.546 55.2917 143.546C55.8462 143.546 56.2956 143.096 56.2956 142.541V140.663Z" fill="white"/>
<path d="M55.2901 143.853C54.564 143.853 53.9744 143.264 53.9744 142.537V140.66C53.9744 139.934 54.564 139.344 55.2901 139.344C56.0163 139.344 56.6059 139.934 56.6059 140.66V142.537C56.6059 143.264 56.0163 143.853 55.2901 143.853ZM55.2901 139.968C54.9084 139.968 54.595 140.278 54.595 140.663V142.541C54.595 142.922 54.9053 143.236 55.2901 143.236C55.6749 143.236 55.9853 142.925 55.9853 142.541V140.663C55.9853 140.281 55.6749 139.968 55.2901 139.968Z" fill="#7E7B7E"/>
<path d="M69.897 140.663C69.897 140.108 69.4475 139.658 68.8931 139.658C68.3386 139.658 67.8892 140.108 67.8892 140.663V142.541C67.8892 143.096 68.3386 143.546 68.8931 143.546C69.4475 143.546 69.897 143.096 69.897 142.541V140.663Z" fill="white"/>
<path d="M68.8946 143.853C68.1685 143.853 67.5789 143.264 67.5789 142.537V140.66C67.5789 139.934 68.1685 139.344 68.8946 139.344C69.6208 139.344 70.2104 139.934 70.2104 140.66V142.537C70.2104 143.264 69.6208 143.853 68.8946 143.853ZM68.8946 139.968C68.5129 139.968 68.1995 140.278 68.1995 140.663V142.541C68.1995 142.922 68.5098 143.236 68.8946 143.236C69.2794 143.236 69.5898 142.925 69.5898 142.541V140.663C69.5898 140.281 69.2794 139.968 68.8946 139.968Z" fill="#7E7B7E"/>
<path d="M63.0979 140.663C63.0979 140.108 62.6484 139.658 62.094 139.658C61.5395 139.658 61.0901 140.108 61.0901 140.663V142.541C61.0901 143.096 61.5395 143.546 62.094 143.546C62.6484 143.546 63.0979 143.096 63.0979 142.541V140.663Z" fill="white"/>
<path d="M62.0924 143.853C61.3662 143.853 60.7766 143.264 60.7766 142.537V140.66C60.7766 139.934 61.3662 139.344 62.0924 139.344C62.8185 139.344 63.4082 139.934 63.4082 140.66V142.537C63.4082 143.264 62.8185 143.853 62.0924 143.853ZM62.0924 139.968C61.7107 139.968 61.3973 140.278 61.3973 140.663V142.541C61.3973 142.922 61.7076 143.236 62.0924 143.236C62.4772 143.236 62.7875 142.925 62.7875 142.541V140.663C62.7875 140.281 62.4772 139.968 62.0924 139.968Z" fill="#7E7B7E"/>
<path d="M83.7437 145.594L86.6173 152.794L89.5312 145.594H91.2473L86.5831 156.766L82.0276 145.594H83.7437Z" fill="#7E7B7E"/>
<path d="M92.1533 146.705C92.1533 146.442 92.2495 146.212 92.4419 146.02C92.6343 145.827 92.8671 145.731 93.1339 145.731C93.4008 145.731 93.6398 145.827 93.8353 146.02C94.0277 146.209 94.1239 146.438 94.1239 146.712C94.1239 146.985 94.0277 147.217 93.8353 147.41C93.646 147.602 93.4163 147.698 93.1433 147.698C92.8702 147.698 92.6374 147.602 92.445 147.41C92.2526 147.217 92.1564 146.982 92.1564 146.702L92.1533 146.705ZM93.8973 149.43V155.984H92.383V149.43H93.8973Z" fill="#7E7B7E"/>
<path d="M102.155 155.829C102.155 156.139 102.146 156.412 102.124 156.645C102.102 156.881 102.074 157.088 102.04 157.268C101.932 157.762 101.721 158.187 101.407 158.541C100.815 159.223 100.001 159.565 98.965 159.565C98.0899 159.565 97.3699 159.329 96.8051 158.857C96.2217 158.373 95.8866 157.703 95.7966 156.846H97.3172C97.3761 157.169 97.4723 157.417 97.6058 157.594C97.9192 158.004 98.3785 158.206 98.9774 158.206C100.085 158.206 100.641 157.526 100.641 156.167V155.251C100.039 155.866 99.3467 156.173 98.5616 156.173C97.6678 156.173 96.9386 155.85 96.3676 155.205C95.7935 154.55 95.5049 153.731 95.5049 152.747C95.5049 151.763 95.7718 150.978 96.3055 150.311C96.8796 149.603 97.6368 149.247 98.5802 149.247C99.4057 149.247 100.091 149.554 100.638 150.168V149.427H102.152V155.825L102.155 155.829ZM100.7 152.722C100.7 152.086 100.529 151.577 100.188 151.195C99.8432 150.804 99.3994 150.609 98.8626 150.609C98.2885 150.609 97.8354 150.823 97.5034 151.248C97.2024 151.63 97.0534 152.123 97.0534 152.728C97.0534 153.334 97.2024 153.815 97.5034 154.196C97.8292 154.612 98.2854 154.823 98.8626 154.823C99.4398 154.823 99.8991 154.612 100.234 154.19C100.545 153.808 100.7 153.321 100.7 152.722Z" fill="#7E7B7E"/>
<path d="M110.034 153.064H105.336C105.376 153.601 105.55 154.032 105.861 154.349C106.171 154.662 106.568 154.82 107.052 154.82C107.428 154.82 107.741 154.73 107.986 154.55C108.228 154.37 108.504 154.038 108.815 153.554L110.093 154.268C109.895 154.603 109.687 154.892 109.466 155.134C109.246 155.376 109.01 155.571 108.759 155.726C108.508 155.882 108.238 155.993 107.946 156.068C107.654 156.139 107.338 156.176 106.996 156.176C106.019 156.176 105.234 155.863 104.641 155.233C104.048 154.6 103.753 153.762 103.753 152.716C103.753 151.671 104.039 150.842 104.616 150.2C105.196 149.567 105.963 149.25 106.919 149.25C107.875 149.25 108.647 149.557 109.206 150.172C109.761 150.783 110.041 151.627 110.041 152.71L110.034 153.067V153.064ZM108.48 151.826C108.269 151.019 107.76 150.615 106.953 150.615C106.77 150.615 106.596 150.643 106.435 150.699C106.273 150.755 106.127 150.836 105.994 150.941C105.861 151.047 105.749 151.174 105.656 151.323C105.563 151.472 105.488 151.639 105.442 151.829H108.483L108.48 151.826Z" fill="#7E7B7E"/>
<path d="M111.691 149.43H113.212V150.035C113.743 149.51 114.338 149.247 115.003 149.247C115.766 149.247 116.359 149.486 116.787 149.967C117.153 150.376 117.339 151.04 117.339 151.965V155.984H115.819V152.322C115.819 151.676 115.729 151.23 115.549 150.984C115.375 150.733 115.055 150.609 114.593 150.609C114.09 150.609 113.733 150.773 113.522 151.105C113.314 151.434 113.212 152.005 113.212 152.822V155.984H111.691V149.43Z" fill="#7E7B7E"/>
<path d="M124.35 149.712V151.723C124.005 151.301 123.695 151.012 123.422 150.854C123.152 150.693 122.835 150.612 122.472 150.612C121.901 150.612 121.429 150.811 121.051 151.211C120.675 151.611 120.486 152.111 120.486 152.713C120.486 153.315 120.669 153.833 121.032 154.227C121.398 154.621 121.87 154.82 122.438 154.82C122.801 154.82 123.121 154.742 123.4 154.584C123.67 154.432 123.986 154.134 124.35 153.697V155.695C123.735 156.015 123.121 156.173 122.506 156.173C121.491 156.173 120.644 155.844 119.962 155.189C119.279 154.528 118.938 153.712 118.938 152.732C118.938 151.751 119.282 150.929 119.974 150.255C120.666 149.582 121.513 149.247 122.519 149.247C123.164 149.247 123.775 149.402 124.35 149.712Z" fill="#7E7B7E"/>
<path d="M125.588 146.705C125.588 146.442 125.684 146.212 125.876 146.02C126.069 145.827 126.301 145.731 126.568 145.731C126.835 145.731 127.074 145.827 127.27 146.02C127.462 146.209 127.558 146.438 127.558 146.712C127.558 146.985 127.462 147.217 127.27 147.41C127.08 147.602 126.851 147.698 126.578 147.698C126.304 147.698 126.072 147.602 125.879 147.41C125.687 147.217 125.591 146.982 125.591 146.702L125.588 146.705ZM127.329 149.43V155.984H125.814V149.43H127.329Z" fill="#7E7B7E"/>
<path d="M134.078 149.43H135.599V155.984H134.078V155.298C133.454 155.881 132.784 156.173 132.067 156.173C131.161 156.173 130.413 155.844 129.821 155.189C129.234 154.522 128.939 153.687 128.939 152.685C128.939 151.683 129.234 150.885 129.821 150.227C130.407 149.573 131.143 149.244 132.027 149.244C132.79 149.244 133.473 149.557 134.078 150.187V149.427V149.43ZM130.485 152.688C130.485 153.315 130.652 153.827 130.99 154.221C131.335 154.622 131.772 154.82 132.297 154.82C132.859 154.82 133.312 154.628 133.656 154.243C134.001 153.843 134.174 153.337 134.174 152.722C134.174 152.108 134.001 151.602 133.656 151.202C133.312 150.811 132.862 150.615 132.309 150.615C131.788 150.615 131.354 150.814 131.003 151.208C130.658 151.608 130.485 152.102 130.485 152.688Z" fill="#7E7B7E"/>
<path d="M204.245 175.733H42.4645C42.1132 175.733 41.8284 176.018 41.8284 176.369V207.023C41.8284 207.374 42.1132 207.659 42.4645 207.659H204.245C204.597 207.659 204.882 207.374 204.882 207.023V176.369C204.882 176.018 204.597 175.733 204.245 175.733Z" fill="white"/>
<path d="M90.8968 187.547V189.403C89.9907 188.645 89.0535 188.267 88.0853 188.267C87.0178 188.267 86.1178 188.652 85.3855 189.418C84.65 190.181 84.2807 191.112 84.2807 192.217C84.2807 193.322 84.65 194.228 85.3855 194.976C86.1209 195.724 87.024 196.099 88.0915 196.099C88.6439 196.099 89.1125 196.009 89.4973 195.829C89.7114 195.739 89.9348 195.618 90.1676 195.466C90.3972 195.314 90.6424 195.131 90.8968 194.914V196.804C90 197.31 89.0566 197.564 88.0698 197.564C86.5833 197.564 85.3172 197.046 84.2683 196.009C83.2225 194.964 82.7012 193.704 82.7012 192.226C82.7012 190.904 83.1387 189.722 84.0138 188.686C85.0907 187.416 86.484 186.78 88.1939 186.78C89.128 186.78 90.0279 187.035 90.8999 187.541L90.8968 187.547Z" fill="#7E7B7E"/>
<path d="M97.4168 190.824H98.9374V197.378H97.4168V196.692C96.793 197.276 96.1227 197.567 95.4059 197.567C94.4997 197.567 93.7519 197.238 93.1591 196.583C92.5726 195.916 92.2778 195.082 92.2778 194.079C92.2778 193.077 92.5726 192.279 93.1591 191.621C93.7457 190.967 94.4811 190.638 95.3656 190.638C96.129 190.638 96.8117 190.951 97.4168 191.581V190.821V190.824ZM93.8232 194.082C93.8232 194.709 93.9908 195.221 94.3291 195.615C94.6735 196.016 95.1111 196.214 95.6355 196.214C96.1972 196.214 96.6503 196.022 96.9948 195.637C97.3392 195.237 97.513 194.731 97.513 194.116C97.513 193.502 97.3392 192.996 96.9948 192.596C96.6503 192.205 96.2003 192.009 95.6479 192.009C95.1266 192.009 94.6921 192.208 94.3415 192.602C93.997 193.002 93.8232 193.496 93.8232 194.082Z" fill="#7E7B7E"/>
<path d="M100.849 190.824H102.369V191.429C102.9 190.904 103.496 190.641 104.16 190.641C104.923 190.641 105.516 190.88 105.944 191.361C106.311 191.77 106.497 192.434 106.497 193.359V197.378H104.976V193.716C104.976 193.07 104.886 192.624 104.706 192.378C104.532 192.127 104.213 192.003 103.75 192.003C103.248 192.003 102.891 192.167 102.68 192.499C102.472 192.828 102.369 193.399 102.369 194.216V197.378H100.849V190.824Z" fill="#7E7B7E"/>
<path d="M108.179 188.099C108.179 187.835 108.275 187.606 108.467 187.413C108.66 187.221 108.892 187.125 109.159 187.125C109.426 187.125 109.665 187.221 109.861 187.413C110.053 187.602 110.149 187.832 110.149 188.105C110.149 188.378 110.053 188.611 109.861 188.803C109.671 188.996 109.442 189.092 109.169 189.092C108.896 189.092 108.663 188.996 108.47 188.803C108.278 188.611 108.182 188.375 108.182 188.096L108.179 188.099ZM109.92 190.824V200.943H108.405V190.824H109.92Z" fill="#7E7B7E"/>
<path d="M117.808 194.458H113.11C113.15 194.995 113.324 195.426 113.634 195.743C113.945 196.056 114.342 196.214 114.826 196.214C115.201 196.214 115.515 196.124 115.76 195.944C116.002 195.764 116.278 195.432 116.588 194.948L117.867 195.662C117.668 195.997 117.46 196.286 117.24 196.528C117.02 196.77 116.784 196.965 116.533 197.12C116.281 197.276 116.011 197.387 115.72 197.462C115.428 197.533 115.111 197.57 114.77 197.57C113.792 197.57 113.007 197.257 112.415 196.627C111.822 195.994 111.527 195.156 111.527 194.11C111.527 193.065 111.813 192.236 112.39 191.594C112.97 190.961 113.737 190.644 114.692 190.644C115.648 190.644 116.421 190.951 116.979 191.566C117.535 192.177 117.814 193.021 117.814 194.104L117.808 194.461V194.458ZM116.253 193.22C116.042 192.413 115.533 192.009 114.727 192.009C114.543 192.009 114.37 192.037 114.208 192.093C114.047 192.149 113.901 192.23 113.768 192.335C113.634 192.441 113.522 192.568 113.429 192.717C113.336 192.866 113.262 193.034 113.215 193.223H116.256L116.253 193.22Z" fill="#7E7B7E"/>
<path d="M123.273 191.941L122.022 192.608C121.824 192.205 121.582 192.003 121.29 192.003C121.15 192.003 121.032 192.049 120.933 192.139C120.834 192.233 120.784 192.35 120.784 192.493C120.784 192.745 121.076 192.993 121.659 193.241C122.463 193.586 123.003 193.905 123.282 194.197C123.562 194.489 123.698 194.88 123.698 195.373C123.698 196.006 123.465 196.534 123 196.962C122.547 197.365 122.001 197.567 121.358 197.567C120.26 197.567 119.481 197.03 119.025 195.96L120.316 195.361C120.496 195.674 120.632 195.876 120.725 195.96C120.908 196.13 121.129 196.214 121.383 196.214C121.895 196.214 122.15 195.981 122.15 195.513C122.15 195.243 121.951 194.991 121.557 194.759C121.405 194.681 121.253 194.61 121.101 194.535C120.949 194.461 120.794 194.389 120.635 194.312C120.195 194.098 119.884 193.88 119.707 193.666C119.478 193.393 119.363 193.039 119.363 192.611C119.363 192.04 119.558 191.572 119.949 191.199C120.35 190.827 120.834 190.641 121.402 190.641C122.24 190.641 122.863 191.075 123.273 191.941Z" fill="#7E7B7E"/>
<path d="M129.309 190.824H130.823V191.429C131.115 191.125 131.363 190.917 131.571 190.808C131.791 190.696 132.067 190.641 132.399 190.641C133.141 190.641 133.725 190.963 134.156 191.609C134.631 190.963 135.276 190.641 136.086 190.641C137.563 190.641 138.299 191.534 138.299 193.325V197.375H136.778V193.735C136.778 193.108 136.701 192.661 136.548 192.403C136.39 192.139 136.133 192.006 135.776 192.006C135.36 192.006 135.056 192.164 134.863 192.478C134.671 192.791 134.578 193.297 134.578 193.992V197.378H133.057V193.756C133.057 192.589 132.722 192.006 132.049 192.006C131.624 192.006 131.31 192.164 131.118 192.484C130.922 192.804 130.826 193.306 130.826 193.992V197.378H129.312V190.824H129.309Z" fill="#7E7B7E"/>
<path d="M145.042 190.824H146.563V197.378H145.042V196.692C144.418 197.276 143.748 197.567 143.031 197.567C142.125 197.567 141.377 197.238 140.784 196.584C140.198 195.916 139.903 195.082 139.903 194.079C139.903 193.077 140.198 192.279 140.784 191.622C141.371 190.967 142.106 190.638 142.991 190.638C143.754 190.638 144.437 190.951 145.042 191.581V190.821V190.824ZM141.448 194.082C141.448 194.709 141.616 195.221 141.954 195.615C142.299 196.016 142.736 196.214 143.261 196.214C143.822 196.214 144.276 196.022 144.62 195.637C144.964 195.237 145.138 194.731 145.138 194.117C145.138 193.502 144.964 192.996 144.62 192.596C144.276 192.205 143.826 192.009 143.273 192.009C142.752 192.009 142.317 192.208 141.967 192.602C141.622 193.002 141.448 193.496 141.448 194.082ZM145.706 187.594L143.258 189.815L142.429 189.303L144.279 186.855L145.706 187.597V187.594Z" fill="#7E7B7E"/>
<path d="M150.507 193.831L148.151 190.824H149.954L151.416 192.735L152.902 190.824H154.761L152.338 193.831L155.143 197.378H153.34L151.416 194.929L149.445 197.378H147.596L150.51 193.831H150.507Z" fill="#7E7B7E"/>
<path d="M155.938 188.099C155.938 187.835 156.034 187.606 156.226 187.413C156.419 187.221 156.651 187.125 156.918 187.125C157.185 187.125 157.424 187.221 157.619 187.413C157.812 187.602 157.908 187.832 157.908 188.105C157.908 188.378 157.812 188.611 157.619 188.803C157.43 188.996 157.201 189.092 156.927 189.092C156.654 189.092 156.422 188.996 156.229 188.803C156.037 188.611 155.941 188.375 155.941 188.096L155.938 188.099ZM157.678 190.824V197.378H156.164V190.824H157.678Z" fill="#7E7B7E"/>
<path d="M159.596 190.824H161.111V191.429C161.402 191.125 161.651 190.917 161.858 190.808C162.079 190.696 162.355 190.641 162.687 190.641C163.429 190.641 164.012 190.963 164.443 191.609C164.918 190.963 165.564 190.641 166.374 190.641C167.851 190.641 168.586 191.534 168.586 193.325V197.375H167.066V193.735C167.066 193.108 166.988 192.661 166.836 192.403C166.678 192.139 166.42 192.006 166.063 192.006C165.647 192.006 165.343 192.164 165.151 192.478C164.959 192.791 164.865 193.297 164.865 193.992V197.378H163.345V193.756C163.345 192.589 163.01 192.006 162.336 192.006C161.911 192.006 161.598 192.164 161.405 192.484C161.21 192.804 161.114 193.306 161.114 193.992V197.378H159.599V190.824H159.596Z" fill="#7E7B7E"/>
<path d="M170.188 194.054C170.188 193.108 170.526 192.301 171.202 191.637C171.879 190.973 172.704 190.641 173.679 190.641C174.653 190.641 175.488 190.976 176.168 191.643C176.841 192.31 177.176 193.133 177.176 194.107C177.176 195.081 176.838 195.913 176.161 196.577C175.479 197.235 174.644 197.567 173.651 197.567C172.658 197.567 171.845 197.232 171.181 196.558C170.517 195.894 170.185 195.06 170.185 194.054H170.188ZM171.736 194.082C171.736 194.737 171.91 195.255 172.261 195.637C172.621 196.022 173.092 196.214 173.682 196.214C174.272 196.214 174.746 196.025 175.103 195.643C175.457 195.261 175.634 194.752 175.634 194.116C175.634 193.48 175.457 192.971 175.103 192.589C174.743 192.205 174.272 192.012 173.682 192.012C173.092 192.012 172.633 192.205 172.276 192.589C171.916 192.974 171.739 193.474 171.739 194.082H171.736Z" fill="#7E7B7E"/>
<path d="M182.591 191.941L181.34 192.608C181.142 192.205 180.9 192.003 180.608 192.003C180.468 192.003 180.351 192.049 180.251 192.139C180.152 192.233 180.102 192.35 180.102 192.493C180.102 192.745 180.394 192.993 180.977 193.241C181.781 193.586 182.321 193.905 182.6 194.197C182.88 194.489 183.016 194.88 183.016 195.373C183.016 196.006 182.784 196.534 182.318 196.962C181.865 197.365 181.319 197.567 180.676 197.567C179.578 197.567 178.799 197.03 178.343 195.96L179.634 195.361C179.814 195.674 179.95 195.876 180.043 195.96C180.226 196.13 180.447 196.214 180.701 196.214C181.213 196.214 181.468 195.981 181.468 195.513C181.468 195.243 181.269 194.991 180.875 194.759C180.723 194.681 180.571 194.61 180.419 194.535C180.267 194.461 180.112 194.389 179.953 194.312C179.513 194.098 179.202 193.88 179.025 193.666C178.796 193.393 178.681 193.039 178.681 192.611C178.681 192.04 178.877 191.572 179.268 191.199C179.668 190.827 180.152 190.641 180.72 190.641C181.558 190.641 182.181 191.075 182.591 191.941Z" fill="#7E7B7E"/>
<path d="M69.4223 193.111C69.4223 190.877 71.1167 189.04 73.2889 188.81C73.5496 188.782 73.7482 188.568 73.7482 188.307V186.815C73.7482 186.532 73.5217 186.306 73.2393 186.306H49.9774C49.695 186.306 49.4685 186.532 49.4685 186.815V188.31C49.4685 188.571 49.6671 188.785 49.9247 188.813C52.0938 189.046 53.782 190.88 53.782 193.111C53.782 195.342 52.0938 197.176 49.9247 197.409C49.664 197.437 49.4685 197.651 49.4685 197.912V199.408C49.4685 199.69 49.695 199.916 49.9774 199.916H73.2393C73.5217 199.916 73.7482 199.69 73.7482 199.408V197.915C73.7482 197.654 73.5496 197.437 73.2889 197.412C71.1167 197.183 69.4223 195.345 69.4223 193.111Z" fill="white"/>
<path d="M73.2393 200.23H49.9775C49.5244 200.23 49.1582 199.864 49.1582 199.411V197.915C49.1582 197.496 49.4747 197.148 49.8937 197.102C51.9356 196.881 53.4748 195.168 53.4748 193.111C53.4748 191.054 51.9356 189.341 49.8937 189.12C49.4747 189.074 49.1582 188.726 49.1582 188.307V186.811C49.1582 186.358 49.5244 185.992 49.9775 185.992H73.2393C73.6924 185.992 74.0586 186.358 74.0586 186.811V188.304C74.0586 188.723 73.742 189.074 73.3231 189.117C71.2781 189.331 69.7358 191.05 69.7358 193.108C69.7358 195.165 71.2781 196.885 73.3231 197.099C73.742 197.142 74.0586 197.493 74.0586 197.912V199.404C74.0586 199.857 73.6924 200.224 73.2393 200.224V200.23ZM49.9744 186.613C49.8657 186.613 49.7757 186.703 49.7757 186.811V188.307C49.7757 188.407 49.8533 188.49 49.9557 188.503C52.3142 188.757 54.0892 190.737 54.0892 193.111C54.0892 195.485 52.3111 197.465 49.9557 197.719C49.8533 197.732 49.7757 197.816 49.7757 197.915V199.411C49.7757 199.519 49.8657 199.609 49.9744 199.609H73.2362C73.3448 199.609 73.4348 199.519 73.4348 199.411V197.918C73.4348 197.819 73.3572 197.732 73.2548 197.722C70.8933 197.474 69.112 195.491 69.112 193.114C69.112 190.737 70.8933 188.754 73.2548 188.506C73.3572 188.497 73.4348 188.41 73.4348 188.31V186.818C73.4348 186.709 73.3448 186.619 73.2362 186.619H49.9744V186.613Z" fill="#7E7B7E"/>
<path d="M55.8892 200.23C55.7185 200.23 55.5789 200.09 55.5789 199.919V186.305C55.5789 186.135 55.7185 185.995 55.8892 185.995C56.0599 185.995 56.1995 186.135 56.1995 186.305V199.919C56.1995 200.09 56.0599 200.23 55.8892 200.23Z" fill="#7E7B7E"/>
<path d="M166.907 225.037H79.8057C76.3505 225.037 73.5496 227.838 73.5496 231.293V244.538C73.5496 247.993 76.3505 250.794 79.8057 250.794H166.907C170.362 250.794 173.163 247.993 173.163 244.538V231.293C173.163 227.838 170.362 225.037 166.907 225.037Z" fill="#FFB800"/>
<path d="M93.7238 243.325L95.9116 232.153L99.4772 240.228L103.17 232.153L105.134 243.325H103.527L102.525 237.053L99.4493 243.803L96.4609 237.047L95.3437 243.325H93.7207H93.7238Z" fill="#D4238B"/>
<path d="M106.739 240.001C106.739 239.055 107.077 238.248 107.753 237.584C108.43 236.92 109.255 236.588 110.23 236.588C111.204 236.588 112.039 236.923 112.719 237.59C113.392 238.257 113.727 239.08 113.727 240.054C113.727 241.029 113.389 241.86 112.712 242.524C112.03 243.182 111.195 243.514 110.202 243.514C109.209 243.514 108.396 243.179 107.732 242.506C107.068 241.842 106.736 241.007 106.736 240.001H106.739ZM108.287 240.029C108.287 240.684 108.461 241.202 108.812 241.584C109.172 241.969 109.643 242.161 110.233 242.161C110.823 242.161 111.297 241.972 111.654 241.59C112.008 241.209 112.185 240.7 112.185 240.064C112.185 239.427 112.008 238.918 111.654 238.537C111.294 238.152 110.823 237.96 110.233 237.96C109.643 237.96 109.184 238.152 108.827 238.537C108.467 238.922 108.29 239.421 108.29 240.029H108.287Z" fill="#D4238B"/>
<path d="M120.163 231.961H121.684V243.328H120.163V242.642C119.567 243.226 118.891 243.517 118.137 243.517C117.24 243.517 116.495 243.188 115.903 242.534C115.316 241.866 115.021 241.032 115.021 240.029C115.021 239.027 115.316 238.236 115.903 237.581C116.486 236.923 117.218 236.591 118.103 236.591C118.869 236.591 119.555 236.904 120.163 237.534V231.961ZM116.57 240.029C116.57 240.656 116.737 241.168 117.076 241.562C117.42 241.963 117.858 242.161 118.382 242.161C118.944 242.161 119.397 241.969 119.741 241.584C120.086 241.184 120.259 240.678 120.259 240.063C120.259 239.449 120.086 238.943 119.741 238.543C119.397 238.152 118.947 237.956 118.394 237.956C117.873 237.956 117.439 238.155 117.088 238.549C116.744 238.949 116.57 239.443 116.57 240.029Z" fill="#D4238B"/>
<path d="M123.366 234.046C123.366 233.782 123.462 233.553 123.655 233.36C123.847 233.168 124.08 233.072 124.347 233.072C124.613 233.072 124.852 233.168 125.048 233.36C125.24 233.55 125.337 233.779 125.337 234.052C125.337 234.325 125.24 234.558 125.048 234.751C124.859 234.943 124.629 235.039 124.356 235.039C124.083 235.039 123.85 234.943 123.658 234.751C123.465 234.558 123.369 234.322 123.369 234.043L123.366 234.046ZM125.11 236.771V243.325H123.596V236.771H125.11Z" fill="#D4238B"/>
<path d="M128.595 238.186V243.328H127.074V238.186H126.534V236.774H127.074V234.245C127.074 233.419 127.217 232.836 127.506 232.495C127.9 232.02 128.474 231.781 129.228 231.781C129.498 231.781 129.836 231.858 130.243 232.017V233.565L130.088 233.484C129.759 233.32 129.492 233.236 129.281 233.236C129.011 233.236 128.831 233.332 128.735 233.525C128.642 233.714 128.592 234.077 128.592 234.614V236.774H130.24V238.186H128.592H128.595Z" fill="#D4238B"/>
<path d="M131.18 234.046C131.18 233.782 131.276 233.553 131.469 233.36C131.661 233.168 131.894 233.072 132.161 233.072C132.427 233.072 132.666 233.168 132.862 233.36C133.054 233.55 133.15 233.779 133.15 234.052C133.15 234.325 133.054 234.558 132.862 234.751C132.673 234.943 132.443 235.039 132.17 235.039C131.897 235.039 131.664 234.943 131.472 234.751C131.279 234.558 131.183 234.322 131.183 234.043L131.18 234.046ZM132.921 236.771V243.325H131.406V236.771H132.921Z" fill="#D4238B"/>
<path d="M139.94 237.053V239.064C139.596 238.642 139.286 238.354 139.012 238.195C138.743 238.034 138.426 237.953 138.063 237.953C137.492 237.953 137.02 238.152 136.642 238.552C136.266 238.953 136.077 239.452 136.077 240.054C136.077 240.656 136.26 241.174 136.623 241.569C136.989 241.963 137.461 242.161 138.029 242.161C138.392 242.161 138.711 242.084 138.991 241.925C139.261 241.773 139.577 241.475 139.94 241.038V243.036C139.326 243.356 138.711 243.514 138.097 243.514C137.082 243.514 136.235 243.185 135.552 242.531C134.87 241.87 134.528 241.053 134.528 240.073C134.528 239.092 134.873 238.27 135.565 237.596C136.257 236.923 137.104 236.588 138.109 236.588C138.755 236.588 139.366 236.743 139.94 237.053Z" fill="#D4238B"/>
<path d="M146.24 236.771H147.76V243.325H146.24V242.639C145.616 243.222 144.946 243.514 144.229 243.514C143.323 243.514 142.575 243.185 141.982 242.53C141.396 241.863 141.101 241.028 141.101 240.026C141.101 239.024 141.396 238.226 141.982 237.568C142.569 236.913 143.304 236.584 144.189 236.584C144.952 236.584 145.635 236.898 146.24 237.528V236.768V236.771ZM142.646 240.029C142.646 240.656 142.814 241.168 143.152 241.562C143.497 241.962 143.934 242.161 144.459 242.161C145.02 242.161 145.473 241.969 145.818 241.584C146.162 241.183 146.336 240.678 146.336 240.063C146.336 239.449 146.162 238.943 145.818 238.543C145.473 238.152 145.023 237.956 144.471 237.956C143.95 237.956 143.515 238.155 143.164 238.549C142.82 238.949 142.646 239.443 142.646 240.029Z" fill="#D4238B"/>
<path d="M149.672 236.771H151.186V237.357C151.466 237.066 151.711 236.867 151.928 236.758C152.148 236.647 152.409 236.591 152.71 236.591C153.11 236.591 153.526 236.721 153.961 236.982L153.269 238.369C152.98 238.164 152.701 238.059 152.428 238.059C151.602 238.059 151.19 238.682 151.19 239.93V243.328H149.675V236.774L149.672 236.771Z" fill="#D4238B"/>
<path d="M236.566 0H231.265C230.536 0 229.946 0.589615 229.946 1.31888V8.89387C229.946 9.499 229.537 10.0328 228.95 10.1724C226.654 10.7124 224.497 11.6154 222.548 12.8226C222.033 13.1422 221.366 13.0522 220.938 12.6271L215.581 7.27088C215.066 6.75574 214.232 6.75574 213.716 7.27088L209.968 11.0196C209.453 11.5347 209.453 12.3695 209.968 12.8846L215.324 18.2408C215.752 18.6691 215.839 19.3363 215.519 19.8514C214.312 21.8002 213.409 23.957 212.869 26.2534C212.73 26.843 212.196 27.2495 211.591 27.2495H204.006C203.277 27.2495 202.688 27.8391 202.688 28.5684V33.8687C202.688 34.598 203.277 35.1876 204.006 35.1876H211.591C212.199 35.1876 212.73 35.6034 212.869 36.193C213.456 38.6849 214.47 41.0093 215.836 43.0853C216.177 43.6067 216.106 44.2956 215.665 44.7331L210.849 49.5494C210.334 50.0645 210.334 50.8993 210.849 51.4144L214.598 55.1631C215.113 55.6782 215.948 55.6782 216.463 55.1631L221.49 50.1359C221.909 49.7169 222.558 49.6238 223.07 49.9217C224.876 50.9706 226.846 51.7651 228.938 52.2585C229.527 52.3981 229.94 52.9288 229.94 53.537V61.112C229.94 61.8413 230.53 62.4309 231.259 62.4309H236.559C237.289 62.4309 237.878 61.8413 237.878 61.112V53.537C237.878 52.9319 238.288 52.3981 238.874 52.2585C241.171 51.7185 243.327 50.8155 245.276 49.6083C245.791 49.2887 246.459 49.3787 246.887 49.8038L252.243 55.16C252.758 55.6751 253.593 55.6751 254.108 55.16L257.857 51.4113C258.372 50.8962 258.372 50.0614 257.857 49.5463L252.501 44.1901C252.072 43.7618 251.986 43.0946 252.305 42.5795C253.512 40.6307 254.415 38.4739 254.955 36.1775C255.095 35.5879 255.629 35.1814 256.234 35.1814H263.8C264.529 35.1814 265.118 34.5918 265.118 33.8625V28.5622C265.118 27.8329 264.529 27.2433 263.8 27.2433H256.231C255.626 27.2433 255.092 26.8306 254.952 26.241C254.462 24.1525 253.664 22.1788 252.615 20.3727C252.318 19.8607 252.411 19.2121 252.83 18.7932L258.741 12.8815C259.256 12.3664 259.256 11.5316 258.741 11.0165L254.993 7.26778C254.477 6.75264 253.643 6.75264 253.127 7.26778L247.424 12.9715C246.983 13.4122 246.294 13.4836 245.776 13.1422C243.7 11.7768 241.376 10.762 238.884 10.1755C238.291 10.0359 237.878 9.50521 237.878 8.89698V1.31888C237.884 0.589615 237.292 0 236.566 0Z" fill="#7E7B7E"/>
<path d="M233.915 44.3047C241.146 44.3047 247.008 38.443 247.008 31.2122C247.008 23.9814 241.146 18.1196 233.915 18.1196C226.684 18.1196 220.823 23.9814 220.823 31.2122C220.823 38.443 226.684 44.3047 233.915 44.3047Z" fill="#A8A8A8"/>
<path d="M233.915 37.2918C237.273 37.2918 239.995 34.57 239.995 31.2125C239.995 27.8551 237.273 25.1333 233.915 25.1333C230.558 25.1333 227.836 27.8551 227.836 31.2125C227.836 34.57 230.558 37.2918 233.915 37.2918Z" fill="white"/>
</g>
<defs>
<clipPath id="clip0_233_1012">
<rect width="253.118" height="266" fill="white" transform="translate(12)"/>
</clipPath>
</defs>
</svg>
