<svg width="307" height="451" viewBox="0 0 307 451" fill="none" xmlns="http://www.w3.org/2000/svg">
<rect x="40" y="371" width="245" height="79" fill="white" stroke="#D4238B" stroke-width="2"/>
<circle cx="39" cy="370" r="17" fill="white" stroke="#D4238B" stroke-width="2"/>
<path d="M75.5329 393.909C75.5329 395.85 75.1778 397.519 74.4676 398.916C73.7573 400.307 72.7837 401.378 71.5467 402.13C70.3157 402.876 68.9159 403.249 67.3475 403.249C65.7732 403.249 64.3675 402.876 63.1305 402.13C61.8995 401.378 60.9288 400.304 60.2186 398.907C59.5084 397.511 59.1533 395.844 59.1533 393.909C59.1533 391.968 59.5084 390.302 60.2186 388.911C60.9288 387.514 61.8995 386.443 63.1305 385.697C64.3675 384.945 65.7732 384.57 67.3475 384.57C68.9159 384.57 70.3157 384.945 71.5467 385.697C72.7837 386.443 73.7573 387.514 74.4676 388.911C75.1778 390.302 75.5329 391.968 75.5329 393.909ZM72.8163 393.909C72.8163 392.429 72.5766 391.184 72.0972 390.172C71.6237 389.154 70.9726 388.384 70.144 387.863C69.3214 387.337 68.3892 387.073 67.3475 387.073C66.2999 387.073 65.3648 387.337 64.5421 387.863C63.7194 388.384 63.0684 389.154 62.589 390.172C62.1155 391.184 61.8788 392.429 61.8788 393.909C61.8788 395.389 62.1155 396.638 62.589 397.656C63.0684 398.668 63.7194 399.437 64.5421 399.964C65.3648 400.485 66.2999 400.745 67.3475 400.745C68.3892 400.745 69.3214 400.485 70.144 399.964C70.9726 399.437 71.6237 398.668 72.0972 397.656C72.5766 396.638 72.8163 395.389 72.8163 393.909ZM78.9531 403V384.818H81.6076V391.574H81.7674C81.9212 391.29 82.1432 390.962 82.4332 390.589C82.7232 390.216 83.1257 389.89 83.6406 389.612C84.1555 389.328 84.8361 389.186 85.6825 389.186C86.7833 389.186 87.7658 389.464 88.6299 390.021C89.494 390.577 90.1717 391.379 90.663 392.426C91.1601 393.474 91.4087 394.735 91.4087 396.208C91.4087 397.682 91.1631 398.946 90.6718 399.999C90.1806 401.047 89.5059 401.855 88.6477 402.423C87.7895 402.985 86.81 403.266 85.7091 403.266C84.8805 403.266 84.2028 403.127 83.6761 402.849C83.1553 402.571 82.7469 402.245 82.4509 401.873C82.155 401.5 81.9272 401.168 81.7674 400.878H81.5454V403H78.9531ZM81.5543 396.182C81.5543 397.141 81.6934 397.981 81.9715 398.703C82.2497 399.425 82.6522 399.99 83.1789 400.399C83.7057 400.801 84.3508 401.002 85.1143 401.002C85.9074 401.002 86.5703 400.792 87.1029 400.372C87.6356 399.946 88.0381 399.369 88.3103 398.641C88.5885 397.913 88.7276 397.093 88.7276 396.182C88.7276 395.282 88.5915 394.474 88.3192 393.758C88.0529 393.042 87.6504 392.477 87.1118 392.062C86.5791 391.648 85.9133 391.441 85.1143 391.441C84.3449 391.441 83.6938 391.639 83.1612 392.036C82.6344 392.432 82.2349 392.986 81.9627 393.696C81.6904 394.406 81.5543 395.235 81.5543 396.182ZM100.755 389.364V391.494H93.3063V389.364H100.755ZM95.3038 386.097H97.9583V398.996C97.9583 399.511 98.0353 399.899 98.1891 400.159C98.343 400.414 98.5413 400.588 98.784 400.683C99.0325 400.772 99.3018 400.816 99.5918 400.816C99.8049 400.816 99.9913 400.801 100.151 400.772C100.311 400.742 100.435 400.718 100.524 400.701L101.003 402.893C100.85 402.953 100.631 403.012 100.346 403.071C100.062 403.136 99.7073 403.172 99.2811 403.178C98.5827 403.189 97.9317 403.065 97.328 402.805C96.7243 402.544 96.236 402.142 95.8631 401.597C95.4903 401.053 95.3038 400.369 95.3038 399.547V386.097ZM109.422 403.275C108.078 403.275 106.921 402.988 105.951 402.414C104.986 401.834 104.24 401.02 103.713 399.973C103.193 398.919 102.932 397.685 102.932 396.271C102.932 394.874 103.193 393.643 103.713 392.577C104.24 391.512 104.974 390.681 105.915 390.083C106.862 389.485 107.969 389.186 109.235 389.186C110.005 389.186 110.751 389.313 111.473 389.568C112.195 389.822 112.843 390.222 113.417 390.766C113.991 391.311 114.444 392.018 114.775 392.888C115.107 393.752 115.272 394.803 115.272 396.04V396.981H104.432V394.992H112.671C112.671 394.294 112.529 393.675 112.245 393.137C111.961 392.592 111.561 392.163 111.046 391.849C110.537 391.536 109.94 391.379 109.253 391.379C108.507 391.379 107.856 391.562 107.3 391.929C106.75 392.29 106.323 392.764 106.022 393.35C105.726 393.93 105.578 394.56 105.578 395.241V396.794C105.578 397.706 105.738 398.481 106.057 399.12C106.383 399.76 106.835 400.248 107.415 400.585C107.995 400.917 108.673 401.082 109.448 401.082C109.952 401.082 110.41 401.011 110.825 400.869C111.239 400.721 111.597 400.502 111.899 400.212C112.201 399.922 112.431 399.564 112.591 399.138L115.104 399.591C114.902 400.331 114.541 400.979 114.021 401.535C113.506 402.086 112.858 402.515 112.076 402.822C111.301 403.124 110.416 403.275 109.422 403.275ZM108.037 387.544L110.114 383.451H112.911L110.159 387.544H108.037ZM120.872 394.903V403H118.218V389.364H120.765V391.583H120.934C121.248 390.861 121.739 390.281 122.408 389.843C123.083 389.405 123.932 389.186 124.956 389.186C125.885 389.186 126.699 389.381 127.397 389.772C128.096 390.157 128.637 390.731 129.022 391.494C129.407 392.258 129.599 393.202 129.599 394.326V403H126.944V394.646C126.944 393.658 126.687 392.885 126.172 392.329C125.657 391.767 124.95 391.485 124.05 391.485C123.435 391.485 122.887 391.619 122.408 391.885C121.934 392.151 121.559 392.542 121.28 393.057C121.008 393.566 120.872 394.181 120.872 394.903ZM139.988 403V384.818H142.643V391.574H142.803C142.956 391.29 143.178 390.962 143.468 390.589C143.758 390.216 144.161 389.89 144.676 389.612C145.191 389.328 145.871 389.186 146.718 389.186C147.818 389.186 148.801 389.464 149.665 390.021C150.529 390.577 151.207 391.379 151.698 392.426C152.195 393.474 152.444 394.735 152.444 396.208C152.444 397.682 152.198 398.946 151.707 399.999C151.216 401.047 150.541 401.855 149.683 402.423C148.825 402.985 147.845 403.266 146.744 403.266C145.916 403.266 145.238 403.127 144.711 402.849C144.19 402.571 143.782 402.245 143.486 401.873C143.19 401.5 142.962 401.168 142.803 400.878H142.581V403H139.988ZM142.589 396.182C142.589 397.141 142.729 397.981 143.007 398.703C143.285 399.425 143.687 399.99 144.214 400.399C144.741 400.801 145.386 401.002 146.149 401.002C146.943 401.002 147.605 400.792 148.138 400.372C148.671 399.946 149.073 399.369 149.345 398.641C149.624 397.913 149.763 397.093 149.763 396.182C149.763 395.282 149.627 394.474 149.354 393.758C149.088 393.042 148.686 392.477 148.147 392.062C147.614 391.648 146.948 391.441 146.149 391.441C145.38 391.441 144.729 391.639 144.196 392.036C143.67 392.432 143.27 392.986 142.998 393.696C142.726 394.406 142.589 395.235 142.589 396.182ZM161.302 403.275C159.958 403.275 158.801 402.988 157.83 402.414C156.866 401.834 156.12 401.02 155.593 399.973C155.072 398.919 154.812 397.685 154.812 396.271C154.812 394.874 155.072 393.643 155.593 392.577C156.12 391.512 156.854 390.681 157.795 390.083C158.742 389.485 159.849 389.186 161.115 389.186C161.885 389.186 162.63 389.313 163.352 389.568C164.075 389.822 164.723 390.222 165.297 390.766C165.871 391.311 166.324 392.018 166.655 392.888C166.986 393.752 167.152 394.803 167.152 396.04V396.981H156.312V394.992H164.551C164.551 394.294 164.409 393.675 164.125 393.137C163.841 392.592 163.441 392.163 162.926 391.849C162.417 391.536 161.82 391.379 161.133 391.379C160.387 391.379 159.736 391.562 159.18 391.929C158.629 392.29 158.203 392.764 157.902 393.35C157.606 393.93 157.458 394.56 157.458 395.241V396.794C157.458 397.706 157.617 398.481 157.937 399.12C158.263 399.76 158.715 400.248 159.295 400.585C159.875 400.917 160.553 401.082 161.328 401.082C161.831 401.082 162.29 401.011 162.704 400.869C163.119 400.721 163.477 400.502 163.779 400.212C164.08 399.922 164.311 399.564 164.471 399.138L166.984 399.591C166.782 400.331 166.421 400.979 165.9 401.535C165.386 402.086 164.737 402.515 163.956 402.822C163.181 403.124 162.296 403.275 161.302 403.275ZM172.752 394.903V403H170.097V389.364H172.645V391.583H172.814C173.128 390.861 173.619 390.281 174.288 389.843C174.962 389.405 175.812 389.186 176.836 389.186C177.765 389.186 178.579 389.381 179.277 389.772C179.976 390.157 180.517 390.731 180.902 391.494C181.286 392.258 181.479 393.202 181.479 394.326V403H178.824V394.646C178.824 393.658 178.567 392.885 178.052 392.329C177.537 391.767 176.83 391.485 175.93 391.485C175.315 391.485 174.767 391.619 174.288 391.885C173.814 392.151 173.438 392.542 173.16 393.057C172.888 393.566 172.752 394.181 172.752 394.903ZM190.916 403.275C189.572 403.275 188.415 402.988 187.445 402.414C186.48 401.834 185.734 401.02 185.208 399.973C184.687 398.919 184.426 397.685 184.426 396.271C184.426 394.874 184.687 393.643 185.208 392.577C185.734 391.512 186.468 390.681 187.409 390.083C188.356 389.485 189.463 389.186 190.73 389.186C191.499 389.186 192.245 389.313 192.967 389.568C193.689 389.822 194.337 390.222 194.911 390.766C195.485 391.311 195.938 392.018 196.269 392.888C196.601 393.752 196.766 394.803 196.766 396.04V396.981H185.927V394.992H194.165C194.165 394.294 194.023 393.675 193.739 393.137C193.455 392.592 193.056 392.163 192.541 391.849C192.032 391.536 191.434 391.379 190.747 391.379C190.002 391.379 189.351 391.562 188.794 391.929C188.244 392.29 187.818 392.764 187.516 393.35C187.22 393.93 187.072 394.56 187.072 395.241V396.794C187.072 397.706 187.232 398.481 187.551 399.12C187.877 399.76 188.33 400.248 188.91 400.585C189.49 400.917 190.167 401.082 190.943 401.082C191.446 401.082 191.904 401.011 192.319 400.869C192.733 400.721 193.091 400.502 193.393 400.212C193.695 399.922 193.926 399.564 194.085 399.138L196.598 399.591C196.397 400.331 196.036 400.979 195.515 401.535C195 402.086 194.352 402.515 193.57 402.822C192.795 403.124 191.91 403.275 190.916 403.275ZM206.201 389.364V391.494H198.495V389.364H206.201ZM200.608 403V387.783C200.608 386.931 200.795 386.224 201.168 385.662C201.541 385.093 202.035 384.67 202.65 384.392C203.266 384.108 203.935 383.966 204.657 383.966C205.189 383.966 205.645 384.01 206.024 384.099C206.403 384.182 206.684 384.259 206.867 384.33L206.246 386.478C206.121 386.443 205.962 386.401 205.766 386.354C205.571 386.301 205.334 386.274 205.056 386.274C204.411 386.274 203.949 386.434 203.671 386.754C203.399 387.073 203.263 387.535 203.263 388.138V403H200.608ZM208.94 403V389.364H211.595V403H208.94ZM210.281 387.26C209.819 387.26 209.423 387.106 209.091 386.798C208.766 386.484 208.603 386.111 208.603 385.679C208.603 385.241 208.766 384.868 209.091 384.561C209.423 384.247 209.819 384.09 210.281 384.09C210.742 384.09 211.136 384.247 211.462 384.561C211.793 384.868 211.959 385.241 211.959 385.679C211.959 386.111 211.793 386.484 211.462 386.798C211.136 387.106 210.742 387.26 210.281 387.26ZM220.91 403.275C219.59 403.275 218.454 402.976 217.501 402.379C216.554 401.775 215.826 400.943 215.317 399.884C214.808 398.824 214.553 397.611 214.553 396.244C214.553 394.859 214.814 393.637 215.334 392.577C215.855 391.512 216.589 390.681 217.536 390.083C218.483 389.485 219.599 389.186 220.883 389.186C221.919 389.186 222.842 389.378 223.653 389.763C224.464 390.142 225.118 390.675 225.615 391.361C226.118 392.048 226.417 392.85 226.512 393.767H223.928C223.786 393.128 223.461 392.577 222.952 392.116C222.449 391.654 221.774 391.423 220.928 391.423C220.188 391.423 219.54 391.619 218.983 392.009C218.433 392.394 218.004 392.944 217.696 393.661C217.388 394.371 217.234 395.211 217.234 396.182C217.234 397.176 217.385 398.034 217.687 398.756C217.989 399.478 218.415 400.038 218.966 400.434C219.522 400.831 220.176 401.029 220.928 401.029C221.431 401.029 221.886 400.937 222.295 400.754C222.709 400.565 223.055 400.295 223.333 399.946C223.617 399.597 223.816 399.177 223.928 398.685H226.512C226.417 399.567 226.13 400.354 225.651 401.047C225.171 401.739 224.529 402.284 223.724 402.68C222.925 403.077 221.987 403.275 220.91 403.275ZM229.35 403V389.364H232.005V403H229.35ZM230.691 387.26C230.229 387.26 229.833 387.106 229.501 386.798C229.176 386.484 229.013 386.111 229.013 385.679C229.013 385.241 229.176 384.868 229.501 384.561C229.833 384.247 230.229 384.09 230.691 384.09C231.153 384.09 231.546 384.247 231.872 384.561C232.203 384.868 232.369 385.241 232.369 385.679C232.369 386.111 232.203 386.484 231.872 386.798C231.546 387.106 231.153 387.26 230.691 387.26ZM241.32 403.275C240.042 403.275 238.926 402.982 237.973 402.396C237.02 401.81 236.28 400.991 235.754 399.937C235.227 398.884 234.963 397.653 234.963 396.244C234.963 394.829 235.227 393.592 235.754 392.533C236.28 391.474 237.02 390.651 237.973 390.065C238.926 389.479 240.042 389.186 241.32 389.186C242.598 389.186 243.714 389.479 244.667 390.065C245.62 390.651 246.36 391.474 246.886 392.533C247.413 393.592 247.676 394.829 247.676 396.244C247.676 397.653 247.413 398.884 246.886 399.937C246.36 400.991 245.62 401.81 244.667 402.396C243.714 402.982 242.598 403.275 241.32 403.275ZM241.329 401.047C242.157 401.047 242.844 400.828 243.388 400.39C243.933 399.952 244.335 399.369 244.596 398.641C244.862 397.913 244.995 397.111 244.995 396.235C244.995 395.365 244.862 394.566 244.596 393.838C244.335 393.104 243.933 392.515 243.388 392.071C242.844 391.627 242.157 391.406 241.329 391.406C240.494 391.406 239.802 391.627 239.251 392.071C238.707 392.515 238.301 393.104 238.035 393.838C237.775 394.566 237.644 395.365 237.644 396.235C237.644 397.111 237.775 397.913 238.035 398.641C238.301 399.369 238.707 399.952 239.251 400.39C239.802 400.828 240.494 401.047 241.329 401.047ZM260.858 392.693L258.452 393.119C258.351 392.811 258.192 392.518 257.973 392.24C257.759 391.962 257.469 391.734 257.102 391.556C256.736 391.379 256.277 391.29 255.726 391.29C254.975 391.29 254.347 391.459 253.844 391.796C253.341 392.128 253.09 392.557 253.09 393.083C253.09 393.539 253.258 393.906 253.596 394.184C253.933 394.462 254.478 394.69 255.229 394.868L257.395 395.365C258.65 395.655 259.585 396.102 260.201 396.706C260.816 397.309 261.124 398.094 261.124 399.058C261.124 399.875 260.887 400.603 260.414 401.242C259.946 401.875 259.292 402.373 258.452 402.734C257.617 403.095 256.65 403.275 255.549 403.275C254.022 403.275 252.776 402.95 251.811 402.299C250.847 401.642 250.255 400.71 250.036 399.502L252.601 399.112C252.761 399.78 253.09 400.286 253.587 400.63C254.084 400.967 254.732 401.136 255.531 401.136C256.401 401.136 257.097 400.955 257.617 400.594C258.138 400.227 258.399 399.78 258.399 399.254C258.399 398.827 258.239 398.469 257.919 398.179C257.606 397.889 257.123 397.67 256.472 397.522L254.164 397.016C252.891 396.726 251.95 396.265 251.341 395.631C250.737 394.998 250.435 394.196 250.435 393.225C250.435 392.421 250.66 391.716 251.11 391.113C251.56 390.509 252.181 390.038 252.974 389.701C253.767 389.358 254.676 389.186 255.7 389.186C257.174 389.186 258.334 389.506 259.18 390.145C260.026 390.778 260.586 391.627 260.858 392.693ZM85.3129 433.275C83.9694 433.275 82.8124 432.988 81.8417 432.414C80.877 431.834 80.1312 431.02 79.6045 429.973C79.0837 428.919 78.8232 427.685 78.8232 426.271C78.8232 424.874 79.0837 423.643 79.6045 422.577C80.1312 421.512 80.8651 420.681 81.8062 420.083C82.7532 419.485 83.8599 419.186 85.1265 419.186C85.8959 419.186 86.6417 419.313 87.3637 419.568C88.0858 419.822 88.7339 420.222 89.308 420.766C89.8821 421.311 90.3348 422.018 90.6663 422.888C90.9977 423.752 91.1634 424.803 91.1634 426.04V426.981H80.3236V424.992H88.5622C88.5622 424.294 88.4202 423.675 88.1361 423.137C87.852 422.592 87.4525 422.163 86.9376 421.849C86.4286 421.536 85.8308 421.379 85.1443 421.379C84.3985 421.379 83.7475 421.562 83.1911 421.929C82.6407 422.29 82.2146 422.764 81.9127 423.35C81.6168 423.93 81.4688 424.56 81.4688 425.241V426.794C81.4688 427.706 81.6286 428.481 81.9482 429.12C82.2738 429.76 82.7265 430.248 83.3066 430.585C83.8866 430.917 84.5642 431.082 85.3396 431.082C85.8427 431.082 86.3013 431.011 86.7156 430.869C87.1299 430.721 87.488 430.502 87.7899 430.212C88.0917 429.922 88.3225 429.564 88.4823 429.138L90.9948 429.591C90.7935 430.331 90.4325 430.979 89.9117 431.535C89.3968 432.086 88.7487 432.515 87.9674 432.822C87.1921 433.124 86.3073 433.275 85.3129 433.275ZM96.7631 424.903V433H94.1087V419.364H96.6566V421.583H96.8253C97.139 420.861 97.6302 420.281 98.299 419.843C98.9737 419.405 99.823 419.186 100.847 419.186C101.776 419.186 102.59 419.381 103.288 419.772C103.987 420.157 104.528 420.731 104.913 421.494C105.298 422.258 105.49 423.202 105.49 424.326V433H102.836V424.646C102.836 423.658 102.578 422.885 102.063 422.329C101.548 421.767 100.841 421.485 99.9414 421.485C99.3259 421.485 98.7784 421.619 98.299 421.885C97.8255 422.151 97.4497 422.542 97.1715 423.057C96.8993 423.566 96.7631 424.181 96.7631 424.903ZM121.41 433.275C120.09 433.275 118.954 432.976 118.001 432.379C117.054 431.775 116.326 430.943 115.817 429.884C115.308 428.824 115.054 427.611 115.054 426.244C115.054 424.859 115.314 423.637 115.835 422.577C116.356 421.512 117.09 420.681 118.037 420.083C118.984 419.485 120.099 419.186 121.384 419.186C122.419 419.186 123.343 419.378 124.153 419.763C124.964 420.142 125.618 420.675 126.116 421.361C126.619 422.048 126.917 422.85 127.012 423.767H124.429C124.287 423.128 123.961 422.577 123.452 422.116C122.949 421.654 122.274 421.423 121.428 421.423C120.688 421.423 120.04 421.619 119.484 422.009C118.933 422.394 118.504 422.944 118.196 423.661C117.889 424.371 117.735 425.211 117.735 426.182C117.735 427.176 117.886 428.034 118.188 428.756C118.489 429.478 118.916 430.038 119.466 430.434C120.022 430.831 120.676 431.029 121.428 431.029C121.931 431.029 122.387 430.937 122.795 430.754C123.209 430.565 123.556 430.295 123.834 429.946C124.118 429.597 124.316 429.177 124.429 428.685H127.012C126.917 429.567 126.63 430.354 126.151 431.047C125.672 431.739 125.029 432.284 124.225 432.68C123.426 433.077 122.487 433.275 121.41 433.275ZM133.819 433.302C132.955 433.302 132.174 433.142 131.475 432.822C130.777 432.497 130.224 432.026 129.815 431.411C129.413 430.795 129.212 430.041 129.212 429.147C129.212 428.378 129.36 427.744 129.656 427.247C129.951 426.75 130.351 426.356 130.854 426.066C131.357 425.776 131.919 425.557 132.541 425.409C133.162 425.261 133.796 425.149 134.441 425.072C135.257 424.977 135.92 424.9 136.429 424.841C136.938 424.776 137.308 424.673 137.539 424.531C137.77 424.388 137.885 424.158 137.885 423.838V423.776C137.885 423.001 137.666 422.4 137.228 421.974C136.796 421.548 136.151 421.335 135.293 421.335C134.399 421.335 133.695 421.533 133.18 421.929C132.671 422.32 132.319 422.755 132.124 423.234L129.629 422.666C129.925 421.838 130.357 421.169 130.925 420.66C131.499 420.145 132.159 419.772 132.905 419.541C133.651 419.304 134.435 419.186 135.257 419.186C135.802 419.186 136.379 419.251 136.989 419.381C137.604 419.506 138.178 419.737 138.711 420.074C139.25 420.411 139.69 420.894 140.034 421.521C140.377 422.142 140.549 422.95 140.549 423.945V433H137.956V431.136H137.85C137.678 431.479 137.421 431.816 137.077 432.148C136.734 432.479 136.293 432.754 135.755 432.973C135.216 433.192 134.571 433.302 133.819 433.302ZM134.396 431.171C135.13 431.171 135.758 431.026 136.278 430.736C136.805 430.446 137.205 430.067 137.477 429.6C137.755 429.126 137.894 428.62 137.894 428.082V426.324C137.799 426.419 137.616 426.507 137.344 426.59C137.077 426.667 136.773 426.735 136.429 426.794C136.086 426.848 135.752 426.898 135.426 426.945C135.101 426.987 134.828 427.022 134.609 427.052C134.094 427.117 133.624 427.226 133.198 427.38C132.778 427.534 132.44 427.756 132.186 428.046C131.937 428.33 131.813 428.709 131.813 429.183C131.813 429.839 132.056 430.337 132.541 430.674C133.026 431.005 133.645 431.171 134.396 431.171ZM149.189 433.266C148.088 433.266 147.106 432.985 146.242 432.423C145.383 431.855 144.709 431.047 144.217 429.999C143.732 428.946 143.489 427.682 143.489 426.208C143.489 424.735 143.735 423.474 144.226 422.426C144.723 421.379 145.404 420.577 146.268 420.021C147.132 419.464 148.112 419.186 149.207 419.186C150.053 419.186 150.734 419.328 151.249 419.612C151.77 419.89 152.172 420.216 152.456 420.589C152.746 420.962 152.971 421.29 153.131 421.574H153.291V414.818H155.945V433H153.353V430.878H153.131C152.971 431.168 152.74 431.5 152.438 431.873C152.142 432.245 151.734 432.571 151.213 432.849C150.692 433.127 150.018 433.266 149.189 433.266ZM149.775 431.002C150.538 431.002 151.184 430.801 151.71 430.399C152.243 429.99 152.645 429.425 152.918 428.703C153.196 427.981 153.335 427.141 153.335 426.182C153.335 425.235 153.199 424.406 152.927 423.696C152.654 422.986 152.255 422.432 151.728 422.036C151.201 421.639 150.55 421.441 149.775 421.441C148.976 421.441 148.31 421.648 147.777 422.062C147.245 422.477 146.842 423.042 146.57 423.758C146.304 424.474 146.171 425.282 146.171 426.182C146.171 427.093 146.307 427.913 146.579 428.641C146.851 429.369 147.254 429.946 147.786 430.372C148.325 430.792 148.988 431.002 149.775 431.002ZM163.702 433.302C162.838 433.302 162.057 433.142 161.358 432.822C160.66 432.497 160.107 432.026 159.698 431.411C159.296 430.795 159.094 430.041 159.094 429.147C159.094 428.378 159.242 427.744 159.538 427.247C159.834 426.75 160.234 426.356 160.737 426.066C161.24 425.776 161.802 425.557 162.424 425.409C163.045 425.261 163.678 425.149 164.324 425.072C165.14 424.977 165.803 424.9 166.312 424.841C166.821 424.776 167.191 424.673 167.422 424.531C167.653 424.388 167.768 424.158 167.768 423.838V423.776C167.768 423.001 167.549 422.4 167.111 421.974C166.679 421.548 166.034 421.335 165.176 421.335C164.282 421.335 163.578 421.533 163.063 421.929C162.554 422.32 162.202 422.755 162.006 423.234L159.512 422.666C159.808 421.838 160.24 421.169 160.808 420.66C161.382 420.145 162.042 419.772 162.788 419.541C163.533 419.304 164.318 419.186 165.14 419.186C165.685 419.186 166.262 419.251 166.871 419.381C167.487 419.506 168.061 419.737 168.594 420.074C169.132 420.411 169.573 420.894 169.917 421.521C170.26 422.142 170.431 422.95 170.431 423.945V433H167.839V431.136H167.733C167.561 431.479 167.304 431.816 166.96 432.148C166.617 432.479 166.176 432.754 165.637 432.973C165.099 433.192 164.454 433.302 163.702 433.302ZM164.279 431.171C165.013 431.171 165.64 431.026 166.161 430.736C166.688 430.446 167.087 430.067 167.36 429.6C167.638 429.126 167.777 428.62 167.777 428.082V426.324C167.682 426.419 167.499 426.507 167.227 426.59C166.96 426.667 166.655 426.735 166.312 426.794C165.969 426.848 165.634 426.898 165.309 426.945C164.983 426.987 164.711 427.022 164.492 427.052C163.977 427.117 163.507 427.226 163.081 427.38C162.66 427.534 162.323 427.756 162.069 428.046C161.82 428.33 161.696 428.709 161.696 429.183C161.696 429.839 161.938 430.337 162.424 430.674C162.909 431.005 163.527 431.171 164.279 431.171ZM192.249 419.364L187.304 433H184.463L179.509 419.364H182.359L185.812 429.857H185.954L189.399 419.364H192.249ZM194.743 433V419.364H197.398V433H194.743ZM196.084 417.26C195.622 417.26 195.226 417.106 194.894 416.798C194.569 416.484 194.406 416.111 194.406 415.679C194.406 415.241 194.569 414.868 194.894 414.561C195.226 414.247 195.622 414.09 196.084 414.09C196.546 414.09 196.939 414.247 197.265 414.561C197.596 414.868 197.762 415.241 197.762 415.679C197.762 416.111 197.596 416.484 197.265 416.798C196.939 417.106 196.546 417.26 196.084 417.26ZM211.187 422.693L208.782 423.119C208.681 422.811 208.521 422.518 208.302 422.24C208.089 421.962 207.799 421.734 207.432 421.556C207.065 421.379 206.606 421.29 206.056 421.29C205.304 421.29 204.677 421.459 204.174 421.796C203.671 422.128 203.419 422.557 203.419 423.083C203.419 423.539 203.588 423.906 203.925 424.184C204.263 424.462 204.807 424.69 205.559 424.868L207.725 425.365C208.98 425.655 209.915 426.102 210.53 426.706C211.146 427.309 211.454 428.094 211.454 429.058C211.454 429.875 211.217 430.603 210.744 431.242C210.276 431.875 209.622 432.373 208.782 432.734C207.947 433.095 206.979 433.275 205.878 433.275C204.351 433.275 203.106 432.95 202.141 432.299C201.176 431.642 200.584 430.71 200.365 429.502L202.931 429.112C203.091 429.78 203.419 430.286 203.916 430.63C204.414 430.967 205.062 431.136 205.861 431.136C206.731 431.136 207.426 430.955 207.947 430.594C208.468 430.227 208.728 429.78 208.728 429.254C208.728 428.827 208.568 428.469 208.249 428.179C207.935 427.889 207.453 427.67 206.802 427.522L204.494 427.016C203.221 426.726 202.28 426.265 201.67 425.631C201.067 424.998 200.765 424.196 200.765 423.225C200.765 422.421 200.99 421.716 201.44 421.113C201.889 420.509 202.511 420.038 203.304 419.701C204.097 419.358 205.005 419.186 206.029 419.186C207.503 419.186 208.663 419.506 209.509 420.145C210.356 420.778 210.915 421.627 211.187 422.693ZM214.372 433V419.364H217.027V433H214.372ZM215.713 417.26C215.251 417.26 214.855 417.106 214.523 416.798C214.198 416.484 214.035 416.111 214.035 415.679C214.035 415.241 214.198 414.868 214.523 414.561C214.855 414.247 215.251 414.09 215.713 414.09C216.175 414.09 216.568 414.247 216.894 414.561C217.225 414.868 217.391 415.241 217.391 415.679C217.391 416.111 217.225 416.484 216.894 416.798C216.568 417.106 216.175 417.26 215.713 417.26ZM226.963 419.364V421.494H219.515V419.364H226.963ZM221.512 416.097H224.167V428.996C224.167 429.511 224.244 429.899 224.398 430.159C224.552 430.414 224.75 430.588 224.992 430.683C225.241 430.772 225.51 430.816 225.8 430.816C226.013 430.816 226.2 430.801 226.36 430.772C226.519 430.742 226.644 430.718 226.733 430.701L227.212 432.893C227.058 432.953 226.839 433.012 226.555 433.071C226.271 433.136 225.916 433.172 225.49 433.178C224.791 433.189 224.14 433.065 223.536 432.805C222.933 432.544 222.445 432.142 222.072 431.597C221.699 431.053 221.512 430.369 221.512 429.547V416.097ZM233.868 433.302C233.004 433.302 232.223 433.142 231.524 432.822C230.826 432.497 230.273 432.026 229.864 431.411C229.462 430.795 229.26 430.041 229.26 429.147C229.26 428.378 229.408 427.744 229.704 427.247C230 426.75 230.4 426.356 230.903 426.066C231.406 425.776 231.968 425.557 232.59 425.409C233.211 425.261 233.844 425.149 234.49 425.072C235.306 424.977 235.969 424.9 236.478 424.841C236.987 424.776 237.357 424.673 237.588 424.531C237.819 424.388 237.934 424.158 237.934 423.838V423.776C237.934 423.001 237.715 422.4 237.277 421.974C236.845 421.548 236.2 421.335 235.342 421.335C234.448 421.335 233.744 421.533 233.229 421.929C232.72 422.32 232.368 422.755 232.172 423.234L229.678 422.666C229.974 421.838 230.406 421.169 230.974 420.66C231.548 420.145 232.208 419.772 232.954 419.541C233.699 419.304 234.484 419.186 235.306 419.186C235.851 419.186 236.428 419.251 237.037 419.381C237.653 419.506 238.227 419.737 238.76 420.074C239.298 420.411 239.739 420.894 240.083 421.521C240.426 422.142 240.597 422.95 240.597 423.945V433H238.005V431.136H237.899C237.727 431.479 237.47 431.816 237.126 432.148C236.783 432.479 236.342 432.754 235.803 432.973C235.265 433.192 234.62 433.302 233.868 433.302ZM234.445 431.171C235.179 431.171 235.806 431.026 236.327 430.736C236.854 430.446 237.253 430.067 237.526 429.6C237.804 429.126 237.943 428.62 237.943 428.082V426.324C237.848 426.419 237.665 426.507 237.393 426.59C237.126 426.667 236.821 426.735 236.478 426.794C236.135 426.848 235.8 426.898 235.475 426.945C235.149 426.987 234.877 427.022 234.658 427.052C234.143 427.117 233.673 427.226 233.247 427.38C232.826 427.534 232.489 427.756 232.235 428.046C231.986 428.33 231.862 428.709 231.862 429.183C231.862 429.839 232.104 430.337 232.59 430.674C233.075 431.005 233.693 431.171 234.445 431.171Z" fill="#D4238B"/>
<path d="M40.7388 360.818V379H37.9867V363.57H37.8801L33.53 366.411V363.783L38.0666 360.818H40.7388Z" fill="#D4238B"/>
<g clip-path="url(#clip0_233_1236)">
<path d="M127.123 104.479H121.037V113.24H127.123V104.479Z" fill="#66535E"/>
<path d="M176.962 104.479H170.875V113.24H176.962V104.479Z" fill="#66535E"/>
<path d="M183.228 77.3994H116.064C114.593 77.3994 113.4 78.5921 113.4 80.0633V104.03C113.4 105.501 114.593 106.694 116.064 106.694H183.228C184.699 106.694 185.891 105.501 185.891 104.03V80.0633C185.891 78.5921 184.699 77.3994 183.228 77.3994Z" fill="#D4238B"/>
<path d="M131.346 100.487C130.123 100.487 129.028 100.207 128.061 99.6516C127.095 99.0959 126.331 98.2882 125.772 97.2342C125.214 96.1774 124.935 94.9016 124.935 93.4067C124.935 91.9119 125.217 90.6251 125.778 89.5656C126.339 88.5061 127.106 87.6984 128.075 87.1426C129.044 86.5869 130.136 86.3076 131.346 86.3076C132.132 86.3076 132.86 86.4171 133.539 86.6362C134.216 86.8552 134.818 87.1755 135.341 87.5944C135.867 88.0133 136.296 88.528 136.63 89.1385C136.964 89.7463 137.183 90.4417 137.288 91.2192H134.424C134.361 90.8359 134.243 90.4992 134.068 90.2035C133.893 89.9106 133.674 89.6587 133.411 89.4533C133.148 89.2453 132.847 89.0892 132.507 88.9797C132.168 88.8729 131.801 88.8182 131.404 88.8182C130.687 88.8182 130.06 88.9961 129.518 89.3548C128.978 89.7134 128.557 90.2336 128.258 90.9153C127.96 91.597 127.809 92.4266 127.809 93.404C127.809 94.3814 127.96 95.2356 128.264 95.9145C128.568 96.5935 128.987 97.1082 129.523 97.4532C130.06 97.7981 130.684 97.9734 131.396 97.9734C131.79 97.9734 132.157 97.9186 132.494 97.8118C132.83 97.7051 133.134 97.5463 133.403 97.3382C133.671 97.1301 133.893 96.8782 134.071 96.5826C134.246 96.2869 134.369 95.9501 134.437 95.5723H137.301C137.227 96.2157 137.038 96.829 136.732 97.4176C136.425 98.0035 136.02 98.5291 135.513 98.9918C135.007 99.4545 134.405 99.8186 133.706 100.084C133.008 100.35 132.223 100.484 131.352 100.484L131.346 100.487Z" fill="white"/>
<path d="M138.553 100.301L143.271 86.4912H146.978L151.815 100.301H148.672L146.457 93.6369C146.192 92.7772 145.921 91.8381 145.647 90.8142C145.373 89.793 145.083 88.676 144.782 87.4631H145.403C145.108 88.6814 144.831 89.8039 144.574 90.8306C144.317 91.86 144.062 92.7936 143.81 93.6341L141.677 100.298H138.553V100.301ZM141.502 97.0947V94.8798H148.869V97.0947H141.502Z" fill="white"/>
<path d="M153.521 100.301V86.4912H162.603V88.8348H156.347V92.6896H161.989V94.9975H156.347V100.298H153.521V100.301Z" fill="white"/>
<path d="M164.661 100.3V86.4905H173.901V88.8341H167.489V92.1714H173.419V94.4794H167.489V97.9537H173.92V100.297H164.661V100.3ZM168.294 85.1764L169.584 82.2935H172.16L170.241 85.1764H168.294Z" fill="white"/>
<path d="M75.2904 243.131C75.2904 243.131 68.2652 235.287 61.4481 236.916C54.6338 238.542 54.8993 246.775 54.8993 246.775C54.8993 246.775 47.9508 242.734 45.5443 249.19C40.9475 247.949 33.9223 253.852 33.3036 260.439C29.7773 258.052 25.813 260.056 27.056 263.664C23.0944 262.06 14.0104 268.828 20.1567 280.009C26.3031 291.19 78.6579 286.284 78.6579 286.284L75.2904 243.131Z" fill="#69972F"/>
<path d="M227.315 241.224C227.315 241.224 242.041 252.35 238.419 261.864C243.884 259.923 245.524 263.783 244.705 265.995C249.765 263.397 261.792 266.392 260.99 276.922C242.816 288.251 215.304 282.104 215.304 282.104L227.315 241.224Z" fill="#69972F"/>
<path d="M77.0268 205.638H31.552C31.552 205.638 38.569 196.343 46.692 200.066C49.2765 186.435 66.6423 189.326 65.5308 200.066C77.3444 189.389 77.0268 205.638 77.0268 205.638Z" fill="#DFE6F2"/>
<path d="M257.055 118.933H297.862C297.862 118.933 292.488 111.815 286.267 114.668C284.288 104.229 270.991 106.441 271.842 114.668C262.635 109.526 257.058 118.933 257.058 118.933H257.055Z" fill="#DFE6F2"/>
<path d="M284.152 177.665H205.257C205.257 177.665 217.508 168.069 227.564 170.79C229.549 155.79 251.704 155.494 256.823 170.79C275.656 162.801 284.152 177.665 284.152 177.665Z" fill="#DFE6F2"/>
<path d="M11.4747 87.4131H85.8798C85.8798 87.4131 74.3263 78.362 64.8426 80.93C62.9699 66.7838 36.5529 68.9604 37.2483 80.93C19.4855 73.3956 11.4747 87.4131 11.4747 87.4131Z" fill="#DFE6F2"/>
<path d="M278.614 271.706H15.6489C7.00908 271.706 0.00512695 278.71 0.00512695 287.349V287.358C0.00512695 295.997 7.00908 303.001 15.6489 303.001H278.614C287.254 303.001 294.258 295.997 294.258 287.358V287.349C294.258 278.71 287.254 271.706 278.614 271.706Z" fill="#DFE6F2"/>
<g opacity="0.2" style="mix-blend-mode:multiply">
<path d="M294.258 284.414H0.00512695V290.295H294.258V284.414Z" fill="#66535E"/>
</g>
<path d="M228 111.675H67.5872V266.58H228V111.675Z" fill="#D9D9D9"/>
<g opacity="0.2" style="mix-blend-mode:multiply">
<path d="M228 123.435V158.309C226.067 157.063 224.786 154.895 224.786 152.42C224.786 156.288 221.654 159.42 217.785 159.42C213.917 159.42 210.79 156.288 210.79 152.42C210.79 156.288 207.653 159.42 203.79 159.42C199.927 159.42 196.789 156.288 196.789 152.42C196.789 156.288 193.657 159.42 189.789 159.42C185.92 159.42 182.788 156.288 182.788 152.42C182.788 156.288 179.656 159.42 175.788 159.42C171.919 159.42 168.792 156.288 168.792 152.42C168.792 156.288 165.655 159.42 161.792 159.42C157.929 159.42 154.791 156.288 154.791 152.42C154.791 156.288 151.659 159.42 147.791 159.42C143.922 159.42 140.79 156.288 140.79 152.42C140.79 156.288 137.658 159.42 133.79 159.42C129.921 159.42 126.795 156.288 126.795 152.42C126.795 156.288 123.657 159.42 119.794 159.42C115.931 159.42 112.794 156.288 112.794 152.42C112.794 156.288 109.662 159.42 105.793 159.42C101.925 159.42 98.7925 156.288 98.7925 152.42C98.7925 156.288 95.6605 159.42 91.7975 159.42C87.9345 159.42 84.7969 156.288 84.7969 152.42C84.7969 156.288 81.6594 159.42 77.7964 159.42C73.9334 159.42 70.7959 156.288 70.7959 152.42C70.7959 154.889 69.52 157.06 67.5872 158.303V123.435H228Z" fill="#003298"/>
</g>
<path d="M56.7967 146.985H42.7983L64.1367 118.093H75.2905L56.7967 146.985Z" fill="#D4238B"/>
<path d="M70.7962 146.985H56.7979L75.2917 118.093H86.4454L70.7962 146.985Z" fill="white"/>
<path d="M84.7965 146.985H70.7954L86.4446 118.093H97.5984L84.7965 146.985Z" fill="#D4238B"/>
<path d="M98.7952 146.985H84.7969L97.5988 118.093H108.753L98.7952 146.985Z" fill="white"/>
<path d="M112.793 146.985H98.7944L108.752 118.093H119.906L112.793 146.985Z" fill="#D4238B"/>
<path d="M126.795 146.985H112.794L119.907 118.093H131.061L126.795 146.985Z" fill="white"/>
<path d="M140.794 146.985H126.795L131.061 118.093H142.215L140.794 146.985Z" fill="#D4238B"/>
<path d="M154.791 146.985H140.793L142.214 118.093H153.368L154.791 146.985Z" fill="white"/>
<path d="M168.789 146.985H154.791L153.367 118.093H164.524L168.789 146.985Z" fill="#D4238B"/>
<path d="M182.791 146.985H168.789L164.524 118.093H175.678L182.791 146.985Z" fill="white"/>
<path d="M196.79 146.985H182.791L175.678 118.093H186.832L196.79 146.985Z" fill="#D4238B"/>
<path d="M210.787 146.985H196.789L186.831 118.093H197.985L210.787 146.985Z" fill="white"/>
<path d="M224.789 146.985H210.788L197.986 118.093H209.14L224.789 146.985Z" fill="#D4238B"/>
<path d="M238.788 146.985H224.79L209.141 118.093H220.295L238.788 146.985Z" fill="white"/>
<path d="M252.786 146.985H238.787L220.293 118.093H231.447L252.786 146.985Z" fill="#D4238B"/>
<path d="M42.7983 146.985H56.7967V148.822C56.7967 151.724 54.4449 154.076 51.5429 154.076H48.0522C45.1501 154.076 42.7983 151.724 42.7983 148.822V146.985Z" fill="#D4238B"/>
<path d="M63.7984 154.075C59.9326 154.075 56.7979 150.94 56.7979 147.075V146.981H70.7962V147.075C70.7962 150.94 67.6614 154.075 63.7957 154.075H63.7984Z" fill="#DFE6F2"/>
<path d="M77.796 154.075C73.9302 154.075 70.7954 150.94 70.7954 147.075V146.981H84.7938V147.075C84.7938 150.94 81.659 154.075 77.7932 154.075H77.796Z" fill="#D4238B"/>
<path d="M84.7969 146.985H98.7952V150.659C98.7952 152.546 97.2648 154.076 95.3785 154.076H88.2136C86.3273 154.076 84.7969 152.546 84.7969 150.659V146.985Z" fill="#DFE6F2"/>
<path d="M105.795 154.075C101.929 154.075 98.7944 150.94 98.7944 147.075V146.981H112.793V147.075C112.793 150.94 109.658 154.075 105.792 154.075H105.795Z" fill="#D4238B"/>
<path d="M119.794 154.075C115.929 154.075 112.794 150.94 112.794 147.075V146.981H126.792V147.075C126.792 150.94 123.658 154.075 119.792 154.075H119.794Z" fill="#DFE6F2"/>
<path d="M147.792 154.075C143.926 154.075 140.791 150.94 140.791 147.075V146.981H154.789V147.075C154.789 150.94 151.655 154.075 147.789 154.075H147.792Z" fill="#DFE6F2"/>
<path d="M161.793 154.075C157.927 154.075 154.792 150.94 154.792 147.075V146.981H168.791V147.075C168.791 150.94 165.656 154.075 161.79 154.075H161.793Z" fill="#D4238B"/>
<path d="M175.791 154.075C171.925 154.075 168.79 150.94 168.79 147.075V146.981H182.788V147.075C182.788 150.94 179.654 154.075 175.788 154.075H175.791Z" fill="#DFE6F2"/>
<path d="M189.788 154.075C185.923 154.075 182.788 150.94 182.788 147.075V146.981H196.786V147.075C196.786 150.94 193.651 154.075 189.786 154.075H189.788Z" fill="#D4238B"/>
<path d="M203.79 154.075C199.924 154.075 196.789 150.94 196.789 147.075V146.981H210.787V147.075C210.787 150.94 207.653 154.075 203.787 154.075H203.79Z" fill="#DFE6F2"/>
<path d="M217.789 154.075C213.923 154.075 210.789 150.94 210.789 147.075V146.981H224.787V147.075C224.787 150.94 221.652 154.075 217.786 154.075H217.789Z" fill="#D4238B"/>
<path d="M231.787 154.075C227.921 154.075 224.786 150.94 224.786 147.075V146.981H238.785V147.075C238.785 150.94 235.65 154.075 231.784 154.075H231.787Z" fill="#DFE6F2"/>
<path d="M238.788 146.985H252.786V148.822C252.786 151.724 250.434 154.076 247.532 154.076H244.041C241.139 154.076 238.788 151.724 238.788 148.822V146.985Z" fill="#D4238B"/>
<path d="M133.737 154.13C129.871 154.13 126.736 150.995 126.736 147.13V147.037H140.735V147.13C140.735 150.995 137.6 154.13 133.734 154.13H133.737Z" fill="#D4238B"/>
<path d="M231.441 111.675H64.1429V118.093H231.441V111.675Z" fill="#D4238B"/>
<path d="M228.001 251.878H67.5852V266.58H228.001V251.878Z" fill="#66535E"/>
<g opacity="0.2" style="mix-blend-mode:multiply">
<path d="M147.793 175.028H87.8928V268.822H147.793V175.028Z" fill="#003298"/>
</g>
<path d="M145.547 172.789H90.1421V266.583H145.547V172.789Z" fill="#66535E"/>
<path d="M141.087 177.271H94.6023V266.583H141.087V177.271Z" fill="#DFE6F2"/>
<g opacity="0.2" style="mix-blend-mode:multiply">
<path d="M85.3714 254.615H70.7954V263.28H85.3714V254.615Z" fill="#66535E"/>
</g>
<g opacity="0.2" style="mix-blend-mode:multiply">
<path d="M165.026 254.615H150.45V263.28H165.026V254.615Z" fill="#66535E"/>
</g>
<g opacity="0.2" style="mix-blend-mode:multiply">
<path d="M184.671 254.615H170.095V263.28H184.671V254.615Z" fill="#66535E"/>
</g>
<g opacity="0.2" style="mix-blend-mode:multiply">
<path d="M204.315 254.615H189.739V263.28H204.315V254.615Z" fill="#66535E"/>
</g>
<g opacity="0.2" style="mix-blend-mode:multiply">
<path d="M223.962 254.615H209.386V263.28H223.962V254.615Z" fill="#66535E"/>
</g>
<path d="M142.215 221.11H91.7957V223.473H142.215V221.11Z" fill="#66535E"/>
<g opacity="0.2" style="mix-blend-mode:multiply">
<path d="M141.087 177.271H94.6023V179.664H141.087V177.271Z" fill="#003298"/>
</g>
<path d="M238.275 271.379H57.3097C57.3097 268.729 59.4561 266.583 62.1063 266.583H233.481C236.132 266.583 238.278 268.729 238.278 271.379H238.275Z" fill="#D4238B"/>
<g opacity="0.2" style="mix-blend-mode:multiply">
<path d="M217.896 185.602H157.738V241.094H217.896V185.602Z" fill="#003298"/>
</g>
<path d="M217.896 183.384H157.738V238.876H217.896V183.384Z" fill="#66535E"/>
<path d="M214.132 187.222H161.5V235.032H214.132V187.222Z" fill="#DFE6F2"/>
<path d="M127.21 181.938L97.2913 211.856V203.227L118.58 181.938H127.21Z" fill="white"/>
<path d="M138.588 181.938V186.616L105.521 219.686H97.2913V219.284L134.638 181.938H138.588Z" fill="white"/>
<path d="M127.21 181.938L97.2913 211.856V203.227L118.58 181.938H127.21Z" fill="white"/>
<path d="M138.588 181.938V186.616L105.521 219.686H97.2913V219.284L134.638 181.938H138.588Z" fill="white"/>
<path d="M198.577 189.511L164.01 224.081V214.11L188.606 189.511H198.577Z" fill="white"/>
<path d="M211.724 189.511V194.918L173.518 233.127H164.01V232.662L207.16 189.511H211.724Z" fill="white"/>
<path d="M127.84 225.688L97.0342 256.494V244.015L115.361 225.688H127.84Z" fill="white"/>
<path d="M127.84 225.688L97.0342 256.494V244.015L115.361 225.688H127.84Z" fill="white"/>
<path d="M237.428 60.9255L217.259 85.8969C215.635 87.9065 212.575 87.9065 210.951 85.8969L190.782 60.9255C190.012 59.9727 188.852 59.4197 187.628 59.4197H128.286C126.047 59.4197 124.231 57.6045 124.231 55.365V6.10936C124.231 3.86985 126.047 2.05469 128.286 2.05469H299.924C302.163 2.05469 303.979 3.86985 303.979 6.10936V55.365C303.979 57.6045 302.163 59.4197 299.924 59.4197H240.582C239.358 59.4197 238.198 59.9727 237.428 60.9255Z" fill="white" stroke="#D4238B" stroke-width="4.10669" stroke-miterlimit="10"/>
<path d="M164.502 54.6206C175.693 54.6206 184.765 45.5488 184.765 34.3581C184.765 23.1675 175.693 14.0957 164.502 14.0957C153.312 14.0957 144.24 23.1675 144.24 34.3581C144.24 45.5488 153.312 54.6206 164.502 54.6206Z" fill="#D9D9D9"/>
<path d="M171.311 44.5159C178.572 37.2552 178.572 25.4831 171.311 18.2224C164.051 10.9616 152.279 10.9616 145.018 18.2224C137.757 25.4831 137.757 37.2552 145.018 44.5159C152.279 51.7767 164.051 51.7767 171.311 44.5159Z" fill="white" stroke="#D4238B" stroke-width="4.10669" stroke-miterlimit="10"/>
<path d="M162.81 23.5381L155.385 36.4796L153.493 33.1751H147.897L152.929 41.9333H157.819L168.431 23.5381H162.81Z" fill="#FFB800"/>
<path d="M218.48 54.6206C229.671 54.6206 238.742 45.5488 238.742 34.3581C238.742 23.1675 229.671 14.0957 218.48 14.0957C207.289 14.0957 198.218 23.1675 198.218 34.3581C198.218 45.5488 207.289 54.6206 218.48 54.6206Z" fill="#D9D9D9"/>
<path d="M212.142 49.9606C222.41 49.9606 230.735 41.6365 230.735 31.3682C230.735 21.1 222.41 12.7759 212.142 12.7759C201.874 12.7759 193.55 21.1 193.55 31.3682C193.55 41.6365 201.874 49.9606 212.142 49.9606Z" fill="white" stroke="#D4238B" stroke-width="4.10669" stroke-miterlimit="10"/>
<path d="M216.788 23.5376L209.363 36.4792L207.471 33.1746H201.875L206.907 41.9328H211.797L222.408 23.5376H216.788Z" fill="#FFB800"/>
<path d="M272.46 54.6206C283.65 54.6206 292.722 45.5488 292.722 34.3581C292.722 23.1675 283.65 14.0957 272.46 14.0957C261.269 14.0957 252.197 23.1675 252.197 34.3581C252.197 45.5488 261.269 54.6206 272.46 54.6206Z" fill="#D9D9D9"/>
<path d="M266.12 49.9606C276.388 49.9606 284.712 41.6365 284.712 31.3682C284.712 21.1 276.388 12.7759 266.12 12.7759C255.852 12.7759 247.528 21.1 247.528 31.3682C247.528 41.6365 255.852 49.9606 266.12 49.9606Z" fill="white" stroke="#D4238B" stroke-width="4.10669" stroke-miterlimit="10"/>
<path d="M270.767 23.5376L263.343 36.4792L261.451 33.1746H255.855L260.887 41.9328H265.774L276.388 23.5376H270.767Z" fill="#FFB800"/>
<path d="M104.397 202.377L118.223 188.004L133.692 200.461" stroke="#66535E" stroke-width="0.547559" stroke-linecap="round" stroke-linejoin="round"/>
<path d="M118.222 190.332C119.507 190.332 120.549 189.29 120.549 188.005C120.549 186.72 119.507 185.678 118.222 185.678C116.936 185.678 115.895 186.72 115.895 188.005C115.895 189.29 116.936 190.332 118.222 190.332Z" fill="#FFB800"/>
<path d="M132.428 195.824L103.53 201.52C102.906 201.643 102.499 202.249 102.622 202.874L104.559 212.699C104.682 213.324 105.288 213.73 105.913 213.607L134.81 207.912C135.435 207.789 135.841 207.183 135.718 206.558L133.781 196.732C133.658 196.108 133.052 195.701 132.428 195.824Z" fill="#D4238B"/>
<path d="M111.782 207.289L110.222 207.596L109.989 208.562L109.397 208.68L110.438 204.45L112.943 207.982L112.341 208.1L111.785 207.289H111.782ZM111.456 206.816L110.671 205.682L110.347 207.035L111.454 206.816H111.456Z" fill="white"/>
<path d="M113.397 207.888L112.68 204.244L113.227 204.138C113.471 204.088 113.668 204.069 113.822 204.08C113.975 204.088 114.112 204.129 114.23 204.198C114.35 204.272 114.454 204.37 114.542 204.496C114.632 204.625 114.689 204.759 114.717 204.904C114.769 205.164 114.711 205.405 114.547 205.627C114.752 205.654 114.93 205.739 115.073 205.884C115.218 206.027 115.314 206.205 115.355 206.421C115.412 206.706 115.357 206.966 115.196 207.204C115.097 207.349 114.98 207.461 114.837 207.538C114.681 207.617 114.479 207.68 114.23 207.73L113.397 207.894V207.888ZM113.537 205.701L113.709 205.668C113.915 205.627 114.054 205.553 114.134 205.444C114.21 205.334 114.232 205.192 114.197 205.016C114.164 204.844 114.087 204.724 113.972 204.655C113.857 204.587 113.707 204.57 113.52 204.606L113.326 204.644L113.534 205.704L113.537 205.701ZM113.846 207.264L114.186 207.198C114.435 207.149 114.607 207.064 114.706 206.944C114.807 206.815 114.843 206.667 114.81 206.506C114.78 206.35 114.695 206.227 114.555 206.144C114.418 206.062 114.205 206.049 113.909 206.109L113.63 206.164L113.846 207.267V207.264Z" fill="white"/>
<path d="M116.09 203.571L116.808 207.215L116.257 207.324L115.54 203.68L116.09 203.571Z" fill="white"/>
<path d="M119.08 203.519L117.618 203.806L117.79 204.682L119.208 204.403L119.31 204.92L117.891 205.2L118.132 206.418L119.594 206.13L119.696 206.648L117.683 207.045L116.963 203.401L118.976 203.004L119.077 203.521L119.08 203.519Z" fill="white"/>
<path d="M121.346 204.707L122.781 206.038L122.107 206.169L120.771 204.882L120.672 204.902L120.965 206.394L120.415 206.503L119.698 202.859L120.341 202.733C120.823 202.637 121.187 202.659 121.439 202.799C121.716 202.955 121.885 203.196 121.951 203.527C122.003 203.785 121.973 204.023 121.861 204.236C121.748 204.45 121.579 204.609 121.346 204.707ZM120.579 204.425L120.755 204.39C121.275 204.286 121.496 204.036 121.417 203.64C121.343 203.267 121.053 203.13 120.546 203.229L120.349 203.267L120.577 204.425H120.579Z" fill="white"/>
<path d="M123.676 202.612L124.292 205.742L123.742 205.851L123.126 202.722L122.288 202.886L122.187 202.369L124.41 201.931L124.511 202.448L123.676 202.612Z" fill="white"/>
<path d="M124.957 203.7C124.856 203.188 124.957 202.709 125.261 202.266C125.562 201.825 125.976 201.551 126.501 201.447C127.021 201.346 127.503 201.442 127.947 201.74C128.393 202.039 128.667 202.446 128.771 202.969C128.875 203.492 128.774 203.974 128.473 204.415C128.169 204.856 127.75 205.129 127.219 205.234C126.748 205.327 126.293 205.247 125.855 204.995C125.371 204.716 125.072 204.284 124.957 203.7ZM125.516 203.596C125.595 203.999 125.795 204.303 126.118 204.511C126.438 204.716 126.775 204.787 127.128 204.716C127.512 204.639 127.807 204.445 128.018 204.127C128.229 203.807 128.295 203.457 128.221 203.073C128.144 202.685 127.95 202.383 127.637 202.173C127.328 201.959 126.98 201.891 126.6 201.965C126.219 202.039 125.926 202.236 125.718 202.55C125.507 202.863 125.442 203.213 125.518 203.596H125.516Z" fill="white"/>
</g>
<defs>
<clipPath id="clip0_233_1236">
<rect width="306.028" height="303" fill="white"/>
</clipPath>
</defs>
</svg>
