<svg width="276" height="438" viewBox="0 0 276 438" fill="none" xmlns="http://www.w3.org/2000/svg">
<rect x="25" y="358" width="245" height="79" fill="white" stroke="#D4238B" stroke-width="2"/>
<circle cx="24" cy="357" r="17" fill="white" stroke="#D4238B" stroke-width="2"/>
<path d="M80.012 374.18V371.818H94.0834V374.18H88.4104V390H85.676V374.18H80.012ZM103.762 384.345V376.364H106.426V390H103.816V387.638H103.674C103.36 388.366 102.857 388.973 102.164 389.458C101.478 389.938 100.623 390.178 99.5987 390.178C98.7228 390.178 97.9474 389.985 97.2727 389.6C96.6039 389.21 96.0772 388.633 95.6925 387.869C95.3137 387.106 95.1243 386.162 95.1243 385.037V376.364H97.7788V384.718C97.7788 385.647 98.0362 386.387 98.5511 386.937C99.0661 387.488 99.7348 387.763 100.558 387.763C101.055 387.763 101.549 387.638 102.04 387.39C102.537 387.141 102.949 386.766 103.274 386.262C103.606 385.759 103.768 385.12 103.762 384.345ZM120.211 379.693L117.805 380.119C117.704 379.811 117.545 379.518 117.326 379.24C117.112 378.962 116.822 378.734 116.456 378.556C116.089 378.379 115.63 378.29 115.079 378.29C114.328 378.29 113.7 378.459 113.197 378.796C112.694 379.128 112.443 379.557 112.443 380.083C112.443 380.539 112.611 380.906 112.949 381.184C113.286 381.462 113.831 381.69 114.582 381.868L116.748 382.365C118.003 382.655 118.938 383.102 119.554 383.706C120.169 384.309 120.477 385.094 120.477 386.058C120.477 386.875 120.24 387.603 119.767 388.242C119.299 388.875 118.645 389.373 117.805 389.734C116.97 390.095 116.003 390.275 114.902 390.275C113.375 390.275 112.129 389.95 111.164 389.299C110.2 388.642 109.608 387.71 109.389 386.502L111.954 386.112C112.114 386.78 112.443 387.286 112.94 387.63C113.437 387.967 114.085 388.136 114.884 388.136C115.754 388.136 116.45 387.955 116.97 387.594C117.491 387.227 117.752 386.78 117.752 386.254C117.752 385.827 117.592 385.469 117.272 385.179C116.959 384.889 116.476 384.67 115.825 384.522L113.517 384.016C112.244 383.726 111.303 383.265 110.694 382.631C110.09 381.998 109.788 381.196 109.788 380.225C109.788 379.421 110.013 378.716 110.463 378.113C110.913 377.509 111.534 377.038 112.327 376.701C113.12 376.358 114.029 376.186 115.053 376.186C116.527 376.186 117.687 376.506 118.533 377.145C119.379 377.778 119.939 378.627 120.211 379.693ZM130.012 395.114V376.364H132.604V378.574H132.826C132.98 378.29 133.202 377.962 133.492 377.589C133.782 377.216 134.185 376.89 134.699 376.612C135.214 376.328 135.895 376.186 136.741 376.186C137.842 376.186 138.825 376.464 139.689 377.021C140.553 377.577 141.231 378.379 141.722 379.426C142.219 380.474 142.468 381.735 142.468 383.208C142.468 384.682 142.222 385.946 141.731 386.999C141.239 388.047 140.565 388.855 139.707 389.423C138.848 389.985 137.869 390.266 136.768 390.266C135.939 390.266 135.262 390.127 134.735 389.849C134.214 389.571 133.806 389.245 133.51 388.873C133.214 388.5 132.986 388.168 132.826 387.878H132.666V395.114H130.012ZM132.613 383.182C132.613 384.141 132.752 384.981 133.03 385.703C133.309 386.425 133.711 386.99 134.238 387.399C134.765 387.801 135.41 388.002 136.173 388.002C136.966 388.002 137.629 387.792 138.162 387.372C138.695 386.946 139.097 386.369 139.369 385.641C139.647 384.913 139.786 384.093 139.786 383.182C139.786 382.282 139.65 381.474 139.378 380.758C139.112 380.042 138.709 379.477 138.171 379.062C137.638 378.648 136.972 378.441 136.173 378.441C135.404 378.441 134.753 378.639 134.22 379.036C133.693 379.432 133.294 379.986 133.022 380.696C132.749 381.406 132.613 382.235 132.613 383.182ZM154.08 384.345V376.364H156.743V390H154.133V387.638H153.991C153.677 388.366 153.174 388.973 152.482 389.458C151.795 389.938 150.94 390.178 149.916 390.178C149.04 390.178 148.265 389.985 147.59 389.6C146.921 389.21 146.395 388.633 146.01 387.869C145.631 387.106 145.442 386.162 145.442 385.037V376.364H148.096V384.718C148.096 385.647 148.354 386.387 148.869 386.937C149.383 387.488 150.052 387.763 150.875 387.763C151.372 387.763 151.866 387.638 152.358 387.39C152.855 387.141 153.266 386.766 153.592 386.262C153.923 385.759 154.086 385.12 154.08 384.345ZM162.964 381.903V390H160.31V376.364H162.858V378.583H163.026C163.34 377.861 163.831 377.281 164.5 376.843C165.175 376.405 166.024 376.186 167.048 376.186C167.977 376.186 168.791 376.381 169.49 376.772C170.188 377.157 170.729 377.731 171.114 378.494C171.499 379.258 171.691 380.202 171.691 381.326V390H169.037V381.646C169.037 380.658 168.779 379.885 168.264 379.329C167.749 378.767 167.042 378.485 166.143 378.485C165.527 378.485 164.98 378.619 164.5 378.885C164.027 379.151 163.651 379.542 163.373 380.057C163.1 380.566 162.964 381.181 162.964 381.903ZM181.617 376.364V378.494H174.168V376.364H181.617ZM176.166 373.097H178.82V385.996C178.82 386.511 178.897 386.899 179.051 387.159C179.205 387.414 179.403 387.588 179.646 387.683C179.894 387.772 180.164 387.816 180.454 387.816C180.667 387.816 180.853 387.801 181.013 387.772C181.173 387.742 181.297 387.718 181.386 387.701L181.865 389.893C181.711 389.953 181.492 390.012 181.208 390.071C180.924 390.136 180.569 390.172 180.143 390.178C179.445 390.189 178.794 390.065 178.19 389.805C177.586 389.544 177.098 389.142 176.725 388.597C176.352 388.053 176.166 387.369 176.166 386.547V373.097ZM190.15 390.275C188.872 390.275 187.756 389.982 186.804 389.396C185.851 388.81 185.111 387.991 184.584 386.937C184.057 385.884 183.794 384.653 183.794 383.244C183.794 381.829 184.057 380.592 184.584 379.533C185.111 378.474 185.851 377.651 186.804 377.065C187.756 376.479 188.872 376.186 190.15 376.186C191.429 376.186 192.545 376.479 193.497 377.065C194.45 377.651 195.19 378.474 195.717 379.533C196.244 380.592 196.507 381.829 196.507 383.244C196.507 384.653 196.244 385.884 195.717 386.937C195.19 387.991 194.45 388.81 193.497 389.396C192.545 389.982 191.429 390.275 190.15 390.275ZM190.159 388.047C190.988 388.047 191.675 387.828 192.219 387.39C192.764 386.952 193.166 386.369 193.426 385.641C193.693 384.913 193.826 384.111 193.826 383.235C193.826 382.365 193.693 381.566 193.426 380.838C193.166 380.104 192.764 379.515 192.219 379.071C191.675 378.627 190.988 378.406 190.159 378.406C189.325 378.406 188.632 378.627 188.082 379.071C187.537 379.515 187.132 380.104 186.866 380.838C186.605 381.566 186.475 382.365 186.475 383.235C186.475 384.111 186.605 384.913 186.866 385.641C187.132 386.369 187.537 386.952 188.082 387.39C188.632 387.828 189.325 388.047 190.159 388.047ZM209.688 379.693L207.282 380.119C207.182 379.811 207.022 379.518 206.803 379.24C206.59 378.962 206.3 378.734 205.933 378.556C205.566 378.379 205.107 378.29 204.557 378.29C203.805 378.29 203.178 378.459 202.675 378.796C202.172 379.128 201.92 379.557 201.92 380.083C201.92 380.539 202.089 380.906 202.426 381.184C202.764 381.462 203.308 381.69 204.06 381.868L206.226 382.365C207.481 382.655 208.416 383.102 209.031 383.706C209.647 384.309 209.955 385.094 209.955 386.058C209.955 386.875 209.718 387.603 209.244 388.242C208.777 388.875 208.123 389.373 207.282 389.734C206.448 390.095 205.48 390.275 204.379 390.275C202.852 390.275 201.607 389.95 200.642 389.299C199.677 388.642 199.085 387.71 198.866 386.502L201.432 386.112C201.592 386.78 201.92 387.286 202.417 387.63C202.915 387.967 203.563 388.136 204.362 388.136C205.232 388.136 205.927 387.955 206.448 387.594C206.969 387.227 207.229 386.78 207.229 386.254C207.229 385.827 207.069 385.469 206.75 385.179C206.436 384.889 205.954 384.67 205.303 384.522L202.994 384.016C201.722 383.726 200.781 383.265 200.171 382.631C199.568 381.998 199.266 381.196 199.266 380.225C199.266 379.421 199.491 378.716 199.941 378.113C200.39 377.509 201.012 377.038 201.805 376.701C202.598 376.358 203.506 376.186 204.53 376.186C206.004 376.186 207.164 376.506 208.01 377.145C208.857 377.778 209.416 378.627 209.688 379.693ZM75.0271 406.364L70.0821 420H67.2412L62.2874 406.364H65.1372L68.5906 416.857H68.7327L72.1773 406.364H75.0271ZM77.5218 420V406.364H80.1762V420H77.5218ZM78.8623 404.26C78.4007 404.26 78.0041 404.106 77.6727 403.798C77.3472 403.484 77.1844 403.111 77.1844 402.679C77.1844 402.241 77.3472 401.868 77.6727 401.561C78.0041 401.247 78.4007 401.09 78.8623 401.09C79.324 401.09 79.7175 401.247 80.0431 401.561C80.3745 401.868 80.5402 402.241 80.5402 402.679C80.5402 403.111 80.3745 403.484 80.0431 403.798C79.7175 404.106 79.324 404.26 78.8623 404.26ZM87.7157 420.302C86.8516 420.302 86.0704 420.142 85.372 419.822C84.6736 419.497 84.1202 419.026 83.7118 418.411C83.3094 417.795 83.1081 417.041 83.1081 416.147C83.1081 415.378 83.2561 414.744 83.552 414.247C83.848 413.75 84.2475 413.356 84.7505 413.066C85.2536 412.776 85.8159 412.557 86.4373 412.409C87.0588 412.261 87.6921 412.149 88.3372 412.072C89.1539 411.977 89.8168 411.9 90.3258 411.841C90.8348 411.776 91.2047 411.673 91.4355 411.531C91.6664 411.388 91.7818 411.158 91.7818 410.838V410.776C91.7818 410.001 91.5628 409.4 91.1248 408.974C90.6928 408.548 90.0476 408.335 89.1895 408.335C88.2958 408.335 87.5914 408.533 87.0765 408.929C86.5675 409.32 86.2154 409.755 86.0201 410.234L83.5254 409.666C83.8213 408.838 84.2534 408.169 84.8216 407.66C85.3957 407.145 86.0556 406.772 86.8013 406.541C87.5471 406.304 88.3313 406.186 89.1539 406.186C89.6984 406.186 90.2755 406.251 90.8851 406.381C91.5007 406.506 92.0748 406.737 92.6074 407.074C93.146 407.411 93.5869 407.894 93.9302 408.521C94.2735 409.142 94.4451 409.95 94.4451 410.945V420H91.8528V418.136H91.7463C91.5746 418.479 91.3172 418.816 90.9739 419.148C90.6306 419.479 90.1897 419.754 89.6511 419.973C89.1125 420.192 88.4674 420.302 87.7157 420.302ZM88.2928 418.171C89.0267 418.171 89.6541 418.026 90.1749 417.736C90.7016 417.446 91.1011 417.067 91.3734 416.6C91.6516 416.126 91.7907 415.62 91.7907 415.082V413.324C91.696 413.419 91.5125 413.507 91.2402 413.59C90.9739 413.667 90.6691 413.735 90.3258 413.794C89.9825 413.848 89.6481 413.898 89.3226 413.945C88.9971 413.987 88.7248 414.022 88.5059 414.052C87.9909 414.117 87.5204 414.226 87.0943 414.38C86.6741 414.534 86.3367 414.756 86.0822 415.046C85.8336 415.33 85.7093 415.709 85.7093 416.183C85.7093 416.839 85.952 417.337 86.4373 417.674C86.9226 418.005 87.5411 418.171 88.2928 418.171ZM97.9807 406.364H100.635V420.888C100.635 421.799 100.469 422.569 100.138 423.196C99.8125 423.823 99.3272 424.3 98.6821 424.625C98.0429 424.951 97.2528 425.114 96.3117 425.114C96.217 425.114 96.1282 425.114 96.0454 425.114C95.9566 425.114 95.8648 425.111 95.7702 425.105V422.823C95.853 422.823 95.927 422.823 95.9921 422.823C96.0513 422.823 96.1193 422.823 96.1963 422.823C96.8237 422.823 97.2764 422.654 97.5546 422.317C97.8387 421.986 97.9807 421.503 97.9807 420.87V406.364ZM99.2947 404.26C98.833 404.26 98.4365 404.106 98.105 403.798C97.7795 403.484 97.6167 403.111 97.6167 402.679C97.6167 402.241 97.7795 401.868 98.105 401.561C98.4365 401.247 98.833 401.09 99.2947 401.09C99.7563 401.09 100.15 401.247 100.475 401.561C100.807 401.868 100.973 402.241 100.973 402.679C100.973 403.111 100.807 403.484 100.475 403.798C100.15 404.106 99.7563 404.26 99.2947 404.26ZM108.175 420.302C107.311 420.302 106.529 420.142 105.831 419.822C105.133 419.497 104.579 419.026 104.171 418.411C103.768 417.795 103.567 417.041 103.567 416.147C103.567 415.378 103.715 414.744 104.011 414.247C104.307 413.75 104.706 413.356 105.21 413.066C105.713 412.776 106.275 412.557 106.896 412.409C107.518 412.261 108.151 412.149 108.796 412.072C109.613 411.977 110.276 411.9 110.785 411.841C111.294 411.776 111.664 411.673 111.895 411.531C112.125 411.388 112.241 411.158 112.241 410.838V410.776C112.241 410.001 112.022 409.4 111.584 408.974C111.152 408.548 110.507 408.335 109.648 408.335C108.755 408.335 108.05 408.533 107.536 408.929C107.027 409.32 106.674 409.755 106.479 410.234L103.984 409.666C104.28 408.838 104.712 408.169 105.281 407.66C105.855 407.145 106.515 406.772 107.26 406.541C108.006 406.304 108.79 406.186 109.613 406.186C110.157 406.186 110.734 406.251 111.344 406.381C111.96 406.506 112.534 406.737 113.066 407.074C113.605 407.411 114.046 407.894 114.389 408.521C114.732 409.142 114.904 409.95 114.904 410.945V420H112.312V418.136H112.205C112.034 418.479 111.776 418.816 111.433 419.148C111.09 419.479 110.649 419.754 110.11 419.973C109.571 420.192 108.926 420.302 108.175 420.302ZM108.752 418.171C109.486 418.171 110.113 418.026 110.634 417.736C111.161 417.446 111.56 417.067 111.832 416.6C112.111 416.126 112.25 415.62 112.25 415.082V413.324C112.155 413.419 111.971 413.507 111.699 413.59C111.433 413.667 111.128 413.735 110.785 413.794C110.442 413.848 110.107 413.898 109.782 413.945C109.456 413.987 109.184 414.022 108.965 414.052C108.45 414.117 107.979 414.226 107.553 414.38C107.133 414.534 106.796 414.756 106.541 415.046C106.293 415.33 106.168 415.709 106.168 416.183C106.168 416.839 106.411 417.337 106.896 417.674C107.382 418.005 108 418.171 108.752 418.171ZM121.094 411.903V420H118.44V406.364H120.988V408.583H121.156C121.47 407.861 121.961 407.281 122.63 406.843C123.305 406.405 124.154 406.186 125.178 406.186C126.107 406.186 126.921 406.381 127.619 406.772C128.318 407.157 128.859 407.731 129.244 408.494C129.629 409.258 129.821 410.202 129.821 411.326V420H127.167V411.646C127.167 410.658 126.909 409.885 126.394 409.329C125.879 408.767 125.172 408.485 124.272 408.485C123.657 408.485 123.109 408.619 122.63 408.885C122.157 409.151 121.781 409.542 121.503 410.057C121.23 410.566 121.094 411.181 121.094 411.903ZM145.741 420.275C144.421 420.275 143.285 419.976 142.332 419.379C141.385 418.775 140.657 417.943 140.148 416.884C139.639 415.824 139.385 414.611 139.385 413.244C139.385 411.859 139.645 410.637 140.166 409.577C140.687 408.512 141.421 407.681 142.368 407.083C143.315 406.485 144.43 406.186 145.715 406.186C146.75 406.186 147.674 406.378 148.485 406.763C149.295 407.142 149.949 407.675 150.447 408.361C150.95 409.048 151.249 409.85 151.343 410.767H148.76C148.618 410.128 148.292 409.577 147.783 409.116C147.28 408.654 146.605 408.423 145.759 408.423C145.019 408.423 144.371 408.619 143.815 409.009C143.264 409.394 142.835 409.944 142.528 410.661C142.22 411.371 142.066 412.211 142.066 413.182C142.066 414.176 142.217 415.034 142.519 415.756C142.82 416.478 143.247 417.038 143.797 417.434C144.353 417.831 145.007 418.029 145.759 418.029C146.262 418.029 146.718 417.937 147.126 417.754C147.541 417.565 147.887 417.295 148.165 416.946C148.449 416.597 148.647 416.177 148.76 415.685H151.343C151.249 416.567 150.961 417.354 150.482 418.047C150.003 418.739 149.36 419.284 148.556 419.68C147.757 420.077 146.818 420.275 145.741 420.275ZM159.926 420.275C158.647 420.275 157.532 419.982 156.579 419.396C155.626 418.81 154.886 417.991 154.359 416.937C153.833 415.884 153.569 414.653 153.569 413.244C153.569 411.829 153.833 410.592 154.359 409.533C154.886 408.474 155.626 407.651 156.579 407.065C157.532 406.479 158.647 406.186 159.926 406.186C161.204 406.186 162.32 406.479 163.273 407.065C164.226 407.651 164.966 408.474 165.492 409.533C166.019 410.592 166.282 411.829 166.282 413.244C166.282 414.653 166.019 415.884 165.492 416.937C164.966 417.991 164.226 418.81 163.273 419.396C162.32 419.982 161.204 420.275 159.926 420.275ZM159.935 418.047C160.763 418.047 161.45 417.828 161.994 417.39C162.539 416.952 162.941 416.369 163.202 415.641C163.468 414.913 163.601 414.111 163.601 413.235C163.601 412.365 163.468 411.566 163.202 410.838C162.941 410.104 162.539 409.515 161.994 409.071C161.45 408.627 160.763 408.406 159.935 408.406C159.1 408.406 158.408 408.627 157.857 409.071C157.313 409.515 156.907 410.104 156.641 410.838C156.381 411.566 156.25 412.365 156.25 413.235C156.25 414.111 156.381 414.913 156.641 415.641C156.907 416.369 157.313 416.952 157.857 417.39C158.408 417.828 159.1 418.047 159.935 418.047ZM171.9 411.903V420H169.245V406.364H171.793V408.583H171.962C172.276 407.861 172.767 407.281 173.436 406.843C174.11 406.405 174.96 406.186 175.984 406.186C176.913 406.186 177.727 406.381 178.425 406.772C179.123 407.157 179.665 407.731 180.05 408.494C180.434 409.258 180.627 410.202 180.627 411.326V420H177.972V411.646C177.972 410.658 177.715 409.885 177.2 409.329C176.685 408.767 175.978 408.485 175.078 408.485C174.463 408.485 173.915 408.619 173.436 408.885C172.962 409.151 172.586 409.542 172.308 410.057C172.036 410.566 171.9 411.181 171.9 411.903ZM190.552 406.364V408.494H183.104V406.364H190.552ZM185.101 403.097H187.756V415.996C187.756 416.511 187.833 416.899 187.987 417.159C188.14 417.414 188.339 417.588 188.581 417.683C188.83 417.772 189.099 417.816 189.389 417.816C189.602 417.816 189.789 417.801 189.949 417.772C190.108 417.742 190.233 417.718 190.321 417.701L190.801 419.893C190.647 419.953 190.428 420.012 190.144 420.071C189.86 420.136 189.505 420.172 189.078 420.178C188.38 420.189 187.729 420.065 187.125 419.805C186.522 419.544 186.033 419.142 185.661 418.597C185.288 418.053 185.101 417.369 185.101 416.547V403.097ZM193.489 420V406.364H196.143V420H193.489ZM194.829 404.26C194.367 404.26 193.971 404.106 193.639 403.798C193.314 403.484 193.151 403.111 193.151 402.679C193.151 402.241 193.314 401.868 193.639 401.561C193.971 401.247 194.367 401.09 194.829 401.09C195.291 401.09 195.684 401.247 196.01 401.561C196.341 401.868 196.507 402.241 196.507 402.679C196.507 403.111 196.341 403.484 196.01 403.798C195.684 404.106 195.291 404.26 194.829 404.26ZM205.431 425.398C204.348 425.398 203.416 425.256 202.635 424.972C201.86 424.688 201.226 424.312 200.735 423.844C200.244 423.377 199.877 422.865 199.634 422.308L201.916 421.367C202.076 421.628 202.289 421.903 202.555 422.193C202.827 422.489 203.194 422.74 203.656 422.947C204.123 423.155 204.724 423.258 205.458 423.258C206.464 423.258 207.296 423.013 207.953 422.521C208.61 422.036 208.938 421.261 208.938 420.195V417.514H208.77C208.61 417.804 208.379 418.127 208.077 418.482C207.781 418.837 207.373 419.145 206.852 419.405C206.331 419.666 205.653 419.796 204.819 419.796C203.742 419.796 202.771 419.544 201.907 419.041C201.049 418.532 200.368 417.783 199.865 416.795C199.368 415.801 199.119 414.579 199.119 413.129C199.119 411.679 199.365 410.436 199.856 409.4C200.353 408.364 201.034 407.571 201.898 407.021C202.762 406.464 203.742 406.186 204.837 406.186C205.683 406.186 206.367 406.328 206.887 406.612C207.408 406.89 207.814 407.216 208.104 407.589C208.4 407.962 208.627 408.29 208.787 408.574H208.983V406.364H211.584V420.302C211.584 421.474 211.312 422.435 210.767 423.187C210.223 423.939 209.486 424.495 208.556 424.856C207.633 425.217 206.592 425.398 205.431 425.398ZM205.405 417.594C206.168 417.594 206.813 417.417 207.34 417.061C207.873 416.7 208.275 416.185 208.548 415.517C208.826 414.842 208.965 414.034 208.965 413.093C208.965 412.176 208.829 411.368 208.556 410.669C208.284 409.971 207.885 409.426 207.358 409.036C206.831 408.639 206.18 408.441 205.405 408.441C204.606 408.441 203.94 408.648 203.407 409.062C202.875 409.471 202.472 410.027 202.2 410.732C201.934 411.436 201.8 412.223 201.8 413.093C201.8 413.987 201.937 414.771 202.209 415.446C202.481 416.12 202.884 416.647 203.416 417.026C203.955 417.405 204.618 417.594 205.405 417.594ZM220.888 420.275C219.609 420.275 218.494 419.982 217.541 419.396C216.588 418.81 215.848 417.991 215.321 416.937C214.795 415.884 214.531 414.653 214.531 413.244C214.531 411.829 214.795 410.592 215.321 409.533C215.848 408.474 216.588 407.651 217.541 407.065C218.494 406.479 219.609 406.186 220.888 406.186C222.166 406.186 223.282 406.479 224.235 407.065C225.188 407.651 225.927 408.474 226.454 409.533C226.981 410.592 227.244 411.829 227.244 413.244C227.244 414.653 226.981 415.884 226.454 416.937C225.927 417.991 225.188 418.81 224.235 419.396C223.282 419.982 222.166 420.275 220.888 420.275ZM220.897 418.047C221.725 418.047 222.412 417.828 222.956 417.39C223.501 416.952 223.903 416.369 224.164 415.641C224.43 414.913 224.563 414.111 224.563 413.235C224.563 412.365 224.43 411.566 224.164 410.838C223.903 410.104 223.501 409.515 222.956 409.071C222.412 408.627 221.725 408.406 220.897 408.406C220.062 408.406 219.37 408.627 218.819 409.071C218.275 409.515 217.869 410.104 217.603 410.838C217.343 411.566 217.212 412.365 217.212 413.235C217.212 414.111 217.343 414.913 217.603 415.641C217.869 416.369 218.275 416.952 218.819 417.39C219.37 417.828 220.062 418.047 220.897 418.047Z" fill="#D4238B"/>
<path d="M23.0222 366.249C21.803 366.249 20.714 366.038 19.7551 365.618C18.8023 365.198 18.0476 364.615 17.4913 363.869C16.9409 363.118 16.6449 362.248 16.6035 361.259H19.3912C19.4267 361.798 19.6072 362.265 19.9327 362.662C20.2641 363.053 20.6962 363.354 21.2289 363.567C21.7615 363.781 22.3534 363.887 23.0044 363.887C23.7206 363.887 24.3539 363.763 24.9043 363.514C25.4606 363.266 25.8957 362.919 26.2093 362.475C26.523 362.026 26.6799 361.508 26.6799 360.922C26.6799 360.312 26.523 359.777 26.2093 359.315C25.9016 358.847 25.4488 358.48 24.851 358.214C24.2592 357.948 23.543 357.815 22.7026 357.815H21.1667V355.577H22.7026C23.3773 355.577 23.9692 355.456 24.4782 355.213C24.9931 354.971 25.3955 354.633 25.6855 354.201C25.9756 353.763 26.1206 353.251 26.1206 352.665C26.1206 352.103 25.9933 351.615 25.7388 351.201C25.4902 350.78 25.1351 350.452 24.6735 350.215C24.2177 349.978 23.6792 349.86 23.0577 349.86C22.4658 349.86 21.9125 349.97 21.3975 350.189C20.8886 350.402 20.4743 350.709 20.1547 351.112C19.835 351.508 19.6634 351.985 19.6397 352.541H16.9853C17.0149 351.559 17.3049 350.695 17.8553 349.949C18.4116 349.203 19.1455 348.62 20.057 348.2C20.9685 347.78 21.9805 347.57 23.0932 347.57C24.2592 347.57 25.2653 347.797 26.1117 348.253C26.964 348.703 27.6209 349.304 28.0826 350.055C28.5501 350.807 28.781 351.63 28.775 352.523C28.781 353.541 28.4969 354.406 27.9228 355.116C27.3546 355.826 26.597 356.302 25.65 356.545V356.687C26.8574 356.871 27.7926 357.35 28.4554 358.125C29.1242 358.901 29.4557 359.862 29.4498 361.011C29.4557 362.011 29.1775 362.908 28.6152 363.701C28.0589 364.494 27.2984 365.118 26.3336 365.574C25.3689 366.024 24.2651 366.249 23.0222 366.249Z" fill="#D4238B"/>
<g clip-path="url(#clip0_233_1419)">
<path d="M138 274.089C213.159 274.089 274.088 213.16 274.088 138.001C274.088 62.841 213.159 1.91211 138 1.91211C62.84 1.91211 1.91113 62.841 1.91113 138.001C1.91113 213.16 62.84 274.089 138 274.089Z" stroke="#FFB800" stroke-width="3.82307" stroke-linecap="round" stroke-linejoin="round" stroke-dasharray="20.39 20.39"/>
<mask id="mask0_233_1419" style="mask-type:luminance" maskUnits="userSpaceOnUse" x="32" y="34" width="212" height="211">
<path d="M137.998 244.902C196.094 244.902 243.191 197.805 243.191 139.709C243.191 81.6121 196.094 34.5156 137.998 34.5156C79.9014 34.5156 32.8049 81.6121 32.8049 139.709C32.8049 197.805 79.9014 244.902 137.998 244.902Z" fill="white"/>
</mask>
<g mask="url(#mask0_233_1419)">
<path d="M138 244.902C196.096 244.902 243.193 197.806 243.193 139.709C243.193 81.6126 196.096 34.5161 138 34.5161C79.9031 34.5161 32.8066 81.6126 32.8066 139.709C32.8066 197.806 79.9031 244.902 138 244.902Z" fill="#D9D9D9"/>
<path d="M138.001 30.4727V243.503" stroke="#7E7B7E" stroke-width="2.54871" stroke-linecap="round" stroke-linejoin="round"/>
<path d="M138.883 31.4282C184.275 45.5481 217.235 87.8873 217.235 137.926C217.235 187.965 184.275 230.307 138.883 244.424" stroke="#7E7B7E" stroke-width="2.54871" stroke-linecap="round" stroke-linejoin="round"/>
<path d="M137.121 31.4282C91.7282 45.5481 58.7683 87.8873 58.7683 137.926C58.7683 187.965 91.7282 230.307 137.121 244.424" stroke="#7E7B7E" stroke-width="2.54871" stroke-linecap="round" stroke-linejoin="round"/>
<path d="M242.315 113.222C229.73 122.323 192.136 147.033 138.004 147.298C82.8017 147.568 44.4181 122.254 31.9294 113.222" stroke="#7E7B7E" stroke-width="2.54871" stroke-linecap="round" stroke-linejoin="round"/>
<path d="M242.315 55.7451C229.73 64.8466 192.136 89.5563 138.004 89.8214C82.8017 90.0916 44.4181 64.7778 31.9294 55.7451" stroke="#7E7B7E" stroke-width="2.54871" stroke-linecap="round" stroke-linejoin="round"/>
<path d="M242.315 170.697C229.73 179.799 192.136 204.508 138.004 204.774C82.8017 205.044 44.4181 179.73 31.9294 170.697" stroke="#7E7B7E" stroke-width="2.54871" stroke-linecap="round" stroke-linejoin="round"/>
</g>
<path opacity="0.3" d="M84.0375 155.389C90.1367 155.389 95.081 153.258 95.081 150.628C95.081 147.999 90.1367 145.867 84.0375 145.867C77.9383 145.867 72.9939 147.999 72.9939 150.628C72.9939 153.258 77.9383 155.389 84.0375 155.389Z" fill="#66535E"/>
<path d="M94.2382 129.096C94.2382 123.224 89.2759 118.509 83.3144 118.919C78.1737 119.274 74.0575 123.515 73.8434 128.663C73.7542 130.791 74.32 132.782 75.3522 134.454C77.1644 137.385 78.8695 140.38 80.2738 143.525L83.2507 150.197C83.554 150.875 84.5174 150.875 84.8182 150.197L87.7594 143.609C89.179 140.431 90.8994 137.405 92.7243 134.444C93.6826 132.889 94.2356 131.059 94.2356 129.099H94.2382V129.096Z" fill="#FFB800"/>
<path d="M84.0375 132.45C86.2136 132.45 87.9778 130.686 87.9778 128.51C87.9778 126.334 86.2136 124.57 84.0375 124.57C81.8613 124.57 80.0972 126.334 80.0972 128.51C80.0972 130.686 81.8613 132.45 84.0375 132.45Z" fill="white"/>
<path opacity="0.3" d="M192.809 67.5977C198.909 67.5977 203.853 65.4661 203.853 62.8367C203.853 60.2073 198.909 58.0757 192.809 58.0757C186.71 58.0757 181.766 60.2073 181.766 62.8367C181.766 65.4661 186.71 67.5977 192.809 67.5977Z" fill="#66535E"/>
<path d="M203.012 41.3044C203.012 35.4322 198.05 30.7171 192.088 31.1274C186.948 31.4817 182.831 35.7228 182.617 40.8712C182.528 42.9993 183.094 44.9899 184.126 46.6618C185.938 49.5929 187.643 52.5876 189.048 55.7327L192.025 62.4052C192.328 63.0832 193.291 63.0832 193.592 62.4052L196.533 55.8168C197.953 52.6386 199.673 49.6132 201.498 46.6516C202.457 45.0969 203.01 43.267 203.01 41.307H203.012V41.3044Z" fill="#D4238B"/>
<path d="M192.809 44.6555C194.986 44.6555 196.75 42.8914 196.75 40.7152C196.75 38.539 194.986 36.7749 192.809 36.7749C190.633 36.7749 188.869 38.539 188.869 40.7152C188.869 42.8914 190.633 44.6555 192.809 44.6555Z" fill="white"/>
<path opacity="0.3" d="M203.012 212.506C209.111 212.506 214.056 210.374 214.056 207.745C214.056 205.115 209.111 202.984 203.012 202.984C196.913 202.984 191.969 205.115 191.969 207.745C191.969 210.374 196.913 212.506 203.012 212.506Z" fill="#66535E"/>
<path d="M213.215 186.214C213.215 180.341 208.252 175.626 202.291 176.037C197.15 176.391 193.034 180.632 192.82 185.78C192.731 187.909 193.297 189.899 194.329 191.571C196.141 194.502 197.846 197.497 199.25 200.642L202.227 207.314C202.531 207.992 203.494 207.992 203.795 207.314L206.736 200.726C208.156 197.548 209.876 194.522 211.701 191.561C212.659 190.006 213.212 188.176 213.212 186.216H213.215V186.214Z" fill="#FD893A"/>
<path d="M203.012 189.565C205.188 189.565 206.952 187.801 206.952 185.624C206.952 183.448 205.188 181.684 203.012 181.684C200.836 181.684 199.072 183.448 199.072 185.624C199.072 187.801 200.836 189.565 203.012 189.565Z" fill="white"/>
</g>
<defs>
<clipPath id="clip0_233_1419">
<rect width="276" height="276" fill="white"/>
</clipPath>
</defs>
</svg>
