<svg width="188" height="191" viewBox="0 0 188 191" fill="none" xmlns="http://www.w3.org/2000/svg">
<g clip-path="url(#clip0_235_1476)">
<path d="M174.142 0H13.042C5.8391 0 0 5.88047 0 13.1344V177.559C0 184.813 5.8391 190.694 13.042 190.694H174.142C181.345 190.694 187.184 184.813 187.184 177.559V13.1344C187.184 5.88047 181.345 0 174.142 0Z" fill="#D4238B"/>
<path d="M156.94 95.932C155.289 93.0521 152.237 91.2771 148.935 91.2771H144.225V50.044C144.225 44.9014 140.085 40.7342 134.981 40.7342H128.971C126.234 40.7342 123.784 41.938 122.092 43.8426C118.597 41.3032 114.47 39.9565 109.935 39.9565C104.687 39.9565 99.9405 41.5975 96.132 44.6576C94.4567 42.2873 91.7105 40.7364 88.6021 40.7364H82.5927C79.8551 40.7364 77.4055 41.9402 75.7128 43.8448C72.2184 41.3053 68.0914 39.9587 63.5565 39.9587C57.92 39.9587 52.8463 41.8282 48.9112 45.343C44.614 49.15 42.3411 54.1805 42.3411 59.8943C42.3411 62.6622 42.9366 66.7635 45.744 70.7265C42.2015 72.4685 40.0573 76.3655 40.6594 80.4559C41.2745 84.6385 42.664 88.25 44.7929 91.2793H38.249C35.2585 91.2793 32.4533 92.7357 30.7192 95.1895C28.985 97.6433 28.5357 100.789 29.5129 103.636L41.8307 139.476L43.5496 144.474C44.8387 148.224 48.3463 150.739 52.2857 150.739H59.22C63.1355 150.739 66.6255 148.254 67.9343 144.537L69.8364 139.133L70.4646 137.35C71.8563 139.432 73.5337 141.35 75.4925 143.074C81.297 148.16 88.0001 150.737 95.4122 150.737C103.695 150.737 110.873 147.811 116.75 142.042C118.22 140.599 119.516 139.052 120.63 137.413V141.427C120.63 146.569 124.77 150.737 129.875 150.737H135.884C140.99 150.737 145.128 146.567 145.128 141.427V128.185C145.128 127.513 145.054 126.86 144.921 126.23L156.944 105.244C158.596 102.364 158.593 98.8164 156.944 95.9364L156.94 95.932Z" fill="white"/>
<path d="M74.3104 56.0206L69.4352 58.9291C68.5234 57.3365 67.6553 56.2974 66.8307 55.812C65.9713 55.2584 64.861 54.9816 63.5042 54.9816C61.8355 54.9816 60.4526 55.4583 59.351 56.4095C58.2495 57.3453 57.6998 58.5227 57.6998 59.9418C57.6998 61.8992 59.1438 63.4742 62.034 64.6693L66.0062 66.3058C69.2389 67.6217 71.6034 69.2275 73.0998 71.1255C74.5961 73.0213 75.3443 75.3477 75.3443 78.1002C75.3443 81.7886 74.1228 84.8377 71.6819 87.2453C69.2236 89.6705 66.1698 90.8831 62.5248 90.8831C59.0675 90.8831 56.2143 89.8528 53.9611 87.7923C51.7427 85.7317 50.3575 82.8298 49.8079 79.0887L55.8959 77.7377C56.1707 80.0927 56.6528 81.7205 57.3399 82.6211C58.5789 84.3522 60.3828 85.2199 62.7561 85.2199C64.6298 85.2199 66.1872 84.5872 67.424 83.3241C68.663 82.061 69.2803 80.4573 69.2803 78.5176C69.2803 77.7377 69.1734 77.0238 68.9575 76.3736C68.7415 75.7233 68.4056 75.1258 67.9519 74.581C67.496 74.0362 66.9071 73.5244 66.1851 73.0477C65.4631 72.571 64.6036 72.1163 63.6046 71.6835L59.7611 70.0733C54.3101 67.7535 51.5834 64.3573 51.5834 59.8891C51.5834 56.8752 52.7264 54.3555 55.0146 52.3301C57.3028 50.2871 60.1472 49.2656 63.5522 49.2656C68.1439 49.2656 71.7299 51.5173 74.3082 56.0206H74.3104Z" fill="#D4238B"/>
<path d="M88.6002 50.0454V90.1559H82.5907V50.0454H88.6002Z" fill="#D4238B"/>
<path d="M120.689 56.0206L115.814 58.9291C114.902 57.3365 114.034 56.2974 113.21 55.812C112.35 55.2584 111.24 54.9816 109.883 54.9816C108.214 54.9816 106.831 55.4583 105.73 56.4095C104.628 57.3453 104.079 58.5227 104.079 59.9418C104.079 61.8992 105.523 63.4742 108.413 64.6693L112.385 66.3058C115.618 67.6217 117.982 69.2275 119.479 71.1255C120.975 73.0213 121.723 75.3477 121.723 78.1002C121.723 81.7886 120.502 84.8377 118.061 87.2453C115.602 89.6705 112.549 90.8831 108.904 90.8831C105.446 90.8831 102.593 89.8528 100.34 87.7923C98.1215 85.7317 96.7363 82.8298 96.1866 79.0887L102.275 77.7377C102.549 80.0927 103.032 81.7205 103.719 82.6211C104.958 84.3522 106.762 85.2199 109.135 85.2199C111.009 85.2199 112.566 84.5872 113.803 83.3241C115.042 82.061 115.659 80.4573 115.659 78.5176C115.659 77.7377 115.552 77.0238 115.336 76.3736C115.12 75.7233 114.784 75.1258 114.331 74.581C113.875 74.0362 113.286 73.5244 112.564 73.0477C111.842 72.571 110.982 72.1163 109.983 71.6835L106.14 70.0733C100.689 67.7535 97.9622 64.3573 97.9622 59.8891C97.9622 56.8752 99.1052 54.3555 101.393 52.3301C103.682 50.2871 106.526 49.2656 109.931 49.2656C114.523 49.2656 118.109 51.5173 120.687 56.0206H120.689Z" fill="#D4238B"/>
<path d="M134.981 50.0454V100.588H128.972V50.0454H134.981Z" fill="#D4238B"/>
<path d="M74.7991 120.46C74.7991 114.815 76.8539 109.964 80.9634 105.913C85.0555 101.86 89.9744 99.835 95.7177 99.835C101.393 99.835 106.26 101.878 110.317 105.966C114.392 110.054 116.431 114.964 116.431 120.695C116.431 126.462 114.385 131.356 110.293 135.372C106.184 139.407 101.221 141.424 95.4102 141.424C90.2688 141.424 85.651 139.631 81.5589 136.046C77.0524 132.081 74.8013 126.886 74.8013 120.46H74.7991ZM80.8609 120.539C80.8609 124.972 82.3398 128.619 85.2977 131.477C88.2381 134.335 91.6343 135.763 95.4865 135.763C99.6659 135.763 103.191 134.309 106.061 131.398C108.934 128.454 110.37 124.869 110.37 120.643C110.37 116.366 108.952 112.78 106.114 109.887C103.293 106.979 99.8033 105.522 95.6414 105.522C91.4969 105.522 87.9981 106.977 85.1428 109.887C82.2875 112.763 80.8609 116.313 80.8609 120.537V120.539Z" fill="#D4238B"/>
<path d="M135.882 128.182H129.872V141.424H135.882V128.182Z" fill="#D4238B"/>
<path d="M129.873 123.371L116.872 100.588H123.784L132.891 116.616L142.022 100.588H148.935L135.882 123.371H129.873Z" fill="#FFB800"/>
<path d="M61.1203 136.02L73.5886 100.588H67.0098L55.8416 133.338H61.1203V136.02Z" fill="#D4238B"/>
<path d="M55.8414 133.338L44.8259 100.588H38.2493L50.5671 136.426V133.338H55.8414Z" fill="#D4238B"/>
<path d="M61.1203 133.338H55.8415H50.5671V136.427L52.286 141.424H59.2204L61.1203 136.02V133.338Z" fill="#D4238B"/>
</g>
<defs>
<clipPath id="clip0_235_1476">
<rect width="187.184" height="190.694" fill="white"/>
</clipPath>
</defs>
</svg>
