<svg width="45" height="45" viewBox="0 0 45 45" fill="none" xmlns="http://www.w3.org/2000/svg">
<rect width="45" height="45" rx="3.46154" fill="#D4238B"/>
<path d="M8 37.4696L10.0715 29.9021C8.79322 27.6869 8.12156 25.1759 8.12279 22.601C8.12647 14.5508 14.6773 8 22.7262 8C26.6322 8.00123 30.2987 9.5226 33.0565 12.2829C35.8132 15.0432 37.3309 18.7122 37.3296 22.6145C37.3259 30.6658 30.7751 37.2167 22.7262 37.2167C20.2827 37.2154 17.8748 36.6027 15.7419 35.4387L8 37.4696ZM16.1005 32.795C18.1584 34.0168 20.1231 34.7486 22.7213 34.7498C29.4109 34.7498 34.8603 29.3053 34.864 22.612C34.8665 15.9052 29.4428 10.4681 22.7311 10.4656C16.0366 10.4656 10.5909 15.9101 10.5884 22.6022C10.5872 25.3343 11.3878 27.38 12.7323 29.5202L11.5057 33.9996L16.1005 32.795ZM30.0826 26.0857C29.9917 25.9335 29.7486 25.8426 29.3827 25.6597C29.018 25.4767 27.224 24.5938 26.8888 24.4723C26.5548 24.3507 26.3117 24.2893 26.0673 24.6552C25.8242 25.0199 25.1243 25.8426 24.9119 26.0857C24.6994 26.3289 24.4858 26.3596 24.1211 26.1766C23.7564 25.9937 22.5801 25.6093 21.1864 24.3655C20.1022 23.3979 19.3691 22.2031 19.1567 21.8372C18.9443 21.4725 19.1346 21.2748 19.3163 21.0931C19.4809 20.9298 19.681 20.667 19.864 20.4534C20.0494 20.2422 20.1096 20.0899 20.2323 19.8456C20.3539 19.6024 20.2937 19.3888 20.2016 19.2058C20.1096 19.0241 19.3802 17.2277 19.0769 16.4971C18.7797 15.7861 18.4789 15.8819 18.2554 15.8708L17.5555 15.8586C17.3124 15.8586 16.917 15.9494 16.583 16.3153C16.249 16.6813 15.306 17.5629 15.306 19.3593C15.306 21.1557 16.6137 22.8907 16.7955 23.1339C16.9784 23.377 19.3679 27.0632 23.0283 28.6435C23.8989 29.0192 24.5791 29.2439 25.1083 29.4121C25.9826 29.6896 26.7783 29.6503 27.407 29.557C28.1081 29.4526 29.5656 28.6742 29.8701 27.822C30.1747 26.9686 30.1747 26.238 30.0826 26.0857Z" fill="white"/>
</svg>
